M48
; DRILL file {KiCad (6.0.8-1)-1} date Monday, March 06, 2023 at 03:36:15 pm
; FORMAT={-:-/ absolute / metric / decimal}
; #@! TF.CreationDate,2023-03-06T15:36:15-08:00
; #@! TF.GenerationSoftware,Kicad,Pcbnew,(6.0.8-1)-1
; #@! TF.FileFunction,Plated,1,2,PTH
FMAT,2
METRIC
; #@! TA.AperFunction,Plated,PTH,ComponentDrill
T1C1.020
; #@! TA.AperFunction,Plated,PTH,ComponentDrill
T2C1.780
; #@! TA.AperFunction,Plated,PTH,ComponentDrill
T3C1.800
%
G90
G05
T1
X82.075Y-121.055
X82.075Y-124.055
X85.567Y-141.547
X87.688Y-143.668
X95.301Y-149.482
X97.899Y-150.982
X136.416Y-151.617
X139.014Y-150.117
X146.627Y-143.668
X148.748Y-141.547
X150.335Y-121.69
X150.335Y-124.69
T2
X87.75Y-120.22
X87.75Y-123.62
X89.271Y-137.56
X91.675Y-139.964
X96.285Y-130.546
X97.386Y-144.35
X97.67Y-120.22
X97.67Y-123.62
X98.689Y-132.95
X100.33Y-146.05
X102.346Y-135.759
X105.29Y-137.459
X106.294Y-101.059
X108.862Y-110.641
X109.578Y-100.179
X112.146Y-109.761
X119.629Y-109.761
X122.197Y-100.179
X122.913Y-110.641
X125.481Y-101.059
X128.128Y-137.525
X131.072Y-135.825
X133.088Y-146.115
X134.62Y-120.855
X134.62Y-124.255
X134.991Y-132.95
X136.032Y-144.415
X137.395Y-130.546
X142.005Y-139.964
X144.409Y-137.56
X144.54Y-120.855
X144.54Y-124.255
T3
X96.52Y-113.185
X101.456Y-110.335
X113.995Y-140.625
X119.695Y-140.625
X131.022Y-109.695
X135.959Y-112.545
T0
M30
