G04 #@! TF.GenerationSoftware,KiCad,Pcbnew,(6.0.8-1)-1*
G04 #@! TF.CreationDate,2023-03-06T15:28:40-08:00*
G04 #@! TF.ProjectId,urban battery - power_distribution,75726261-6e20-4626-9174-74657279202d,rev?*
G04 #@! TF.SameCoordinates,Original*
G04 #@! TF.FileFunction,Legend,Top*
G04 #@! TF.FilePolarity,Positive*
%FSLAX46Y46*%
G04 Gerber Fmt 4.6, Leading zero omitted, Abs format (unit mm)*
G04 Created by KiCad (PCBNEW (6.0.8-1)-1) date 2023-03-06 15:28:40*
%MOMM*%
%LPD*%
G01*
G04 APERTURE LIST*
G04 Aperture macros list*
%AMRoundRect*
0 Rectangle with rounded corners*
0 $1 Rounding radius*
0 $2 $3 $4 $5 $6 $7 $8 $9 X,Y pos of 4 corners*
0 Add a 4 corners polygon primitive as box body*
4,1,4,$2,$3,$4,$5,$6,$7,$8,$9,$2,$3,0*
0 Add four circle primitives for the rounded corners*
1,1,$1+$1,$2,$3*
1,1,$1+$1,$4,$5*
1,1,$1+$1,$6,$7*
1,1,$1+$1,$8,$9*
0 Add four rect primitives between the rounded corners*
20,1,$1+$1,$2,$3,$4,$5,0*
20,1,$1+$1,$4,$5,$6,$7,0*
20,1,$1+$1,$6,$7,$8,$9,0*
20,1,$1+$1,$8,$9,$2,$3,0*%
%AMHorizOval*
0 Thick line with rounded ends*
0 $1 width*
0 $2 $3 position (X,Y) of the first rounded end (center of the circle)*
0 $4 $5 position (X,Y) of the second rounded end (center of the circle)*
0 Add line between two ends*
20,1,$1,$2,$3,$4,$5,0*
0 Add two circle primitives to create the rounded ends*
1,1,$1,$2,$3*
1,1,$1,$4,$5*%
G04 Aperture macros list end*
%ADD10C,0.150000*%
%ADD11C,0.300000*%
%ADD12C,0.100000*%
%ADD13C,0.120000*%
%ADD14C,0.127000*%
%ADD15C,1.626200*%
%ADD16C,1.226200*%
%ADD17C,0.010000*%
%ADD18C,3.000000*%
%ADD19RoundRect,0.250001X0.813011X0.408179X-0.053012X0.908178X-0.813011X-0.408179X0.053012X-0.908178X0*%
%ADD20HorizOval,1.500000X0.130000X0.225167X-0.130000X-0.225167X0*%
%ADD21RoundRect,0.250001X0.759999X-0.499999X0.759999X0.499999X-0.759999X0.499999X-0.759999X-0.499999X0*%
%ADD22O,2.020000X1.500000*%
%ADD23C,3.200000*%
%ADD24RoundRect,0.250000X0.625000X-0.375000X0.625000X0.375000X-0.625000X0.375000X-0.625000X-0.375000X0*%
%ADD25C,2.780000*%
%ADD26C,3.100000*%
%ADD27RoundRect,0.250001X0.890953X0.183848X0.183848X0.890953X-0.890953X-0.183848X-0.183848X-0.890953X0*%
%ADD28HorizOval,1.500000X0.183848X0.183848X-0.183848X-0.183848X0*%
%ADD29RoundRect,0.250001X-0.759999X0.499999X-0.759999X-0.499999X0.759999X-0.499999X0.759999X0.499999X0*%
%ADD30RoundRect,0.250001X0.053012X0.908178X-0.813011X0.408179X-0.053012X-0.908178X0.813011X-0.408179X0*%
%ADD31HorizOval,1.500000X-0.130000X0.225167X0.130000X-0.225167X0*%
%ADD32RoundRect,0.250001X-0.183848X0.890953X-0.890953X0.183848X0.183848X-0.890953X0.890953X-0.183848X0*%
%ADD33HorizOval,1.500000X-0.183848X0.183848X0.183848X-0.183848X0*%
%ADD34RoundRect,0.250000X0.450000X-0.262500X0.450000X0.262500X-0.450000X0.262500X-0.450000X-0.262500X0*%
G04 APERTURE END LIST*
D10*
X129290502Y-113633365D02*
X129088430Y-113516698D01*
X128905096Y-113834241D02*
X129255096Y-113228023D01*
X129543771Y-113394690D01*
X129771122Y-114334241D02*
X129735716Y-113928899D01*
X129424712Y-114134241D02*
X129774712Y-113528023D01*
X130005652Y-113661356D01*
X130046720Y-113723557D01*
X130058921Y-113769091D01*
X130054455Y-113843493D01*
X130004455Y-113930096D01*
X129942254Y-113971164D01*
X129896720Y-113983365D01*
X129822318Y-113978899D01*
X129591378Y-113845566D01*
X130496399Y-113944690D02*
X130611869Y-114011356D01*
X130652938Y-114073557D01*
X130677339Y-114164626D01*
X130639540Y-114296762D01*
X130522874Y-114498835D01*
X130427339Y-114597638D01*
X130336271Y-114622040D01*
X130261869Y-114617574D01*
X130146399Y-114550908D01*
X130105331Y-114488707D01*
X130080929Y-114397638D01*
X130118728Y-114265502D01*
X130235395Y-114063429D01*
X130330929Y-113964626D01*
X130421998Y-113940224D01*
X130496399Y-113944690D01*
X130666015Y-114850908D02*
X131016015Y-114244690D01*
X131012425Y-115050908D01*
X131362425Y-114444690D01*
X131564497Y-114561356D02*
X131910908Y-114761356D01*
X131387702Y-115267574D02*
X131737702Y-114661356D01*
X132295993Y-115561036D02*
X132584668Y-115727702D01*
X132138258Y-115700908D02*
X132690330Y-115211356D01*
X132542403Y-115934241D01*
X133124219Y-116193173D02*
X133078685Y-116205373D01*
X132975416Y-116184241D01*
X132917681Y-116150908D01*
X132847745Y-116072040D01*
X132823343Y-115980972D01*
X132827809Y-115906570D01*
X132865608Y-115774433D01*
X132915608Y-115687831D01*
X133011142Y-115589027D01*
X133073343Y-115547959D01*
X133164411Y-115523557D01*
X133267681Y-115544690D01*
X133325416Y-115578023D01*
X133395352Y-115656891D01*
X133407552Y-115702425D01*
X133730437Y-116543173D02*
X133684903Y-116555373D01*
X133581633Y-116534241D01*
X133523898Y-116500908D01*
X133453963Y-116422040D01*
X133429561Y-116330972D01*
X133434027Y-116256570D01*
X133471826Y-116124433D01*
X133521826Y-116037831D01*
X133617360Y-115939027D01*
X133679561Y-115897959D01*
X133770629Y-115873557D01*
X133873898Y-115894690D01*
X133931633Y-115928023D01*
X134001569Y-116006891D01*
X134013770Y-116052425D01*
D11*
X109212857Y-118082142D02*
X109427142Y-118153571D01*
X109784285Y-118153571D01*
X109927142Y-118082142D01*
X109998571Y-118010714D01*
X110070000Y-117867857D01*
X110070000Y-117725000D01*
X109998571Y-117582142D01*
X109927142Y-117510714D01*
X109784285Y-117439285D01*
X109498571Y-117367857D01*
X109355714Y-117296428D01*
X109284285Y-117225000D01*
X109212857Y-117082142D01*
X109212857Y-116939285D01*
X109284285Y-116796428D01*
X109355714Y-116725000D01*
X109498571Y-116653571D01*
X109855714Y-116653571D01*
X110070000Y-116725000D01*
X110712857Y-117153571D02*
X110712857Y-118653571D01*
X110712857Y-117225000D02*
X110855714Y-117153571D01*
X111141428Y-117153571D01*
X111284285Y-117225000D01*
X111355714Y-117296428D01*
X111427142Y-117439285D01*
X111427142Y-117867857D01*
X111355714Y-118010714D01*
X111284285Y-118082142D01*
X111141428Y-118153571D01*
X110855714Y-118153571D01*
X110712857Y-118082142D01*
X112070000Y-118153571D02*
X112070000Y-117153571D01*
X112070000Y-116653571D02*
X111998571Y-116725000D01*
X112070000Y-116796428D01*
X112141428Y-116725000D01*
X112070000Y-116653571D01*
X112070000Y-116796428D01*
X113427142Y-118153571D02*
X113427142Y-116653571D01*
X113427142Y-118082142D02*
X113284285Y-118153571D01*
X112998571Y-118153571D01*
X112855714Y-118082142D01*
X112784285Y-118010714D01*
X112712857Y-117867857D01*
X112712857Y-117439285D01*
X112784285Y-117296428D01*
X112855714Y-117225000D01*
X112998571Y-117153571D01*
X113284285Y-117153571D01*
X113427142Y-117225000D01*
X114712857Y-118082142D02*
X114570000Y-118153571D01*
X114284285Y-118153571D01*
X114141428Y-118082142D01*
X114070000Y-117939285D01*
X114070000Y-117367857D01*
X114141428Y-117225000D01*
X114284285Y-117153571D01*
X114570000Y-117153571D01*
X114712857Y-117225000D01*
X114784285Y-117367857D01*
X114784285Y-117510714D01*
X114070000Y-117653571D01*
X115284285Y-117153571D02*
X115641428Y-118153571D01*
X115998571Y-117153571D02*
X115641428Y-118153571D01*
X115498571Y-118510714D01*
X115427142Y-118582142D01*
X115284285Y-118653571D01*
X117498571Y-116653571D02*
X117998571Y-118153571D01*
X118498571Y-116653571D01*
X119784285Y-118153571D02*
X118927142Y-118153571D01*
X119355714Y-118153571D02*
X119355714Y-116653571D01*
X119212857Y-116867857D01*
X119070000Y-117010714D01*
X118927142Y-117082142D01*
X120427142Y-118010714D02*
X120498571Y-118082142D01*
X120427142Y-118153571D01*
X120355714Y-118082142D01*
X120427142Y-118010714D01*
X120427142Y-118153571D01*
X121427142Y-116653571D02*
X121570000Y-116653571D01*
X121712857Y-116725000D01*
X121784285Y-116796428D01*
X121855714Y-116939285D01*
X121927142Y-117225000D01*
X121927142Y-117582142D01*
X121855714Y-117867857D01*
X121784285Y-118010714D01*
X121712857Y-118082142D01*
X121570000Y-118153571D01*
X121427142Y-118153571D01*
X121284285Y-118082142D01*
X121212857Y-118010714D01*
X121141428Y-117867857D01*
X121070000Y-117582142D01*
X121070000Y-117225000D01*
X121141428Y-116939285D01*
X121212857Y-116796428D01*
X121284285Y-116725000D01*
X121427142Y-116653571D01*
D12*
X113943095Y-114734880D02*
X114014523Y-114758690D01*
X114133571Y-114758690D01*
X114181190Y-114734880D01*
X114205000Y-114711071D01*
X114228809Y-114663452D01*
X114228809Y-114615833D01*
X114205000Y-114568214D01*
X114181190Y-114544404D01*
X114133571Y-114520595D01*
X114038333Y-114496785D01*
X113990714Y-114472976D01*
X113966904Y-114449166D01*
X113943095Y-114401547D01*
X113943095Y-114353928D01*
X113966904Y-114306309D01*
X113990714Y-114282500D01*
X114038333Y-114258690D01*
X114157380Y-114258690D01*
X114228809Y-114282500D01*
X114657380Y-114758690D02*
X114657380Y-114496785D01*
X114633571Y-114449166D01*
X114585952Y-114425357D01*
X114490714Y-114425357D01*
X114443095Y-114449166D01*
X114657380Y-114734880D02*
X114609761Y-114758690D01*
X114490714Y-114758690D01*
X114443095Y-114734880D01*
X114419285Y-114687261D01*
X114419285Y-114639642D01*
X114443095Y-114592023D01*
X114490714Y-114568214D01*
X114609761Y-114568214D01*
X114657380Y-114544404D01*
X114895476Y-114758690D02*
X114895476Y-114425357D01*
X114895476Y-114520595D02*
X114919285Y-114472976D01*
X114943095Y-114449166D01*
X114990714Y-114425357D01*
X115038333Y-114425357D01*
X115419285Y-114758690D02*
X115419285Y-114496785D01*
X115395476Y-114449166D01*
X115347857Y-114425357D01*
X115252619Y-114425357D01*
X115205000Y-114449166D01*
X115419285Y-114734880D02*
X115371666Y-114758690D01*
X115252619Y-114758690D01*
X115205000Y-114734880D01*
X115181190Y-114687261D01*
X115181190Y-114639642D01*
X115205000Y-114592023D01*
X115252619Y-114568214D01*
X115371666Y-114568214D01*
X115419285Y-114544404D01*
X115657380Y-114758690D02*
X115657380Y-114258690D01*
X115871666Y-114758690D02*
X115871666Y-114496785D01*
X115847857Y-114449166D01*
X115800238Y-114425357D01*
X115728809Y-114425357D01*
X115681190Y-114449166D01*
X115657380Y-114472976D01*
X116824047Y-114806309D02*
X116776428Y-114782500D01*
X116728809Y-114734880D01*
X116657380Y-114663452D01*
X116609761Y-114639642D01*
X116562142Y-114639642D01*
X116585952Y-114758690D02*
X116538333Y-114734880D01*
X116490714Y-114687261D01*
X116466904Y-114592023D01*
X116466904Y-114425357D01*
X116490714Y-114330119D01*
X116538333Y-114282500D01*
X116585952Y-114258690D01*
X116681190Y-114258690D01*
X116728809Y-114282500D01*
X116776428Y-114330119D01*
X116800238Y-114425357D01*
X116800238Y-114592023D01*
X116776428Y-114687261D01*
X116728809Y-114734880D01*
X116681190Y-114758690D01*
X116585952Y-114758690D01*
X117228809Y-114758690D02*
X117228809Y-114496785D01*
X117205000Y-114449166D01*
X117157380Y-114425357D01*
X117062142Y-114425357D01*
X117014523Y-114449166D01*
X117228809Y-114734880D02*
X117181190Y-114758690D01*
X117062142Y-114758690D01*
X117014523Y-114734880D01*
X116990714Y-114687261D01*
X116990714Y-114639642D01*
X117014523Y-114592023D01*
X117062142Y-114568214D01*
X117181190Y-114568214D01*
X117228809Y-114544404D01*
X117681190Y-114758690D02*
X117681190Y-114258690D01*
X117681190Y-114734880D02*
X117633571Y-114758690D01*
X117538333Y-114758690D01*
X117490714Y-114734880D01*
X117466904Y-114711071D01*
X117443095Y-114663452D01*
X117443095Y-114520595D01*
X117466904Y-114472976D01*
X117490714Y-114449166D01*
X117538333Y-114425357D01*
X117633571Y-114425357D01*
X117681190Y-114449166D01*
X118133571Y-114758690D02*
X118133571Y-114496785D01*
X118109761Y-114449166D01*
X118062142Y-114425357D01*
X117966904Y-114425357D01*
X117919285Y-114449166D01*
X118133571Y-114734880D02*
X118085952Y-114758690D01*
X117966904Y-114758690D01*
X117919285Y-114734880D01*
X117895476Y-114687261D01*
X117895476Y-114639642D01*
X117919285Y-114592023D01*
X117966904Y-114568214D01*
X118085952Y-114568214D01*
X118133571Y-114544404D01*
X118371666Y-114758690D02*
X118371666Y-114425357D01*
X118371666Y-114520595D02*
X118395476Y-114472976D01*
X118419285Y-114449166D01*
X118466904Y-114425357D01*
X118514523Y-114425357D01*
X111335952Y-115539880D02*
X111407380Y-115563690D01*
X111526428Y-115563690D01*
X111574047Y-115539880D01*
X111597857Y-115516071D01*
X111621666Y-115468452D01*
X111621666Y-115420833D01*
X111597857Y-115373214D01*
X111574047Y-115349404D01*
X111526428Y-115325595D01*
X111431190Y-115301785D01*
X111383571Y-115277976D01*
X111359761Y-115254166D01*
X111335952Y-115206547D01*
X111335952Y-115158928D01*
X111359761Y-115111309D01*
X111383571Y-115087500D01*
X111431190Y-115063690D01*
X111550238Y-115063690D01*
X111621666Y-115087500D01*
X111835952Y-115563690D02*
X111835952Y-115063690D01*
X112050238Y-115563690D02*
X112050238Y-115301785D01*
X112026428Y-115254166D01*
X111978809Y-115230357D01*
X111907380Y-115230357D01*
X111859761Y-115254166D01*
X111835952Y-115277976D01*
X112478809Y-115539880D02*
X112431190Y-115563690D01*
X112335952Y-115563690D01*
X112288333Y-115539880D01*
X112264523Y-115492261D01*
X112264523Y-115301785D01*
X112288333Y-115254166D01*
X112335952Y-115230357D01*
X112431190Y-115230357D01*
X112478809Y-115254166D01*
X112502619Y-115301785D01*
X112502619Y-115349404D01*
X112264523Y-115397023D01*
X112788333Y-115563690D02*
X112740714Y-115539880D01*
X112716904Y-115492261D01*
X112716904Y-115063690D01*
X113050238Y-115563690D02*
X113002619Y-115539880D01*
X112978809Y-115492261D01*
X112978809Y-115063690D01*
X113621666Y-115301785D02*
X113788333Y-115301785D01*
X113859761Y-115563690D02*
X113621666Y-115563690D01*
X113621666Y-115063690D01*
X113859761Y-115063690D01*
X114288333Y-115539880D02*
X114240714Y-115563690D01*
X114145476Y-115563690D01*
X114097857Y-115539880D01*
X114074047Y-115516071D01*
X114050238Y-115468452D01*
X114050238Y-115325595D01*
X114074047Y-115277976D01*
X114097857Y-115254166D01*
X114145476Y-115230357D01*
X114240714Y-115230357D01*
X114288333Y-115254166D01*
X114574047Y-115563690D02*
X114526428Y-115539880D01*
X114502619Y-115516071D01*
X114478809Y-115468452D01*
X114478809Y-115325595D01*
X114502619Y-115277976D01*
X114526428Y-115254166D01*
X114574047Y-115230357D01*
X114645476Y-115230357D01*
X114693095Y-115254166D01*
X114716904Y-115277976D01*
X114740714Y-115325595D01*
X114740714Y-115468452D01*
X114716904Y-115516071D01*
X114693095Y-115539880D01*
X114645476Y-115563690D01*
X114574047Y-115563690D01*
X114955000Y-115373214D02*
X115335952Y-115373214D01*
X115574047Y-115563690D02*
X115574047Y-115063690D01*
X115740714Y-115420833D01*
X115907380Y-115063690D01*
X115907380Y-115563690D01*
X116359761Y-115563690D02*
X116359761Y-115301785D01*
X116335952Y-115254166D01*
X116288333Y-115230357D01*
X116193095Y-115230357D01*
X116145476Y-115254166D01*
X116359761Y-115539880D02*
X116312142Y-115563690D01*
X116193095Y-115563690D01*
X116145476Y-115539880D01*
X116121666Y-115492261D01*
X116121666Y-115444642D01*
X116145476Y-115397023D01*
X116193095Y-115373214D01*
X116312142Y-115373214D01*
X116359761Y-115349404D01*
X116597857Y-115563690D02*
X116597857Y-115230357D01*
X116597857Y-115325595D02*
X116621666Y-115277976D01*
X116645476Y-115254166D01*
X116693095Y-115230357D01*
X116740714Y-115230357D01*
X117121666Y-115563690D02*
X117121666Y-115301785D01*
X117097857Y-115254166D01*
X117050238Y-115230357D01*
X116955000Y-115230357D01*
X116907380Y-115254166D01*
X117121666Y-115539880D02*
X117074047Y-115563690D01*
X116955000Y-115563690D01*
X116907380Y-115539880D01*
X116883571Y-115492261D01*
X116883571Y-115444642D01*
X116907380Y-115397023D01*
X116955000Y-115373214D01*
X117074047Y-115373214D01*
X117121666Y-115349404D01*
X117288333Y-115230357D02*
X117478809Y-115230357D01*
X117359761Y-115063690D02*
X117359761Y-115492261D01*
X117383571Y-115539880D01*
X117431190Y-115563690D01*
X117478809Y-115563690D01*
X117645476Y-115563690D02*
X117645476Y-115063690D01*
X117859761Y-115563690D02*
X117859761Y-115301785D01*
X117835952Y-115254166D01*
X117788333Y-115230357D01*
X117716904Y-115230357D01*
X117669285Y-115254166D01*
X117645476Y-115277976D01*
X118169285Y-115563690D02*
X118121666Y-115539880D01*
X118097857Y-115516071D01*
X118074047Y-115468452D01*
X118074047Y-115325595D01*
X118097857Y-115277976D01*
X118121666Y-115254166D01*
X118169285Y-115230357D01*
X118240714Y-115230357D01*
X118288333Y-115254166D01*
X118312142Y-115277976D01*
X118335952Y-115325595D01*
X118335952Y-115468452D01*
X118312142Y-115516071D01*
X118288333Y-115539880D01*
X118240714Y-115563690D01*
X118169285Y-115563690D01*
X118550238Y-115230357D02*
X118550238Y-115563690D01*
X118550238Y-115277976D02*
X118574047Y-115254166D01*
X118621666Y-115230357D01*
X118693095Y-115230357D01*
X118740714Y-115254166D01*
X118764523Y-115301785D01*
X118764523Y-115563690D01*
X119359761Y-115111309D02*
X119383571Y-115087500D01*
X119431190Y-115063690D01*
X119550238Y-115063690D01*
X119597857Y-115087500D01*
X119621666Y-115111309D01*
X119645476Y-115158928D01*
X119645476Y-115206547D01*
X119621666Y-115277976D01*
X119335952Y-115563690D01*
X119645476Y-115563690D01*
X119955000Y-115063690D02*
X120002619Y-115063690D01*
X120050238Y-115087500D01*
X120074047Y-115111309D01*
X120097857Y-115158928D01*
X120121666Y-115254166D01*
X120121666Y-115373214D01*
X120097857Y-115468452D01*
X120074047Y-115516071D01*
X120050238Y-115539880D01*
X120002619Y-115563690D01*
X119955000Y-115563690D01*
X119907380Y-115539880D01*
X119883571Y-115516071D01*
X119859761Y-115468452D01*
X119835952Y-115373214D01*
X119835952Y-115254166D01*
X119859761Y-115158928D01*
X119883571Y-115111309D01*
X119907380Y-115087500D01*
X119955000Y-115063690D01*
X120312142Y-115111309D02*
X120335952Y-115087500D01*
X120383571Y-115063690D01*
X120502619Y-115063690D01*
X120550238Y-115087500D01*
X120574047Y-115111309D01*
X120597857Y-115158928D01*
X120597857Y-115206547D01*
X120574047Y-115277976D01*
X120288333Y-115563690D01*
X120597857Y-115563690D01*
X120764523Y-115063690D02*
X121074047Y-115063690D01*
X120907380Y-115254166D01*
X120978809Y-115254166D01*
X121026428Y-115277976D01*
X121050238Y-115301785D01*
X121074047Y-115349404D01*
X121074047Y-115468452D01*
X121050238Y-115516071D01*
X121026428Y-115539880D01*
X120978809Y-115563690D01*
X120835952Y-115563690D01*
X120788333Y-115539880D01*
X120764523Y-115516071D01*
D10*
X101283333Y-118453333D02*
X101983333Y-118453333D01*
X101483333Y-118686666D01*
X101983333Y-118920000D01*
X101283333Y-118920000D01*
X101983333Y-119386666D02*
X101983333Y-119520000D01*
X101950000Y-119586666D01*
X101883333Y-119653333D01*
X101750000Y-119686666D01*
X101516666Y-119686666D01*
X101383333Y-119653333D01*
X101316666Y-119586666D01*
X101283333Y-119520000D01*
X101283333Y-119386666D01*
X101316666Y-119320000D01*
X101383333Y-119253333D01*
X101516666Y-119220000D01*
X101750000Y-119220000D01*
X101883333Y-119253333D01*
X101950000Y-119320000D01*
X101983333Y-119386666D01*
X101983333Y-119886666D02*
X101983333Y-120286666D01*
X101283333Y-120086666D02*
X101983333Y-120086666D01*
X101983333Y-120653333D02*
X101983333Y-120786666D01*
X101950000Y-120853333D01*
X101883333Y-120920000D01*
X101750000Y-120953333D01*
X101516666Y-120953333D01*
X101383333Y-120920000D01*
X101316666Y-120853333D01*
X101283333Y-120786666D01*
X101283333Y-120653333D01*
X101316666Y-120586666D01*
X101383333Y-120520000D01*
X101516666Y-120486666D01*
X101750000Y-120486666D01*
X101883333Y-120520000D01*
X101950000Y-120586666D01*
X101983333Y-120653333D01*
X101283333Y-121653333D02*
X101616666Y-121420000D01*
X101283333Y-121253333D02*
X101983333Y-121253333D01*
X101983333Y-121520000D01*
X101950000Y-121586666D01*
X101916666Y-121620000D01*
X101850000Y-121653333D01*
X101750000Y-121653333D01*
X101683333Y-121620000D01*
X101650000Y-121586666D01*
X101616666Y-121520000D01*
X101616666Y-121253333D01*
X101350000Y-122886666D02*
X101316666Y-122853333D01*
X101283333Y-122753333D01*
X101283333Y-122686666D01*
X101316666Y-122586666D01*
X101383333Y-122520000D01*
X101450000Y-122486666D01*
X101583333Y-122453333D01*
X101683333Y-122453333D01*
X101816666Y-122486666D01*
X101883333Y-122520000D01*
X101950000Y-122586666D01*
X101983333Y-122686666D01*
X101983333Y-122753333D01*
X101950000Y-122853333D01*
X101916666Y-122886666D01*
X101283333Y-123186666D02*
X101983333Y-123186666D01*
X101283333Y-123586666D01*
X101983333Y-123586666D01*
X101983333Y-123820000D02*
X101983333Y-124220000D01*
X101283333Y-124020000D02*
X101983333Y-124020000D01*
X101283333Y-124853333D02*
X101616666Y-124620000D01*
X101283333Y-124453333D02*
X101983333Y-124453333D01*
X101983333Y-124720000D01*
X101950000Y-124786666D01*
X101916666Y-124820000D01*
X101850000Y-124853333D01*
X101750000Y-124853333D01*
X101683333Y-124820000D01*
X101650000Y-124786666D01*
X101616666Y-124720000D01*
X101616666Y-124453333D01*
X101283333Y-125486666D02*
X101283333Y-125153333D01*
X101983333Y-125153333D01*
X114623333Y-136841666D02*
X114223333Y-136841666D01*
X114423333Y-136841666D02*
X114423333Y-136141666D01*
X114356666Y-136241666D01*
X114290000Y-136308333D01*
X114223333Y-136341666D01*
X114890000Y-136208333D02*
X114923333Y-136175000D01*
X114990000Y-136141666D01*
X115156666Y-136141666D01*
X115223333Y-136175000D01*
X115256666Y-136208333D01*
X115290000Y-136275000D01*
X115290000Y-136341666D01*
X115256666Y-136441666D01*
X114856666Y-136841666D01*
X115290000Y-136841666D01*
X115490000Y-136141666D02*
X115723333Y-136841666D01*
X115956666Y-136141666D01*
X116723333Y-136841666D02*
X116723333Y-136141666D01*
X117056666Y-136841666D02*
X117056666Y-136141666D01*
X117456666Y-136841666D01*
X117456666Y-136141666D01*
X117790000Y-136841666D02*
X117790000Y-136141666D01*
X118056666Y-136141666D01*
X118123333Y-136175000D01*
X118156666Y-136208333D01*
X118190000Y-136275000D01*
X118190000Y-136375000D01*
X118156666Y-136441666D01*
X118123333Y-136475000D01*
X118056666Y-136508333D01*
X117790000Y-136508333D01*
X118490000Y-136141666D02*
X118490000Y-136708333D01*
X118523333Y-136775000D01*
X118556666Y-136808333D01*
X118623333Y-136841666D01*
X118756666Y-136841666D01*
X118823333Y-136808333D01*
X118856666Y-136775000D01*
X118890000Y-136708333D01*
X118890000Y-136141666D01*
X119123333Y-136141666D02*
X119523333Y-136141666D01*
X119323333Y-136841666D02*
X119323333Y-136141666D01*
X131134398Y-131213486D02*
X131417241Y-130930643D01*
X131770794Y-131567039D02*
X131275820Y-131072064D01*
X131817935Y-131001354D02*
X131982926Y-130836362D01*
X132312910Y-131024924D02*
X132077207Y-131260626D01*
X131582233Y-130765651D01*
X131817935Y-130529949D01*
X132760744Y-130577089D02*
X132525042Y-130812792D01*
X132030067Y-130317817D01*
X132666463Y-130152825D02*
X132831455Y-129987834D01*
X133161438Y-130176396D02*
X132925735Y-130412098D01*
X132430761Y-129917123D01*
X132666463Y-129681421D01*
X133373570Y-129964264D02*
X132878595Y-129469289D01*
X133397140Y-129657851D01*
X133208578Y-129139306D01*
X133703553Y-129634280D01*
X133679983Y-129139306D02*
X133844974Y-128974314D01*
X134174957Y-129162876D02*
X133939255Y-129398578D01*
X133444280Y-128903603D01*
X133679983Y-128667901D01*
X133821404Y-128526480D02*
X134104247Y-128243637D01*
X134457800Y-128880033D02*
X133962825Y-128385058D01*
X135047056Y-128290778D02*
X134646362Y-128220067D01*
X134764213Y-128573620D02*
X134269238Y-128078645D01*
X134457800Y-127890084D01*
X134528511Y-127866513D01*
X134575651Y-127866513D01*
X134646362Y-127890084D01*
X134717073Y-127960794D01*
X134740643Y-128031505D01*
X134740643Y-128078645D01*
X134717073Y-128149356D01*
X134528511Y-128337918D01*
X135117766Y-127748662D02*
X135353469Y-127984365D01*
X134693502Y-127654381D02*
X135117766Y-127748662D01*
X135023486Y-127324398D01*
X92724865Y-158120918D02*
X93082008Y-157502329D01*
X93194676Y-157402420D01*
X93324774Y-157367561D01*
X93472301Y-157397750D01*
X93554780Y-157445369D01*
X92403040Y-157440241D02*
X92461709Y-157529099D01*
X92479139Y-157594148D01*
X92472759Y-157700436D01*
X92448949Y-157741675D01*
X92360091Y-157800344D01*
X92295042Y-157817774D01*
X92188754Y-157811394D01*
X92023797Y-157716156D01*
X91965128Y-157627298D01*
X91947698Y-157562249D01*
X91954078Y-157455961D01*
X91977887Y-157414722D01*
X92066746Y-157356053D01*
X92131795Y-157338623D01*
X92238083Y-157345003D01*
X92403040Y-157440241D01*
X92509328Y-157446620D01*
X92574377Y-157429191D01*
X92663235Y-157370521D01*
X92758473Y-157205564D01*
X92764853Y-157099276D01*
X92747423Y-157034227D01*
X92688754Y-156945369D01*
X92523797Y-156850131D01*
X92417509Y-156843751D01*
X92352460Y-156861181D01*
X92263602Y-156919850D01*
X92168364Y-157084807D01*
X92161984Y-157191095D01*
X92179414Y-157256144D01*
X92238083Y-157345003D01*
X74382380Y-122888333D02*
X75096666Y-122888333D01*
X75239523Y-122935952D01*
X75334761Y-123031190D01*
X75382380Y-123174047D01*
X75382380Y-123269285D01*
X74382380Y-121983571D02*
X74382380Y-122174047D01*
X74430000Y-122269285D01*
X74477619Y-122316904D01*
X74620476Y-122412142D01*
X74810952Y-122459761D01*
X75191904Y-122459761D01*
X75287142Y-122412142D01*
X75334761Y-122364523D01*
X75382380Y-122269285D01*
X75382380Y-122078809D01*
X75334761Y-121983571D01*
X75287142Y-121935952D01*
X75191904Y-121888333D01*
X74953809Y-121888333D01*
X74858571Y-121935952D01*
X74810952Y-121983571D01*
X74763333Y-122078809D01*
X74763333Y-122269285D01*
X74810952Y-122364523D01*
X74858571Y-122412142D01*
X74953809Y-122459761D01*
X104648095Y-117927380D02*
X104648095Y-116927380D01*
X104648095Y-117403571D02*
X105219523Y-117403571D01*
X105219523Y-117927380D02*
X105219523Y-116927380D01*
X106219523Y-117927380D02*
X105648095Y-117927380D01*
X105933809Y-117927380D02*
X105933809Y-116927380D01*
X105838571Y-117070238D01*
X105743333Y-117165476D01*
X105648095Y-117213095D01*
X114196904Y-133364880D02*
X114196904Y-132364880D01*
X114435000Y-132364880D01*
X114577857Y-132412500D01*
X114673095Y-132507738D01*
X114720714Y-132602976D01*
X114768333Y-132793452D01*
X114768333Y-132936309D01*
X114720714Y-133126785D01*
X114673095Y-133222023D01*
X114577857Y-133317261D01*
X114435000Y-133364880D01*
X114196904Y-133364880D01*
X115720714Y-133364880D02*
X115149285Y-133364880D01*
X115435000Y-133364880D02*
X115435000Y-132364880D01*
X115339761Y-132507738D01*
X115244523Y-132602976D01*
X115149285Y-132650595D01*
X132184807Y-141294389D02*
X132351474Y-141583064D01*
X132805106Y-141321159D02*
X131939081Y-141821159D01*
X131700986Y-141408766D01*
X131810235Y-140740848D02*
X131816614Y-140847136D01*
X131799185Y-140912185D01*
X131740515Y-141001043D01*
X131699276Y-141024853D01*
X131592988Y-141031233D01*
X131527939Y-141013803D01*
X131439081Y-140955134D01*
X131343843Y-140790177D01*
X131337463Y-140683889D01*
X131354893Y-140618840D01*
X131413562Y-140529981D01*
X131454801Y-140506172D01*
X131561089Y-140499792D01*
X131626138Y-140517222D01*
X131714996Y-140575891D01*
X131810235Y-140740848D01*
X131899093Y-140799517D01*
X131964142Y-140816947D01*
X132070430Y-140810567D01*
X132235387Y-140715329D01*
X132294056Y-140626471D01*
X132311486Y-140561422D01*
X132305106Y-140455134D01*
X132209868Y-140290177D01*
X132121010Y-140231508D01*
X132055961Y-140214078D01*
X131949673Y-140220458D01*
X131784716Y-140315696D01*
X131726047Y-140404554D01*
X131708617Y-140469603D01*
X131714996Y-140575891D01*
X125603095Y-117927380D02*
X125603095Y-116927380D01*
X125603095Y-117403571D02*
X126174523Y-117403571D01*
X126174523Y-117927380D02*
X126174523Y-116927380D01*
X126603095Y-117022619D02*
X126650714Y-116975000D01*
X126745952Y-116927380D01*
X126984047Y-116927380D01*
X127079285Y-116975000D01*
X127126904Y-117022619D01*
X127174523Y-117117857D01*
X127174523Y-117213095D01*
X127126904Y-117355952D01*
X126555476Y-117927380D01*
X127174523Y-117927380D01*
X92860018Y-100657414D02*
X93217161Y-101276004D01*
X93247350Y-101423531D01*
X93212490Y-101553629D01*
X93112582Y-101666297D01*
X93030103Y-101713916D01*
X93189932Y-100466938D02*
X93726043Y-100157414D01*
X93627844Y-100653995D01*
X93751562Y-100582567D01*
X93857850Y-100576187D01*
X93922899Y-100593617D01*
X94011758Y-100652286D01*
X94130805Y-100858482D01*
X94137185Y-100964770D01*
X94119755Y-101029819D01*
X94061086Y-101118678D01*
X93813650Y-101261535D01*
X93707362Y-101267915D01*
X93642313Y-101250485D01*
X81128477Y-148577927D02*
X81633553Y-148072851D01*
X81768240Y-148005507D01*
X81902927Y-148005507D01*
X82037614Y-148072851D01*
X82104957Y-148140194D01*
X80859103Y-148308553D02*
X80387698Y-147837148D01*
X81397851Y-147433087D01*
X116506666Y-144232380D02*
X116506666Y-144946666D01*
X116459047Y-145089523D01*
X116363809Y-145184761D01*
X116220952Y-145232380D01*
X116125714Y-145232380D01*
X116935238Y-144327619D02*
X116982857Y-144280000D01*
X117078095Y-144232380D01*
X117316190Y-144232380D01*
X117411428Y-144280000D01*
X117459047Y-144327619D01*
X117506666Y-144422857D01*
X117506666Y-144518095D01*
X117459047Y-144660952D01*
X116887619Y-145232380D01*
X117506666Y-145232380D01*
X109237278Y-105750461D02*
X109323551Y-106072436D01*
X109829512Y-105936864D02*
X108863586Y-106195683D01*
X108740339Y-105735719D01*
X108746059Y-105389094D02*
X108687738Y-105355422D01*
X108617092Y-105275754D01*
X108555468Y-105045772D01*
X108576815Y-104941454D01*
X108610487Y-104883133D01*
X108690155Y-104812487D01*
X108782148Y-104787837D01*
X108932462Y-104796860D01*
X109632317Y-105200921D01*
X109472095Y-104602967D01*
X140415524Y-136071539D02*
X140651226Y-136307242D01*
X141021616Y-135936852D02*
X140314509Y-136643959D01*
X139977791Y-136307242D01*
X139775761Y-136105211D02*
X139338028Y-135667478D01*
X139843104Y-135633807D01*
X139742089Y-135532791D01*
X139708417Y-135431776D01*
X139708417Y-135364433D01*
X139742089Y-135263417D01*
X139910448Y-135095059D01*
X140011463Y-135061387D01*
X140078807Y-135061387D01*
X140179822Y-135095059D01*
X140381852Y-135297089D01*
X140415524Y-135398104D01*
X140415524Y-135465448D01*
X123034731Y-105713488D02*
X122948458Y-106035463D01*
X123454419Y-106171035D02*
X122488493Y-105912216D01*
X122611740Y-105452251D01*
X123811836Y-104837137D02*
X123663939Y-105389095D01*
X123737887Y-105113116D02*
X122771962Y-104854297D01*
X122885302Y-104983264D01*
X122952645Y-105099907D01*
X122973992Y-105204224D01*
X91626666Y-121848571D02*
X91293333Y-121848571D01*
X91293333Y-122372380D02*
X91293333Y-121372380D01*
X91769523Y-121372380D01*
X92626666Y-121372380D02*
X92150476Y-121372380D01*
X92102857Y-121848571D01*
X92150476Y-121800952D01*
X92245714Y-121753333D01*
X92483809Y-121753333D01*
X92579047Y-121800952D01*
X92626666Y-121848571D01*
X92674285Y-121943809D01*
X92674285Y-122181904D01*
X92626666Y-122277142D01*
X92579047Y-122324761D01*
X92483809Y-122372380D01*
X92245714Y-122372380D01*
X92150476Y-122324761D01*
X92102857Y-122277142D01*
X157567380Y-123523333D02*
X158281666Y-123523333D01*
X158424523Y-123570952D01*
X158519761Y-123666190D01*
X158567380Y-123809047D01*
X158567380Y-123904285D01*
X157567380Y-122570952D02*
X157567380Y-123047142D01*
X158043571Y-123094761D01*
X157995952Y-123047142D01*
X157948333Y-122951904D01*
X157948333Y-122713809D01*
X157995952Y-122618571D01*
X158043571Y-122570952D01*
X158138809Y-122523333D01*
X158376904Y-122523333D01*
X158472142Y-122570952D01*
X158519761Y-122618571D01*
X158567380Y-122713809D01*
X158567380Y-122951904D01*
X158519761Y-123047142D01*
X158472142Y-123094761D01*
X131126666Y-124571666D02*
X130793333Y-124805000D01*
X131126666Y-124971666D02*
X130426666Y-124971666D01*
X130426666Y-124705000D01*
X130460000Y-124638333D01*
X130493333Y-124605000D01*
X130560000Y-124571666D01*
X130660000Y-124571666D01*
X130726666Y-124605000D01*
X130760000Y-124638333D01*
X130793333Y-124705000D01*
X130793333Y-124971666D01*
X130760000Y-124271666D02*
X130760000Y-124038333D01*
X131126666Y-123938333D02*
X131126666Y-124271666D01*
X130426666Y-124271666D01*
X130426666Y-123938333D01*
X130926666Y-123671666D02*
X130926666Y-123338333D01*
X131126666Y-123738333D02*
X130426666Y-123505000D01*
X131126666Y-123271666D01*
X131126666Y-122638333D02*
X130793333Y-122871666D01*
X131126666Y-123038333D02*
X130426666Y-123038333D01*
X130426666Y-122771666D01*
X130460000Y-122705000D01*
X130493333Y-122671666D01*
X130560000Y-122638333D01*
X130660000Y-122638333D01*
X130726666Y-122671666D01*
X130760000Y-122705000D01*
X130793333Y-122771666D01*
X130793333Y-123038333D01*
X130926666Y-121838333D02*
X130926666Y-121505000D01*
X131126666Y-121905000D02*
X130426666Y-121671666D01*
X131126666Y-121438333D01*
X131060000Y-120805000D02*
X131093333Y-120838333D01*
X131126666Y-120938333D01*
X131126666Y-121005000D01*
X131093333Y-121105000D01*
X131026666Y-121171666D01*
X130960000Y-121205000D01*
X130826666Y-121238333D01*
X130726666Y-121238333D01*
X130593333Y-121205000D01*
X130526666Y-121171666D01*
X130460000Y-121105000D01*
X130426666Y-121005000D01*
X130426666Y-120938333D01*
X130460000Y-120838333D01*
X130493333Y-120805000D01*
X131060000Y-120105000D02*
X131093333Y-120138333D01*
X131126666Y-120238333D01*
X131126666Y-120305000D01*
X131093333Y-120405000D01*
X131026666Y-120471666D01*
X130960000Y-120505000D01*
X130826666Y-120538333D01*
X130726666Y-120538333D01*
X130593333Y-120505000D01*
X130526666Y-120471666D01*
X130460000Y-120405000D01*
X130426666Y-120305000D01*
X130426666Y-120238333D01*
X130460000Y-120138333D01*
X130493333Y-120105000D01*
X140636666Y-122483571D02*
X140303333Y-122483571D01*
X140303333Y-123007380D02*
X140303333Y-122007380D01*
X140779523Y-122007380D01*
X141589047Y-122340714D02*
X141589047Y-123007380D01*
X141350952Y-121959761D02*
X141112857Y-122674047D01*
X141731904Y-122674047D01*
X141042515Y-157172414D02*
X141399658Y-157791004D01*
X141429847Y-157938531D01*
X141394987Y-158068629D01*
X141295079Y-158181297D01*
X141212600Y-158228916D01*
X141996147Y-157776535D02*
X142161104Y-157681297D01*
X142219774Y-157592438D01*
X142237203Y-157527390D01*
X142248253Y-157356053D01*
X142194255Y-157167286D01*
X142003778Y-156837371D01*
X141914920Y-156778702D01*
X141849871Y-156761273D01*
X141743583Y-156767652D01*
X141578626Y-156862890D01*
X141519957Y-156951749D01*
X141502527Y-157016798D01*
X141508907Y-157123086D01*
X141627954Y-157329282D01*
X141716813Y-157387951D01*
X141781861Y-157405381D01*
X141888150Y-157399001D01*
X142053107Y-157303763D01*
X142111776Y-157214905D01*
X142129206Y-157149856D01*
X142122826Y-157043568D01*
X92423790Y-135970524D02*
X92188087Y-136206226D01*
X92558477Y-136576616D02*
X91851370Y-135869509D01*
X92188087Y-135532791D01*
X92760507Y-134960372D02*
X92625820Y-135095059D01*
X92592148Y-135196074D01*
X92592148Y-135263417D01*
X92625820Y-135431776D01*
X92726835Y-135600135D01*
X92996209Y-135869509D01*
X93097225Y-135903181D01*
X93164568Y-135903181D01*
X93265583Y-135869509D01*
X93400270Y-135734822D01*
X93433942Y-135633807D01*
X93433942Y-135566463D01*
X93400270Y-135465448D01*
X93231912Y-135297089D01*
X93130896Y-135263417D01*
X93063553Y-135263417D01*
X92962538Y-135297089D01*
X92827851Y-135431776D01*
X92794179Y-135532791D01*
X92794179Y-135600135D01*
X92827851Y-135701150D01*
X140349865Y-100335918D02*
X140707008Y-99717329D01*
X140819676Y-99617420D01*
X140949774Y-99582561D01*
X141097301Y-99612750D01*
X141179780Y-99660369D01*
X139983840Y-98969893D02*
X140478711Y-99255607D01*
X140231276Y-99112750D02*
X139731276Y-99978775D01*
X139885183Y-99902676D01*
X140015280Y-99867817D01*
X140121569Y-99874197D01*
X153047072Y-147803477D02*
X153552148Y-148308553D01*
X153619492Y-148443240D01*
X153619492Y-148577927D01*
X153552148Y-148712614D01*
X153484805Y-148779957D01*
X153922538Y-147399416D02*
X154393942Y-147870820D01*
X153484805Y-147298400D02*
X153821522Y-147971835D01*
X154259255Y-147534103D01*
X118578333Y-133137816D02*
X118245000Y-132661626D01*
X118006904Y-133137816D02*
X118006904Y-132137816D01*
X118387857Y-132137816D01*
X118483095Y-132185436D01*
X118530714Y-132233055D01*
X118578333Y-132328293D01*
X118578333Y-132471150D01*
X118530714Y-132566388D01*
X118483095Y-132614007D01*
X118387857Y-132661626D01*
X118006904Y-132661626D01*
X119530714Y-133137816D02*
X118959285Y-133137816D01*
X119245000Y-133137816D02*
X119245000Y-132137816D01*
X119149761Y-132280674D01*
X119054523Y-132375912D01*
X118959285Y-132423531D01*
X102999929Y-142462689D02*
X102833262Y-142751364D01*
X103286895Y-143013269D02*
X102420869Y-142513269D01*
X102658964Y-142100876D01*
X102801822Y-141853440D02*
X103135155Y-141276090D01*
X103786895Y-142147244D01*
D13*
X97569352Y-149532912D02*
X96410409Y-148863796D01*
X92871165Y-146820412D02*
X95281515Y-148212029D01*
X95492810Y-160019589D02*
X88677190Y-156084589D01*
X101418835Y-151755412D02*
X99318724Y-150542912D01*
X96858835Y-159653564D02*
X95492810Y-160019589D01*
X88311165Y-154718564D02*
X92871165Y-146820412D01*
X101418835Y-151755412D02*
X96858835Y-159653564D01*
X88677190Y-156084589D02*
X88311165Y-154718564D01*
X74045000Y-127490000D02*
X73045000Y-126490000D01*
X83165000Y-117620000D02*
X83165000Y-120403233D01*
X83165000Y-127490000D02*
X83165000Y-125065000D01*
X73045000Y-118620000D02*
X74045000Y-117620000D01*
X83165000Y-123045000D02*
X83165000Y-121706767D01*
X73045000Y-126490000D02*
X73045000Y-118620000D01*
X74045000Y-117620000D02*
X83165000Y-117620000D01*
X83165000Y-127490000D02*
X74045000Y-127490000D01*
X113800000Y-131312500D02*
X113800000Y-135197500D01*
X116070000Y-135197500D02*
X116070000Y-131312500D01*
X113800000Y-135197500D02*
X116070000Y-135197500D01*
X139135108Y-146249806D02*
X131035108Y-132220194D01*
X125024892Y-135690194D02*
X133124892Y-149719806D01*
X133012051Y-138584359D02*
X134612051Y-141355641D01*
X131705000Y-140320481D02*
X132455000Y-141619519D01*
X131035108Y-132220194D02*
X125024892Y-135690194D01*
X131147949Y-143355641D02*
X129547949Y-140584359D01*
X133124892Y-149719806D02*
X139135108Y-146249806D01*
D14*
X93075862Y-115212045D02*
X92669645Y-115908455D01*
X92669645Y-115908455D02*
X92269645Y-115215635D01*
X106363318Y-111474593D02*
X95061687Y-117999593D01*
X96043318Y-93599829D02*
X106363318Y-111474593D01*
X92269645Y-115215635D02*
X93075862Y-115212045D01*
X95061687Y-117999593D02*
X84741687Y-100124829D01*
X84741687Y-100124829D02*
X96043318Y-93599829D01*
D13*
X83024505Y-151775425D02*
X77459574Y-146210495D01*
X87744443Y-142183522D02*
X86798169Y-141237248D01*
X84438718Y-151775425D02*
X83024505Y-151775425D01*
X77459574Y-146210495D02*
X77459574Y-144796281D01*
X77459574Y-144796281D02*
X83908388Y-138347467D01*
X90887532Y-145326611D02*
X89172798Y-143611877D01*
X83908388Y-138347467D02*
X85876431Y-140315510D01*
X90887532Y-145326611D02*
X84438718Y-151775425D01*
D14*
X123365000Y-157825000D02*
X110315000Y-157825000D01*
X124391000Y-140992000D02*
X123691000Y-140592000D01*
X110315000Y-137185000D02*
X123365000Y-137185000D01*
X123365000Y-137185000D02*
X123365000Y-157825000D01*
X123691000Y-140592000D02*
X124391000Y-140192000D01*
X110315000Y-157825000D02*
X110315000Y-137185000D01*
X124391000Y-140192000D02*
X124391000Y-140992000D01*
D13*
X114668197Y-112335897D02*
X110475329Y-96687898D01*
X110475329Y-96687898D02*
X103771804Y-98484102D01*
X110737742Y-103346880D02*
X111565963Y-106437843D01*
X103771804Y-98484102D02*
X107964672Y-114132101D01*
X109414115Y-106134444D02*
X109025886Y-104685555D01*
X107964672Y-114132101D02*
X114668197Y-112335897D01*
X107702259Y-107473119D02*
X106874038Y-104382156D01*
X139982843Y-132709416D02*
X142245585Y-134972157D01*
X139169670Y-134724670D02*
X140230330Y-135785330D01*
X131518775Y-131981096D02*
X142973905Y-143436226D01*
X139417157Y-137800585D02*
X137154416Y-135537843D01*
X136426096Y-127073775D02*
X131518775Y-131981096D01*
X147881226Y-138528905D02*
X136426096Y-127073775D01*
X142973905Y-143436226D02*
X147881226Y-138528905D01*
X117106803Y-112335897D02*
X123810329Y-114132102D01*
X124900962Y-104382157D02*
X124072742Y-107473120D01*
X128003197Y-98484103D02*
X121299672Y-96687899D01*
X122360886Y-106134445D02*
X122749115Y-104685556D01*
X120209038Y-106437844D02*
X121037259Y-103346881D01*
X121299672Y-96687899D02*
X117106803Y-112335897D01*
X123810329Y-114132102D02*
X128003197Y-98484103D01*
X84610000Y-125390000D02*
X100810000Y-125390000D01*
X84610000Y-118450000D02*
X84610000Y-125390000D01*
X93460000Y-121920000D02*
X91960000Y-121920000D01*
X91110000Y-119920000D02*
X94310000Y-119920000D01*
X100810000Y-125390000D02*
X100810000Y-118450000D01*
X94310000Y-123920000D02*
X91110000Y-123920000D01*
X100810000Y-118450000D02*
X84610000Y-118450000D01*
X158365000Y-118255000D02*
X159365000Y-119255000D01*
X158365000Y-128125000D02*
X149245000Y-128125000D01*
X159365000Y-127125000D02*
X158365000Y-128125000D01*
X149245000Y-128125000D02*
X149245000Y-125341767D01*
X149245000Y-118255000D02*
X158365000Y-118255000D01*
X149245000Y-122700000D02*
X149245000Y-124038233D01*
X149245000Y-118255000D02*
X149245000Y-120680000D01*
X159365000Y-119255000D02*
X159365000Y-127125000D01*
G36*
X117784841Y-125757114D02*
G01*
X117823592Y-125771122D01*
X117827709Y-125780710D01*
X117823928Y-125807272D01*
X117813230Y-125872714D01*
X117796576Y-125971536D01*
X117774929Y-126098236D01*
X117749251Y-126247315D01*
X117720503Y-126413270D01*
X117689648Y-126590601D01*
X117657648Y-126773807D01*
X117625465Y-126957388D01*
X117594062Y-127135842D01*
X117564400Y-127303668D01*
X117537441Y-127455366D01*
X117514147Y-127585434D01*
X117495482Y-127688372D01*
X117482406Y-127758679D01*
X117476949Y-127786207D01*
X117463688Y-127847826D01*
X118695858Y-127859814D01*
X118658172Y-128096460D01*
X117916147Y-128096460D01*
X117738387Y-128095966D01*
X117575903Y-128094566D01*
X117433952Y-128092378D01*
X117317794Y-128089523D01*
X117232687Y-128086120D01*
X117183890Y-128082290D01*
X117174127Y-128079556D01*
X117177934Y-128054724D01*
X117188868Y-127989717D01*
X117206196Y-127888744D01*
X117229185Y-127756016D01*
X117257103Y-127595741D01*
X117289219Y-127412131D01*
X117324800Y-127209394D01*
X117363114Y-126991740D01*
X117376961Y-126913230D01*
X117416014Y-126691810D01*
X117452596Y-126484204D01*
X117485975Y-126294566D01*
X117515423Y-126127053D01*
X117540209Y-125985821D01*
X117559604Y-125875025D01*
X117572878Y-125798822D01*
X117579301Y-125761367D01*
X117579795Y-125758172D01*
X117600190Y-125755085D01*
X117652793Y-125753039D01*
X117703758Y-125752538D01*
X117784841Y-125757114D01*
G37*
G36*
X125107817Y-125736606D02*
G01*
X125303655Y-125790856D01*
X125483023Y-125880134D01*
X125596050Y-125964283D01*
X125644804Y-126015864D01*
X125696317Y-126084736D01*
X125744858Y-126160938D01*
X125784696Y-126234508D01*
X125810102Y-126295484D01*
X125815344Y-126333906D01*
X125812002Y-126339659D01*
X125784007Y-126351738D01*
X125729020Y-126369134D01*
X125663992Y-126387135D01*
X125605876Y-126401027D01*
X125572849Y-126406131D01*
X125556569Y-126388437D01*
X125526250Y-126343143D01*
X125504106Y-126306604D01*
X125400345Y-126172320D01*
X125267131Y-126069268D01*
X125108944Y-125999006D01*
X124930264Y-125963092D01*
X124735567Y-125963084D01*
X124585089Y-125986828D01*
X124381226Y-126054251D01*
X124198204Y-126158554D01*
X124039423Y-126295052D01*
X123908286Y-126459061D01*
X123808193Y-126645895D01*
X123742546Y-126850870D01*
X123714744Y-127069300D01*
X123716193Y-127183682D01*
X123746021Y-127373337D01*
X123810735Y-127534566D01*
X123909725Y-127666726D01*
X124042379Y-127769171D01*
X124208088Y-127841258D01*
X124374137Y-127878132D01*
X124569986Y-127885518D01*
X124772882Y-127855814D01*
X124971471Y-127792713D01*
X125154402Y-127699908D01*
X125310323Y-127581091D01*
X125322144Y-127569738D01*
X125384839Y-127505436D01*
X125422162Y-127455265D01*
X125442558Y-127403552D01*
X125454471Y-127334622D01*
X125456146Y-127321010D01*
X125466672Y-127244003D01*
X125477300Y-127183085D01*
X125483742Y-127157611D01*
X125480499Y-127145869D01*
X125456659Y-127137474D01*
X125406690Y-127131934D01*
X125325059Y-127128756D01*
X125206234Y-127127448D01*
X125143613Y-127127338D01*
X125023455Y-127126724D01*
X124920951Y-127125028D01*
X124843739Y-127122472D01*
X124799456Y-127119276D01*
X124791868Y-127117178D01*
X124796207Y-127091177D01*
X124807316Y-127035696D01*
X124816273Y-126993221D01*
X124840678Y-126879423D01*
X125300834Y-126879423D01*
X125464110Y-126880069D01*
X125586775Y-126882187D01*
X125673273Y-126886049D01*
X125728054Y-126891929D01*
X125755562Y-126900098D01*
X125760979Y-126907595D01*
X125757193Y-126936649D01*
X125746538Y-127003854D01*
X125730063Y-127102986D01*
X125708812Y-127227821D01*
X125683834Y-127372134D01*
X125659570Y-127510479D01*
X125632286Y-127665325D01*
X125607779Y-127804807D01*
X125587083Y-127923008D01*
X125571231Y-128014014D01*
X125561257Y-128071908D01*
X125558160Y-128090825D01*
X125537866Y-128094041D01*
X125485994Y-128096080D01*
X125445461Y-128096460D01*
X125381170Y-128093149D01*
X125340369Y-128084685D01*
X125332773Y-128078061D01*
X125336603Y-128047418D01*
X125346514Y-127987123D01*
X125356860Y-127929360D01*
X125368099Y-127857922D01*
X125372536Y-127806331D01*
X125370337Y-127788446D01*
X125347968Y-127794737D01*
X125300652Y-127821836D01*
X125250464Y-127855620D01*
X125032749Y-127985998D01*
X124804931Y-128075718D01*
X124571606Y-128123588D01*
X124337369Y-128128415D01*
X124241498Y-128117578D01*
X124081202Y-128076296D01*
X123919556Y-128005448D01*
X123775357Y-127914003D01*
X123722911Y-127870137D01*
X123604862Y-127731690D01*
X123519614Y-127567945D01*
X123467040Y-127384385D01*
X123447010Y-127186492D01*
X123459396Y-126979749D01*
X123504070Y-126769638D01*
X123580903Y-126561641D01*
X123689766Y-126361242D01*
X123760671Y-126259636D01*
X123910173Y-126094693D01*
X124083611Y-125958277D01*
X124275214Y-125851317D01*
X124479208Y-125774740D01*
X124689821Y-125729477D01*
X124901281Y-125716456D01*
X125107817Y-125736606D01*
G37*
G36*
X104426282Y-121072863D02*
G01*
X104541335Y-121079557D01*
X104699334Y-121090631D01*
X104900789Y-121106099D01*
X105146208Y-121125974D01*
X105360955Y-121143909D01*
X106972867Y-121286640D01*
X108615536Y-121445280D01*
X110277967Y-121618752D01*
X110874831Y-121684144D01*
X112065990Y-121819689D01*
X113221618Y-121958076D01*
X114341288Y-122099218D01*
X115424572Y-122243023D01*
X116471044Y-122389402D01*
X117480276Y-122538264D01*
X118451842Y-122689521D01*
X119385313Y-122843081D01*
X120280263Y-122998856D01*
X121136265Y-123156754D01*
X121952891Y-123316687D01*
X122729714Y-123478564D01*
X123466307Y-123642295D01*
X124162244Y-123807790D01*
X124817096Y-123974960D01*
X125430436Y-124143714D01*
X126001838Y-124313963D01*
X126530874Y-124485616D01*
X127017117Y-124658584D01*
X127460141Y-124832777D01*
X127859516Y-125008104D01*
X128214818Y-125184476D01*
X128525617Y-125361803D01*
X128616978Y-125419627D01*
X128855100Y-125594044D01*
X129049487Y-125779248D01*
X129200224Y-125975472D01*
X129307398Y-126182947D01*
X129371095Y-126401906D01*
X129391402Y-126632581D01*
X129368405Y-126875204D01*
X129302191Y-127130008D01*
X129278301Y-127197226D01*
X129188804Y-127390490D01*
X129062335Y-127595318D01*
X128903593Y-127806086D01*
X128717278Y-128017172D01*
X128508088Y-128222954D01*
X128280722Y-128417810D01*
X128215594Y-128468763D01*
X128120166Y-128540049D01*
X128019708Y-128611897D01*
X127918587Y-128681608D01*
X127821170Y-128746485D01*
X127731822Y-128803827D01*
X127654909Y-128850937D01*
X127594799Y-128885116D01*
X127555857Y-128903664D01*
X127542450Y-128903883D01*
X127558944Y-128883074D01*
X127588464Y-128856395D01*
X127630912Y-128821368D01*
X127698294Y-128767311D01*
X127779893Y-128702778D01*
X127834662Y-128659902D01*
X127981217Y-128537963D01*
X128139836Y-128392821D01*
X128299999Y-128235070D01*
X128451190Y-128075304D01*
X128582891Y-127924117D01*
X128652711Y-127835932D01*
X128783217Y-127646498D01*
X128899879Y-127446186D01*
X128995073Y-127249026D01*
X129050057Y-127104800D01*
X129103942Y-126872710D01*
X129113445Y-126644257D01*
X129079225Y-126421319D01*
X129001940Y-126205771D01*
X128882249Y-125999491D01*
X128720812Y-125804354D01*
X128533832Y-125634559D01*
X128340087Y-125491463D01*
X128126796Y-125357384D01*
X127891090Y-125231268D01*
X127630100Y-125112065D01*
X127340958Y-124998720D01*
X127020793Y-124890181D01*
X126666737Y-124785396D01*
X126275921Y-124683313D01*
X125845476Y-124582877D01*
X125422924Y-124493250D01*
X124803026Y-124373499D01*
X124215767Y-124273818D01*
X123653767Y-124193538D01*
X123109643Y-124131991D01*
X122576015Y-124088506D01*
X122045500Y-124062415D01*
X121510716Y-124053050D01*
X120964284Y-124059741D01*
X120723811Y-124067391D01*
X120472231Y-124075738D01*
X120207304Y-124082609D01*
X119934185Y-124088005D01*
X119658028Y-124091926D01*
X119383986Y-124094372D01*
X119117213Y-124095343D01*
X118862864Y-124094840D01*
X118626091Y-124092863D01*
X118412050Y-124089411D01*
X118225895Y-124084486D01*
X118072778Y-124078087D01*
X117957854Y-124070214D01*
X117929135Y-124067287D01*
X117777413Y-124049542D01*
X117643354Y-124032609D01*
X117521194Y-124015163D01*
X117405163Y-123995880D01*
X117289496Y-123973436D01*
X117168426Y-123946505D01*
X117036185Y-123913764D01*
X116887008Y-123873888D01*
X116715126Y-123825553D01*
X116514774Y-123767434D01*
X116280184Y-123698206D01*
X116137387Y-123655782D01*
X115560190Y-123484175D01*
X115024675Y-123325183D01*
X114529375Y-123178380D01*
X114072825Y-123043338D01*
X113653557Y-122919633D01*
X113270107Y-122806838D01*
X112921008Y-122704526D01*
X112604793Y-122612271D01*
X112319997Y-122529648D01*
X112065153Y-122456229D01*
X111838795Y-122391589D01*
X111639458Y-122335301D01*
X111465674Y-122286939D01*
X111315979Y-122246077D01*
X111188905Y-122212288D01*
X111082987Y-122185147D01*
X111055575Y-122178350D01*
X110801178Y-122119090D01*
X110503421Y-122055641D01*
X110163799Y-121988255D01*
X109783806Y-121917185D01*
X109364940Y-121842686D01*
X108908695Y-121765009D01*
X108416566Y-121684409D01*
X107890049Y-121601138D01*
X107330639Y-121515449D01*
X106739832Y-121427597D01*
X106119123Y-121337834D01*
X105950341Y-121313834D01*
X105729702Y-121282570D01*
X105507696Y-121251119D01*
X105291662Y-121220520D01*
X105088941Y-121191811D01*
X104906875Y-121166033D01*
X104752802Y-121144225D01*
X104634065Y-121127426D01*
X104609348Y-121123931D01*
X104477407Y-121104627D01*
X104385359Y-121089622D01*
X104333714Y-121078929D01*
X104322981Y-121072563D01*
X104353667Y-121070536D01*
X104426282Y-121072863D01*
G37*
G36*
X104740763Y-125729188D02*
G01*
X104923916Y-125771792D01*
X105070143Y-125838806D01*
X105181205Y-125931513D01*
X105258866Y-126051196D01*
X105287379Y-126126976D01*
X105309755Y-126207011D01*
X105314087Y-126255351D01*
X105296124Y-126283216D01*
X105251616Y-126301824D01*
X105217542Y-126311306D01*
X105131864Y-126331761D01*
X105080556Y-126336014D01*
X105055565Y-126323091D01*
X105048837Y-126292016D01*
X105048833Y-126290877D01*
X105028247Y-126204168D01*
X104971993Y-126117970D01*
X104888328Y-126042911D01*
X104829050Y-126007958D01*
X104699750Y-125964438D01*
X104553380Y-125947172D01*
X104402287Y-125954890D01*
X104258819Y-125986320D01*
X104135322Y-126040193D01*
X104072502Y-126085830D01*
X104008034Y-126167516D01*
X103964983Y-126269251D01*
X103945504Y-126378050D01*
X103951752Y-126480927D01*
X103985882Y-126564897D01*
X103991691Y-126572753D01*
X104040894Y-126622303D01*
X104108604Y-126665732D01*
X104201315Y-126705824D01*
X104325517Y-126745365D01*
X104487702Y-126787138D01*
X104496373Y-126789204D01*
X104681057Y-126837853D01*
X104826126Y-126887377D01*
X104937013Y-126940181D01*
X105019153Y-126998669D01*
X105056573Y-127037104D01*
X105122111Y-127148157D01*
X105153341Y-127277830D01*
X105152591Y-127418487D01*
X105122191Y-127562489D01*
X105064468Y-127702199D01*
X104981753Y-127829978D01*
X104876373Y-127938189D01*
X104758268Y-128015472D01*
X104597087Y-128076620D01*
X104409786Y-128115907D01*
X104210684Y-128131386D01*
X104014097Y-128121111D01*
X103997501Y-128118924D01*
X103812973Y-128077449D01*
X103663978Y-128008669D01*
X103549520Y-127911693D01*
X103468608Y-127785632D01*
X103420249Y-127629596D01*
X103414659Y-127596493D01*
X103398911Y-127490936D01*
X103497031Y-127465560D01*
X103566514Y-127447318D01*
X103622369Y-127432195D01*
X103634592Y-127428737D01*
X103661088Y-127428950D01*
X103672296Y-127457073D01*
X103674033Y-127498589D01*
X103695298Y-127613636D01*
X103754166Y-127718957D01*
X103843247Y-127802115D01*
X103860953Y-127813204D01*
X103985648Y-127864998D01*
X104135006Y-127894130D01*
X104294545Y-127900285D01*
X104449782Y-127883150D01*
X104586235Y-127842410D01*
X104613717Y-127829527D01*
X104721582Y-127755031D01*
X104806151Y-127658130D01*
X104863505Y-127547795D01*
X104889722Y-127432993D01*
X104880883Y-127322694D01*
X104859570Y-127267026D01*
X104821410Y-127207448D01*
X104770840Y-127158806D01*
X104701079Y-127117757D01*
X104605348Y-127080954D01*
X104476870Y-127045053D01*
X104350164Y-127015657D01*
X104140562Y-126961290D01*
X103973169Y-126898934D01*
X103845615Y-126827285D01*
X103755532Y-126745042D01*
X103704482Y-126660756D01*
X103680606Y-126562820D01*
X103675999Y-126441145D01*
X103690364Y-126312597D01*
X103712227Y-126225433D01*
X103781078Y-126082923D01*
X103886097Y-125959737D01*
X104021522Y-125858655D01*
X104181591Y-125782457D01*
X104360543Y-125733922D01*
X104552615Y-125715832D01*
X104740763Y-125729188D01*
G37*
G36*
X104648844Y-122643649D02*
G01*
X104723497Y-122647193D01*
X104768985Y-122652366D01*
X104778381Y-122656389D01*
X104774588Y-122681210D01*
X104763833Y-122745030D01*
X104747051Y-122842468D01*
X104725176Y-122968144D01*
X104699144Y-123116678D01*
X104669888Y-123282690D01*
X104652101Y-123383230D01*
X104612511Y-123610378D01*
X104581599Y-123798161D01*
X104559108Y-123951394D01*
X104544781Y-124074892D01*
X104538361Y-124173471D01*
X104539593Y-124251946D01*
X104548218Y-124315132D01*
X104563981Y-124367846D01*
X104586625Y-124414902D01*
X104596245Y-124431115D01*
X104671212Y-124511481D01*
X104776673Y-124567027D01*
X104904228Y-124595713D01*
X105045479Y-124595501D01*
X105171325Y-124570703D01*
X105308735Y-124507948D01*
X105424412Y-124408009D01*
X105513732Y-124275402D01*
X105543971Y-124206605D01*
X105560322Y-124151453D01*
X105582755Y-124058474D01*
X105609891Y-123934295D01*
X105640353Y-123785543D01*
X105672760Y-123618846D01*
X105705735Y-123440829D01*
X105720549Y-123357906D01*
X105846858Y-122642334D01*
X106067633Y-122642334D01*
X106161183Y-122643997D01*
X106235079Y-122648478D01*
X106279684Y-122655009D01*
X106288407Y-122659885D01*
X106284476Y-122691307D01*
X106273477Y-122760398D01*
X106256608Y-122860514D01*
X106235063Y-122985012D01*
X106210036Y-123127250D01*
X106182724Y-123280582D01*
X106154322Y-123438368D01*
X106126024Y-123593962D01*
X106099026Y-123740723D01*
X106074523Y-123872006D01*
X106053711Y-123981169D01*
X106037784Y-124061568D01*
X106028650Y-124103694D01*
X105955207Y-124323208D01*
X105849062Y-124519795D01*
X105713965Y-124689172D01*
X105553670Y-124827057D01*
X105371928Y-124929164D01*
X105273740Y-124965603D01*
X105148792Y-124994878D01*
X105004086Y-125013961D01*
X104857989Y-125021463D01*
X104728869Y-125015993D01*
X104686920Y-125010014D01*
X104511947Y-124959094D01*
X104360333Y-124876769D01*
X104237220Y-124767241D01*
X104147747Y-124634713D01*
X104110172Y-124538595D01*
X104090681Y-124455577D01*
X104079363Y-124364278D01*
X104076574Y-124259246D01*
X104082666Y-124135029D01*
X104097996Y-123986174D01*
X104122919Y-123807229D01*
X104157788Y-123592742D01*
X104180039Y-123464960D01*
X104209186Y-123300956D01*
X104237021Y-123145343D01*
X104262198Y-123005567D01*
X104283371Y-122889075D01*
X104299194Y-122803314D01*
X104307330Y-122760657D01*
X104330822Y-122642334D01*
X104554601Y-122642334D01*
X104648844Y-122643649D01*
G37*
G36*
X116244915Y-125758103D02*
G01*
X116259290Y-125771410D01*
X116257834Y-125797870D01*
X116257028Y-125802248D01*
X116251292Y-125834113D01*
X116238519Y-125905914D01*
X116219498Y-126013198D01*
X116195017Y-126151511D01*
X116165865Y-126316397D01*
X116132827Y-126503403D01*
X116096693Y-126708073D01*
X116058251Y-126925955D01*
X116050557Y-126969574D01*
X115853803Y-128085191D01*
X115725142Y-128091950D01*
X115655868Y-128093584D01*
X115609159Y-128090847D01*
X115596482Y-128086049D01*
X115600300Y-128060106D01*
X115611020Y-127996032D01*
X115627533Y-127900058D01*
X115648737Y-127778413D01*
X115673523Y-127637325D01*
X115700787Y-127483024D01*
X115729424Y-127321739D01*
X115758327Y-127159699D01*
X115786391Y-127003132D01*
X115812510Y-126858269D01*
X115835579Y-126731338D01*
X115854492Y-126628568D01*
X115866651Y-126563940D01*
X115885341Y-126463929D01*
X115900288Y-126379142D01*
X115909688Y-126320126D01*
X115912010Y-126299122D01*
X115901019Y-126271798D01*
X115871431Y-126279699D01*
X115828316Y-126319692D01*
X115783486Y-126378540D01*
X115750955Y-126424928D01*
X115695935Y-126501584D01*
X115622755Y-126602551D01*
X115535749Y-126721872D01*
X115439249Y-126853590D01*
X115337586Y-126991746D01*
X115337316Y-126992112D01*
X115227500Y-127140820D01*
X115140820Y-127257183D01*
X115073704Y-127345168D01*
X115022580Y-127408740D01*
X114983875Y-127451865D01*
X114954017Y-127478508D01*
X114929434Y-127492636D01*
X114906553Y-127498215D01*
X114881802Y-127499210D01*
X114797732Y-127499210D01*
X114655329Y-127138607D01*
X114598329Y-126992920D01*
X114537958Y-126836337D01*
X114480131Y-126684347D01*
X114430767Y-126552436D01*
X114414535Y-126508270D01*
X114376008Y-126406067D01*
X114341434Y-126320619D01*
X114314320Y-126260169D01*
X114298175Y-126232961D01*
X114297085Y-126232302D01*
X114289291Y-126252378D01*
X114274973Y-126312298D01*
X114255028Y-126407444D01*
X114230352Y-126533201D01*
X114201842Y-126684952D01*
X114170394Y-126858079D01*
X114136905Y-127047966D01*
X114122191Y-127133092D01*
X114088187Y-127330296D01*
X114056259Y-127514097D01*
X114027268Y-127679645D01*
X114002072Y-127822091D01*
X113981532Y-127936584D01*
X113966508Y-128018274D01*
X113957859Y-128062312D01*
X113956381Y-128068287D01*
X113932022Y-128082346D01*
X113880392Y-128092120D01*
X113816689Y-128096933D01*
X113756112Y-128096108D01*
X113713860Y-128088969D01*
X113703319Y-128079556D01*
X113707127Y-128054724D01*
X113718061Y-127989717D01*
X113735388Y-127888744D01*
X113758377Y-127756016D01*
X113786296Y-127595741D01*
X113818411Y-127412131D01*
X113853992Y-127209394D01*
X113892306Y-126991740D01*
X113906153Y-126913230D01*
X113945211Y-126691768D01*
X113981795Y-126484085D01*
X114015177Y-126294342D01*
X114044627Y-126126699D01*
X114069413Y-125985317D01*
X114088807Y-125874359D01*
X114102077Y-125797983D01*
X114108495Y-125760353D01*
X114108988Y-125757097D01*
X114129475Y-125754594D01*
X114182877Y-125754731D01*
X114248788Y-125757097D01*
X114388583Y-125763806D01*
X114651456Y-126451207D01*
X114729330Y-126652424D01*
X114796833Y-126821844D01*
X114853049Y-126957318D01*
X114897060Y-127056702D01*
X114927952Y-127117847D01*
X114944775Y-127138607D01*
X114964584Y-127121067D01*
X115007869Y-127071092D01*
X115071518Y-126992646D01*
X115152422Y-126889694D01*
X115247470Y-126766201D01*
X115353550Y-126626132D01*
X115467554Y-126473452D01*
X115484036Y-126451207D01*
X115992851Y-125763806D01*
X116129798Y-125757173D01*
X116204990Y-125754505D01*
X116244915Y-125758103D01*
G37*
G36*
X127979463Y-125859592D02*
G01*
X127968418Y-125926035D01*
X127958059Y-125972795D01*
X127954214Y-125983549D01*
X127930052Y-125987880D01*
X127866559Y-125991801D01*
X127769480Y-125995163D01*
X127644557Y-125997820D01*
X127497535Y-125999623D01*
X127334157Y-126000425D01*
X127297267Y-126000452D01*
X126650048Y-126000452D01*
X126588375Y-126355421D01*
X126567462Y-126476874D01*
X126549622Y-126582542D01*
X126536160Y-126664527D01*
X126528382Y-126714931D01*
X126526987Y-126726870D01*
X126548543Y-126731891D01*
X126608775Y-126736839D01*
X126701280Y-126741428D01*
X126819661Y-126745370D01*
X126957516Y-126748378D01*
X127028960Y-126749408D01*
X127530648Y-126755466D01*
X127493088Y-126991274D01*
X126983458Y-126997327D01*
X126473827Y-127003381D01*
X126399700Y-127420328D01*
X126376434Y-127551318D01*
X126356099Y-127666041D01*
X126339928Y-127757520D01*
X126329154Y-127818778D01*
X126325011Y-127842838D01*
X126325003Y-127842910D01*
X126346459Y-127844342D01*
X126407405Y-127845640D01*
X126502255Y-127846756D01*
X126625422Y-127847641D01*
X126771321Y-127848249D01*
X126934365Y-127848531D01*
X126980534Y-127848545D01*
X127636636Y-127848545D01*
X127621657Y-127933061D01*
X127615128Y-127976614D01*
X127609584Y-128011721D01*
X127600530Y-128039284D01*
X127583468Y-128060204D01*
X127553903Y-128075386D01*
X127507337Y-128085730D01*
X127439275Y-128092140D01*
X127345219Y-128095517D01*
X127220673Y-128096765D01*
X127061141Y-128096785D01*
X126862127Y-128096481D01*
X126807474Y-128096460D01*
X126625534Y-128095987D01*
X126458752Y-128094645D01*
X126312272Y-128092545D01*
X126191234Y-128089800D01*
X126100782Y-128086520D01*
X126046056Y-128082819D01*
X126031447Y-128079556D01*
X126035255Y-128054724D01*
X126046189Y-127989717D01*
X126063516Y-127888744D01*
X126086505Y-127756016D01*
X126114423Y-127595741D01*
X126146539Y-127412131D01*
X126182120Y-127209394D01*
X126220434Y-126991740D01*
X126234281Y-126913230D01*
X126273335Y-126691810D01*
X126309916Y-126484204D01*
X126343296Y-126294566D01*
X126372743Y-126127053D01*
X126397529Y-125985821D01*
X126416924Y-125875025D01*
X126430198Y-125798822D01*
X126436621Y-125761367D01*
X126437115Y-125758172D01*
X126458799Y-125756853D01*
X126520425Y-125755644D01*
X126616862Y-125754582D01*
X126742976Y-125753704D01*
X126893635Y-125753046D01*
X127063706Y-125752647D01*
X127216052Y-125752538D01*
X127994984Y-125752538D01*
X127979463Y-125859592D01*
G37*
G36*
X106420003Y-124327506D02*
G01*
X106452009Y-124144124D01*
X106485558Y-123952406D01*
X106519746Y-123757503D01*
X106553672Y-123564564D01*
X106553832Y-123563655D01*
X107014927Y-123563655D01*
X107031891Y-123596787D01*
X107071419Y-123611135D01*
X107137950Y-123613209D01*
X107235922Y-123609518D01*
X107274432Y-123608188D01*
X107397946Y-123603006D01*
X107486412Y-123595159D01*
X107549846Y-123583089D01*
X107598263Y-123565240D01*
X107618132Y-123554727D01*
X107693533Y-123491158D01*
X107751495Y-123404375D01*
X107784941Y-123308943D01*
X107786791Y-123219429D01*
X107784973Y-123211390D01*
X107761210Y-123145593D01*
X107723879Y-123097823D01*
X107666209Y-123065117D01*
X107581432Y-123044515D01*
X107462778Y-123033053D01*
X107368653Y-123029222D01*
X107264598Y-123027042D01*
X107179281Y-123026649D01*
X107121429Y-123027982D01*
X107099769Y-123030982D01*
X107099765Y-123031038D01*
X107095974Y-123055642D01*
X107085696Y-123115220D01*
X107070570Y-123200406D01*
X107055032Y-123286475D01*
X107030936Y-123415008D01*
X107016088Y-123505232D01*
X107014927Y-123563655D01*
X106553832Y-123563655D01*
X106586430Y-123378739D01*
X106617119Y-123205177D01*
X106644835Y-123049029D01*
X106668675Y-122915444D01*
X106687735Y-122809572D01*
X106701113Y-122736563D01*
X106707316Y-122704312D01*
X106720205Y-122642334D01*
X107219878Y-122642686D01*
X107424883Y-122644188D01*
X107590909Y-122648953D01*
X107723991Y-122657843D01*
X107830162Y-122671722D01*
X107915456Y-122691455D01*
X107985906Y-122717904D01*
X108047545Y-122751934D01*
X108065141Y-122763696D01*
X108166047Y-122859174D01*
X108231334Y-122977322D01*
X108259766Y-123111664D01*
X108250110Y-123255722D01*
X108201129Y-123403022D01*
X108190980Y-123423696D01*
X108105680Y-123549595D01*
X107985502Y-123658060D01*
X107897749Y-123715158D01*
X107874309Y-123732997D01*
X107880893Y-123749561D01*
X107922594Y-123773938D01*
X107933934Y-123779710D01*
X108057716Y-123858306D01*
X108141268Y-123951641D01*
X108188691Y-124066296D01*
X108204085Y-124208850D01*
X108204095Y-124213220D01*
X108183114Y-124387004D01*
X108122091Y-124544004D01*
X108023843Y-124681399D01*
X107891184Y-124796370D01*
X107726930Y-124886095D01*
X107533899Y-124947756D01*
X107455559Y-124962922D01*
X107389807Y-124970159D01*
X107294822Y-124976045D01*
X107177809Y-124980571D01*
X107045971Y-124983728D01*
X106906511Y-124985508D01*
X106766634Y-124985900D01*
X106633542Y-124984897D01*
X106514439Y-124982489D01*
X106416529Y-124978667D01*
X106347016Y-124973421D01*
X106313103Y-124966744D01*
X106310945Y-124964364D01*
X106314727Y-124939141D01*
X106325471Y-124874683D01*
X106342274Y-124776141D01*
X106364232Y-124648664D01*
X106378959Y-124563673D01*
X106830601Y-124563673D01*
X106833924Y-124579702D01*
X106849764Y-124590719D01*
X106885083Y-124597644D01*
X106946842Y-124601400D01*
X107042003Y-124602906D01*
X107128796Y-124603114D01*
X107254855Y-124602330D01*
X107345783Y-124599136D01*
X107411512Y-124592269D01*
X107461972Y-124580466D01*
X107507093Y-124562465D01*
X107527521Y-124552405D01*
X107630444Y-124482868D01*
X107697250Y-124393832D01*
X107732533Y-124291134D01*
X107737492Y-124179437D01*
X107702042Y-124081614D01*
X107629049Y-124004822D01*
X107613854Y-123994828D01*
X107578939Y-123976096D01*
X107540273Y-123963567D01*
X107488797Y-123956283D01*
X107415454Y-123953285D01*
X107311185Y-123953616D01*
X107236213Y-123954893D01*
X106933176Y-123960790D01*
X106882533Y-124242511D01*
X106863118Y-124352974D01*
X106846929Y-124449726D01*
X106835575Y-124522819D01*
X106830666Y-124562304D01*
X106830601Y-124563673D01*
X106378959Y-124563673D01*
X106390443Y-124497402D01*
X106420003Y-124327506D01*
G37*
G36*
X121581008Y-126907595D02*
G01*
X122275657Y-125752538D01*
X122555006Y-125752538D01*
X123141060Y-128096460D01*
X122861765Y-128096460D01*
X122788392Y-127780932D01*
X122715020Y-127465404D01*
X121511873Y-127465404D01*
X121139801Y-128096460D01*
X121003724Y-128096460D01*
X120934007Y-128093951D01*
X120888376Y-128087421D01*
X120877002Y-128079556D01*
X120890000Y-128057703D01*
X120924184Y-128000633D01*
X120977509Y-127911755D01*
X121047925Y-127794479D01*
X121133386Y-127652213D01*
X121231843Y-127488366D01*
X121341249Y-127306347D01*
X121394671Y-127217489D01*
X121660326Y-127217489D01*
X122155556Y-127217489D01*
X122299502Y-127216986D01*
X122426996Y-127215580D01*
X122531599Y-127213419D01*
X122606875Y-127210656D01*
X122646387Y-127207440D01*
X122650785Y-127205897D01*
X122645196Y-127168991D01*
X122629698Y-127098407D01*
X122606200Y-127001196D01*
X122576607Y-126884408D01*
X122542826Y-126755092D01*
X122506763Y-126620299D01*
X122470326Y-126487079D01*
X122435420Y-126362481D01*
X122403952Y-126253555D01*
X122377830Y-126167352D01*
X122358958Y-126110921D01*
X122349353Y-126091297D01*
X122330471Y-126110070D01*
X122293181Y-126161876D01*
X122241478Y-126240632D01*
X122179352Y-126340255D01*
X122110795Y-126454663D01*
X122109880Y-126456219D01*
X122031809Y-126588928D01*
X121951867Y-126724644D01*
X121876700Y-126852095D01*
X121812955Y-126960010D01*
X121778049Y-127018968D01*
X121660326Y-127217489D01*
X121394671Y-127217489D01*
X121459557Y-127109564D01*
X121581008Y-126907595D01*
G37*
G36*
X107608195Y-125754417D02*
G01*
X107652666Y-125759259D01*
X107663207Y-125763830D01*
X107659059Y-125800170D01*
X107647423Y-125874259D01*
X107629510Y-125979618D01*
X107606532Y-126109768D01*
X107579702Y-126258230D01*
X107550231Y-126418524D01*
X107519332Y-126584173D01*
X107488215Y-126748697D01*
X107458093Y-126905616D01*
X107430178Y-127048453D01*
X107405681Y-127170728D01*
X107385816Y-127265962D01*
X107371792Y-127327676D01*
X107368114Y-127341446D01*
X107285384Y-127554995D01*
X107173438Y-127737877D01*
X107034462Y-127887688D01*
X106870639Y-128002025D01*
X106703384Y-128072729D01*
X106563721Y-128105271D01*
X106406218Y-128124662D01*
X106250488Y-128129411D01*
X106116143Y-128118030D01*
X106113312Y-128117541D01*
X105976337Y-128084936D01*
X105866794Y-128036767D01*
X105767710Y-127965211D01*
X105751308Y-127950722D01*
X105666909Y-127860588D01*
X105608753Y-127761875D01*
X105572689Y-127644060D01*
X105554570Y-127496622D01*
X105552021Y-127445246D01*
X105550684Y-127378839D01*
X105552214Y-127311497D01*
X105557388Y-127237245D01*
X105566981Y-127150110D01*
X105581768Y-127044118D01*
X105602526Y-126913297D01*
X105630030Y-126751673D01*
X105665056Y-126553273D01*
X105675247Y-126496282D01*
X105806481Y-125763806D01*
X105934755Y-125757047D01*
X106017474Y-125756833D01*
X106058034Y-125767359D01*
X106063030Y-125776737D01*
X106059225Y-125804660D01*
X106048435Y-125871454D01*
X106031601Y-125971616D01*
X106009662Y-126099642D01*
X105983558Y-126250030D01*
X105954229Y-126417277D01*
X105936794Y-126515972D01*
X105894605Y-126759481D01*
X105861700Y-126963461D01*
X105837891Y-127132453D01*
X105822991Y-127270995D01*
X105816811Y-127383627D01*
X105819165Y-127474890D01*
X105829864Y-127549324D01*
X105848720Y-127611467D01*
X105875547Y-127665861D01*
X105888380Y-127686335D01*
X105973065Y-127775208D01*
X106089205Y-127839981D01*
X106228979Y-127878668D01*
X106384566Y-127889287D01*
X106548144Y-127869854D01*
X106581437Y-127862109D01*
X106752294Y-127797823D01*
X106894866Y-127698455D01*
X107009028Y-127564121D01*
X107094654Y-127394934D01*
X107097223Y-127388142D01*
X107112541Y-127335424D01*
X107133975Y-127244770D01*
X107160191Y-127122699D01*
X107189853Y-126975730D01*
X107221627Y-126810382D01*
X107254176Y-126633174D01*
X107269320Y-126547884D01*
X107300276Y-126372360D01*
X107329184Y-126209976D01*
X107355023Y-126066356D01*
X107376770Y-125947124D01*
X107393403Y-125857904D01*
X107403900Y-125804320D01*
X107406715Y-125791979D01*
X107423520Y-125768141D01*
X107462993Y-125756053D01*
X107535907Y-125752545D01*
X107540769Y-125752538D01*
X107608195Y-125754417D01*
G37*
G36*
X120992773Y-125859592D02*
G01*
X120981728Y-125926035D01*
X120971369Y-125972795D01*
X120967524Y-125983549D01*
X120943362Y-125987880D01*
X120879869Y-125991801D01*
X120782789Y-125995163D01*
X120657866Y-125997820D01*
X120510844Y-125999623D01*
X120347467Y-126000425D01*
X120310577Y-126000452D01*
X119663357Y-126000452D01*
X119601685Y-126355421D01*
X119580772Y-126476874D01*
X119562931Y-126582542D01*
X119549470Y-126664527D01*
X119541692Y-126714931D01*
X119540297Y-126726870D01*
X119561853Y-126731891D01*
X119622084Y-126736839D01*
X119714590Y-126741428D01*
X119832971Y-126745370D01*
X119970825Y-126748378D01*
X120042269Y-126749408D01*
X120543958Y-126755466D01*
X120506398Y-126991274D01*
X119996767Y-126997327D01*
X119487137Y-127003381D01*
X119413010Y-127420328D01*
X119389744Y-127551318D01*
X119369408Y-127666041D01*
X119353237Y-127757520D01*
X119342464Y-127818778D01*
X119338321Y-127842838D01*
X119338312Y-127842910D01*
X119359769Y-127844342D01*
X119420715Y-127845640D01*
X119515564Y-127846756D01*
X119638731Y-127847641D01*
X119784630Y-127848249D01*
X119947675Y-127848531D01*
X119993843Y-127848545D01*
X120649945Y-127848545D01*
X120634967Y-127933061D01*
X120628438Y-127976614D01*
X120622894Y-128011721D01*
X120613840Y-128039284D01*
X120596778Y-128060204D01*
X120567213Y-128075386D01*
X120520647Y-128085730D01*
X120452584Y-128092140D01*
X120358528Y-128095517D01*
X120233983Y-128096765D01*
X120074451Y-128096785D01*
X119875436Y-128096481D01*
X119820784Y-128096460D01*
X119638843Y-128095987D01*
X119472062Y-128094645D01*
X119325581Y-128092545D01*
X119204544Y-128089800D01*
X119114091Y-128086520D01*
X119059366Y-128082819D01*
X119044756Y-128079556D01*
X119048564Y-128054724D01*
X119059498Y-127989717D01*
X119076826Y-127888744D01*
X119099815Y-127756016D01*
X119127733Y-127595741D01*
X119159849Y-127412131D01*
X119195430Y-127209394D01*
X119233744Y-126991740D01*
X119247591Y-126913230D01*
X119286644Y-126691810D01*
X119323226Y-126484204D01*
X119356605Y-126294566D01*
X119386053Y-126127053D01*
X119410839Y-125985821D01*
X119430234Y-125875025D01*
X119443508Y-125798822D01*
X119449931Y-125761367D01*
X119450425Y-125758172D01*
X119472109Y-125756853D01*
X119533735Y-125755644D01*
X119630171Y-125754582D01*
X119756285Y-125753704D01*
X119906944Y-125753046D01*
X120077016Y-125752647D01*
X120229362Y-125752538D01*
X121008294Y-125752538D01*
X120992773Y-125859592D01*
G37*
G36*
X111939360Y-126691703D02*
G01*
X111975950Y-126483900D01*
X112009336Y-126293990D01*
X112038788Y-126126143D01*
X112063574Y-125984528D01*
X112082966Y-125873313D01*
X112096232Y-125796668D01*
X112102643Y-125758761D01*
X112103131Y-125755409D01*
X112124573Y-125753407D01*
X112184531Y-125752553D01*
X112276466Y-125752816D01*
X112393833Y-125754165D01*
X112530091Y-125756569D01*
X112582063Y-125757677D01*
X112745732Y-125761747D01*
X112871728Y-125766213D01*
X112967453Y-125771815D01*
X113040308Y-125779292D01*
X113097694Y-125789384D01*
X113147012Y-125802831D01*
X113190933Y-125818535D01*
X113338192Y-125891217D01*
X113445309Y-125981776D01*
X113514924Y-126093905D01*
X113549683Y-126231298D01*
X113554906Y-126327249D01*
X113544786Y-126484571D01*
X113512726Y-126616175D01*
X113454257Y-126737892D01*
X113426921Y-126780800D01*
X113309846Y-126916366D01*
X113165480Y-127019591D01*
X113038039Y-127074088D01*
X112971374Y-127098020D01*
X112926517Y-127119708D01*
X112914494Y-127131363D01*
X112922805Y-127156661D01*
X112946075Y-127217289D01*
X112981811Y-127307018D01*
X113027519Y-127419619D01*
X113080706Y-127548862D01*
X113106065Y-127609949D01*
X113161716Y-127744221D01*
X113211011Y-127864247D01*
X113251466Y-127963885D01*
X113280594Y-128036993D01*
X113295911Y-128077431D01*
X113297635Y-128083332D01*
X113277036Y-128089906D01*
X113222977Y-128094615D01*
X113147066Y-128096459D01*
X113145420Y-128096460D01*
X112993206Y-128096460D01*
X112812989Y-127634824D01*
X112632773Y-127173189D01*
X112371520Y-127172801D01*
X112110268Y-127172413D01*
X112037227Y-127594995D01*
X112013711Y-127729836D01*
X111992164Y-127851134D01*
X111973983Y-127951195D01*
X111960566Y-128022323D01*
X111953313Y-128056825D01*
X111953260Y-128057019D01*
X111937044Y-128080810D01*
X111898242Y-128092894D01*
X111826113Y-128096448D01*
X111819896Y-128096460D01*
X111752478Y-128093647D01*
X111708010Y-128086401D01*
X111697463Y-128079556D01*
X111701271Y-128054724D01*
X111712204Y-127989717D01*
X111729532Y-127888744D01*
X111752521Y-127756016D01*
X111780439Y-127595741D01*
X111812555Y-127412131D01*
X111848136Y-127209394D01*
X111886450Y-126991740D01*
X111898289Y-126924613D01*
X112153729Y-126924613D01*
X112161988Y-126935297D01*
X112186488Y-126942138D01*
X112233321Y-126945692D01*
X112308584Y-126946516D01*
X112418371Y-126945166D01*
X112523586Y-126943132D01*
X112666645Y-126939662D01*
X112772706Y-126935327D01*
X112849849Y-126929153D01*
X112906150Y-126920163D01*
X112949688Y-126907384D01*
X112988542Y-126889840D01*
X112995510Y-126886182D01*
X113119138Y-126795815D01*
X113212949Y-126675646D01*
X113262861Y-126560122D01*
X113290666Y-126441457D01*
X113293419Y-126345056D01*
X113270422Y-126255250D01*
X113246925Y-126203739D01*
X113208717Y-126139394D01*
X113164182Y-126090841D01*
X113106541Y-126055755D01*
X113029015Y-126031812D01*
X112924827Y-126016686D01*
X112787196Y-126008055D01*
X112666265Y-126004609D01*
X112316616Y-125997497D01*
X112241949Y-126432826D01*
X112218221Y-126569846D01*
X112196384Y-126693491D01*
X112177813Y-126796161D01*
X112163885Y-126870257D01*
X112155976Y-126908177D01*
X112155614Y-126909529D01*
X112153729Y-126924613D01*
X111898289Y-126924613D01*
X111900297Y-126913230D01*
X111939360Y-126691703D01*
G37*
G36*
X110088912Y-122618247D02*
G01*
X110092098Y-122618676D01*
X110266748Y-122657744D01*
X110432069Y-122723428D01*
X110576222Y-122809989D01*
X110680734Y-122903996D01*
X110742397Y-122982438D01*
X110796135Y-123065885D01*
X110836326Y-123143789D01*
X110857346Y-123205603D01*
X110857182Y-123234970D01*
X110832048Y-123252067D01*
X110772748Y-123275898D01*
X110688999Y-123302901D01*
X110619070Y-123322292D01*
X110517423Y-123348280D01*
X110451065Y-123363192D01*
X110411739Y-123367583D01*
X110391183Y-123362010D01*
X110381140Y-123347029D01*
X110378212Y-123338514D01*
X110335684Y-123262508D01*
X110260682Y-123184531D01*
X110164012Y-123115200D01*
X110133785Y-123098392D01*
X110069612Y-123068238D01*
X110009413Y-123050059D01*
X109937883Y-123040945D01*
X109839719Y-123037985D01*
X109815559Y-123037876D01*
X109707801Y-123039759D01*
X109628519Y-123047914D01*
X109561239Y-123065303D01*
X109489482Y-123094888D01*
X109483847Y-123097500D01*
X109312804Y-123200942D01*
X109171944Y-123336037D01*
X109063467Y-123499099D01*
X108989572Y-123686442D01*
X108952460Y-123894383D01*
X108948345Y-123994596D01*
X108967152Y-124168283D01*
X109021737Y-124316249D01*
X109109188Y-124435899D01*
X109226593Y-124524641D01*
X109371040Y-124579881D01*
X109539618Y-124599027D01*
X109622675Y-124595167D01*
X109790316Y-124560107D01*
X109956351Y-124490151D01*
X110105722Y-124392826D01*
X110195753Y-124308642D01*
X110297759Y-124195186D01*
X110484875Y-124245084D01*
X110571916Y-124269446D01*
X110641979Y-124291198D01*
X110683768Y-124306750D01*
X110689755Y-124310175D01*
X110685997Y-124334164D01*
X110659806Y-124383668D01*
X110616585Y-124448748D01*
X110608156Y-124460341D01*
X110452115Y-124635376D01*
X110266314Y-124781302D01*
X110057603Y-124895306D01*
X109832835Y-124974572D01*
X109598860Y-125016286D01*
X109362531Y-125017633D01*
X109276458Y-125007428D01*
X109089419Y-124958802D01*
X108916871Y-124875423D01*
X108766470Y-124762630D01*
X108645869Y-124625759D01*
X108587371Y-124526995D01*
X108516928Y-124348215D01*
X108481784Y-124166892D01*
X108480923Y-123973163D01*
X108509862Y-123773903D01*
X108579749Y-123535063D01*
X108685813Y-123316686D01*
X108823861Y-123121834D01*
X108989698Y-122953570D01*
X109179130Y-122814955D01*
X109387961Y-122709053D01*
X109611999Y-122638926D01*
X109847047Y-122607637D01*
X110088912Y-122618247D01*
G37*
G36*
X107995261Y-126691703D02*
G01*
X108031851Y-126483900D01*
X108065237Y-126293990D01*
X108094688Y-126126143D01*
X108119475Y-125984528D01*
X108138867Y-125873313D01*
X108152133Y-125796668D01*
X108158543Y-125758761D01*
X108159032Y-125755409D01*
X108180473Y-125753407D01*
X108240432Y-125752553D01*
X108332366Y-125752816D01*
X108449733Y-125754165D01*
X108585991Y-125756569D01*
X108637963Y-125757677D01*
X108834229Y-125763684D01*
X108992043Y-125772967D01*
X109117993Y-125786960D01*
X109218666Y-125807097D01*
X109300647Y-125834812D01*
X109370525Y-125871538D01*
X109434885Y-125918711D01*
X109454470Y-125935437D01*
X109535633Y-126035180D01*
X109585960Y-126159067D01*
X109606679Y-126299563D01*
X109599019Y-126449133D01*
X109564209Y-126600240D01*
X109503478Y-126745350D01*
X109418054Y-126876926D01*
X109309167Y-126987434D01*
X109279192Y-127010334D01*
X109189964Y-127069234D01*
X109102482Y-127113627D01*
X109007922Y-127145651D01*
X108897457Y-127167447D01*
X108762262Y-127181153D01*
X108593511Y-127188909D01*
X108536544Y-127190362D01*
X108411800Y-127193734D01*
X108304442Y-127197783D01*
X108221842Y-127202136D01*
X108171372Y-127206422D01*
X108159037Y-127209389D01*
X108155299Y-127234773D01*
X108145092Y-127295948D01*
X108129926Y-127384339D01*
X108111313Y-127491373D01*
X108090763Y-127608478D01*
X108069786Y-127727079D01*
X108049894Y-127838603D01*
X108032597Y-127934477D01*
X108019406Y-128006128D01*
X108011831Y-128044982D01*
X108011662Y-128045750D01*
X108000030Y-128075175D01*
X107974014Y-128090395D01*
X107921628Y-128095920D01*
X107876886Y-128096460D01*
X107809128Y-128093671D01*
X107764262Y-128086479D01*
X107753363Y-128079556D01*
X107757171Y-128054724D01*
X107768105Y-127989717D01*
X107785433Y-127888744D01*
X107808422Y-127756016D01*
X107836340Y-127595741D01*
X107868456Y-127412131D01*
X107904037Y-127209394D01*
X107942350Y-126991740D01*
X107946260Y-126969574D01*
X108199226Y-126969574D01*
X108513107Y-126969574D01*
X108683445Y-126966757D01*
X108814746Y-126957998D01*
X108912713Y-126942832D01*
X108945109Y-126934496D01*
X109075179Y-126875238D01*
X109184570Y-126785370D01*
X109269201Y-126672875D01*
X109324989Y-126545732D01*
X109347854Y-126411922D01*
X109333714Y-126279427D01*
X109311954Y-126217211D01*
X109276367Y-126150146D01*
X109232383Y-126104545D01*
X109164127Y-126065021D01*
X109146079Y-126056451D01*
X109095220Y-126034397D01*
X109047086Y-126019061D01*
X108991972Y-126009232D01*
X108920170Y-126003698D01*
X108821974Y-126001247D01*
X108699370Y-126000673D01*
X108372001Y-126000452D01*
X108297264Y-126434303D01*
X108273422Y-126571863D01*
X108251496Y-126696798D01*
X108232879Y-126801287D01*
X108218966Y-126877512D01*
X108211150Y-126917650D01*
X108210877Y-126918864D01*
X108199226Y-126969574D01*
X107946260Y-126969574D01*
X107956198Y-126913230D01*
X107995261Y-126691703D01*
G37*
G36*
X111639623Y-125859592D02*
G01*
X111628578Y-125926035D01*
X111618219Y-125972795D01*
X111614374Y-125983549D01*
X111590212Y-125987880D01*
X111526719Y-125991801D01*
X111429639Y-125995163D01*
X111304716Y-125997820D01*
X111157694Y-125999623D01*
X110994317Y-126000425D01*
X110957427Y-126000452D01*
X110310207Y-126000452D01*
X110248535Y-126355421D01*
X110227622Y-126476874D01*
X110209781Y-126582542D01*
X110196320Y-126664527D01*
X110188542Y-126714931D01*
X110187147Y-126726870D01*
X110208703Y-126731891D01*
X110268934Y-126736839D01*
X110361440Y-126741428D01*
X110479821Y-126745370D01*
X110617676Y-126748378D01*
X110689119Y-126749408D01*
X111190808Y-126755466D01*
X111153248Y-126991274D01*
X110643618Y-126997327D01*
X110133987Y-127003381D01*
X110059860Y-127420328D01*
X110036594Y-127551318D01*
X110016258Y-127666041D01*
X110000087Y-127757520D01*
X109989314Y-127818778D01*
X109985171Y-127842838D01*
X109985162Y-127842910D01*
X110006619Y-127844342D01*
X110067565Y-127845640D01*
X110162414Y-127846756D01*
X110285581Y-127847641D01*
X110431480Y-127848249D01*
X110594525Y-127848531D01*
X110640694Y-127848545D01*
X111296795Y-127848545D01*
X111281817Y-127933061D01*
X111275288Y-127976614D01*
X111269744Y-128011721D01*
X111260690Y-128039284D01*
X111243628Y-128060204D01*
X111214063Y-128075386D01*
X111167497Y-128085730D01*
X111099434Y-128092140D01*
X111005378Y-128095517D01*
X110880833Y-128096765D01*
X110721301Y-128096785D01*
X110522286Y-128096481D01*
X110467634Y-128096460D01*
X110285693Y-128095987D01*
X110118912Y-128094645D01*
X109972431Y-128092545D01*
X109851394Y-128089800D01*
X109760941Y-128086520D01*
X109706216Y-128082819D01*
X109691607Y-128079556D01*
X109695414Y-128054724D01*
X109706348Y-127989717D01*
X109723676Y-127888744D01*
X109746665Y-127756016D01*
X109774583Y-127595741D01*
X109806699Y-127412131D01*
X109842280Y-127209394D01*
X109880594Y-126991740D01*
X109894441Y-126913230D01*
X109933494Y-126691810D01*
X109970076Y-126484204D01*
X110003455Y-126294566D01*
X110032903Y-126127053D01*
X110057689Y-125985821D01*
X110077084Y-125875025D01*
X110090358Y-125798822D01*
X110096781Y-125761367D01*
X110097275Y-125758172D01*
X110118959Y-125756853D01*
X110180585Y-125755644D01*
X110277021Y-125754582D01*
X110403135Y-125753704D01*
X110553794Y-125753046D01*
X110723866Y-125752647D01*
X110876212Y-125752538D01*
X111655144Y-125752538D01*
X111639623Y-125859592D01*
G37*
G36*
X116996034Y-125757117D02*
G01*
X117034791Y-125771131D01*
X117038905Y-125780710D01*
X117035134Y-125807059D01*
X117024419Y-125872627D01*
X117007661Y-125972243D01*
X116985763Y-126100739D01*
X116959625Y-126252945D01*
X116930149Y-126423692D01*
X116898237Y-126607811D01*
X116864791Y-126800132D01*
X116830712Y-126995486D01*
X116796902Y-127188704D01*
X116764262Y-127374617D01*
X116733695Y-127548055D01*
X116706101Y-127703849D01*
X116682383Y-127836830D01*
X116663441Y-127941829D01*
X116650178Y-128013675D01*
X116643835Y-128045750D01*
X116632046Y-128075182D01*
X116605894Y-128090403D01*
X116553368Y-128095924D01*
X116508830Y-128096460D01*
X116441071Y-128093671D01*
X116396205Y-128086479D01*
X116385307Y-128079556D01*
X116389115Y-128054724D01*
X116400048Y-127989717D01*
X116417376Y-127888744D01*
X116440365Y-127756016D01*
X116468283Y-127595741D01*
X116500399Y-127412131D01*
X116535980Y-127209394D01*
X116574294Y-126991740D01*
X116588141Y-126913230D01*
X116627194Y-126691810D01*
X116663776Y-126484204D01*
X116697155Y-126294566D01*
X116726603Y-126127053D01*
X116751389Y-125985821D01*
X116770784Y-125875025D01*
X116784058Y-125798822D01*
X116790481Y-125761367D01*
X116790975Y-125758172D01*
X116811371Y-125755085D01*
X116863973Y-125753039D01*
X116914938Y-125752538D01*
X116996034Y-125757117D01*
G37*
X147680000Y-126025000D02*
X147680000Y-119085000D01*
X131480000Y-119085000D02*
X131480000Y-126025000D01*
X141180000Y-124555000D02*
X137980000Y-124555000D01*
X137980000Y-120555000D02*
X141180000Y-120555000D01*
X131480000Y-126025000D02*
X147680000Y-126025000D01*
X138830000Y-122555000D02*
X140330000Y-122555000D01*
X147680000Y-119085000D02*
X131480000Y-119085000D01*
X145637810Y-156719589D02*
X138822190Y-160654589D01*
X132896165Y-152390412D02*
X135306515Y-150998796D01*
X138822190Y-160654589D02*
X137456165Y-160288564D01*
X141443835Y-147455412D02*
X139343724Y-148667912D01*
X141443835Y-147455412D02*
X146003835Y-155353564D01*
X146003835Y-155353564D02*
X145637810Y-156719589D01*
X137594352Y-149677912D02*
X136435409Y-150347029D01*
X137456165Y-160288564D02*
X132896165Y-152390412D01*
X90706096Y-143436226D02*
X102161226Y-131981096D01*
X96525585Y-135537843D02*
X94262844Y-137800585D01*
X94510331Y-134724670D02*
X93449671Y-135785330D01*
X85798775Y-138528905D02*
X90706096Y-143436226D01*
X91434416Y-134972157D02*
X93697158Y-132709416D01*
X102161226Y-131981096D02*
X97253905Y-127073775D01*
X97253905Y-127073775D02*
X85798775Y-138528905D01*
D14*
X127545359Y-107726045D02*
X126739142Y-107722455D01*
X136444184Y-92964829D02*
X147745815Y-99489829D01*
X126124184Y-110839593D02*
X136444184Y-92964829D01*
X127139142Y-107029635D02*
X127545359Y-107726045D01*
X147745815Y-99489829D02*
X137425815Y-117364593D01*
X126739142Y-107722455D02*
X127139142Y-107029635D01*
X137425815Y-117364593D02*
X126124184Y-110839593D01*
D13*
X151290495Y-151775426D02*
X149876281Y-151775426D01*
X147263522Y-141490557D02*
X146317248Y-142436831D01*
X156855425Y-146210495D02*
X151290495Y-151775426D01*
X150406611Y-138347468D02*
X156855425Y-144796282D01*
X143427467Y-145326612D02*
X145395510Y-143358569D01*
X156855425Y-144796282D02*
X156855425Y-146210495D01*
X150406611Y-138347468D02*
X148691877Y-140062202D01*
X149876281Y-151775426D02*
X143427467Y-145326612D01*
X119480000Y-133139564D02*
X119480000Y-132685436D01*
X118010000Y-133139564D02*
X118010000Y-132685436D01*
X108392865Y-135624708D02*
X102382649Y-132154708D01*
X103869808Y-140518873D02*
X102269808Y-143290155D01*
X101712757Y-140254995D02*
X100962757Y-141554033D01*
X102382649Y-132154708D02*
X94282649Y-146184320D01*
X98805706Y-141290155D02*
X100405706Y-138518873D01*
X100292865Y-149654320D02*
X108392865Y-135624708D01*
X94282649Y-146184320D02*
X100292865Y-149654320D01*
%LPC*%
D15*
X96151272Y-105438481D02*
G75*
G03*
X96151272Y-105438481I-813100J0D01*
G01*
D16*
X102069445Y-110335466D02*
G75*
G03*
X102069445Y-110335466I-613100J0D01*
G01*
G36*
X98195020Y-113634286D02*
G01*
X96071180Y-114860486D01*
X94844980Y-112736646D01*
X96968820Y-111510446D01*
X98195020Y-113634286D01*
G37*
D17*
X98195020Y-113634286D02*
X96071180Y-114860486D01*
X94844980Y-112736646D01*
X96968820Y-111510446D01*
X98195020Y-113634286D01*
D16*
X114608100Y-140625000D02*
G75*
G03*
X114608100Y-140625000I-613100J0D01*
G01*
D15*
X117658100Y-147925000D02*
G75*
G03*
X117658100Y-147925000I-813100J0D01*
G01*
G36*
X120921200Y-141851200D02*
G01*
X118468800Y-141851200D01*
X118468800Y-139398800D01*
X120921200Y-139398800D01*
X120921200Y-141851200D01*
G37*
D17*
X120921200Y-141851200D02*
X118468800Y-141851200D01*
X118468800Y-139398800D01*
X120921200Y-139398800D01*
X120921200Y-141851200D01*
D16*
X136571942Y-112545466D02*
G75*
G03*
X136571942Y-112545466I-613100J0D01*
G01*
D15*
X137953769Y-104798481D02*
G75*
G03*
X137953769Y-104798481I-813100J0D01*
G01*
G36*
X132697517Y-109246646D02*
G01*
X131471317Y-111370486D01*
X129347477Y-110144286D01*
X130573677Y-108020446D01*
X132697517Y-109246646D01*
G37*
D17*
X132697517Y-109246646D02*
X131471317Y-111370486D01*
X129347477Y-110144286D01*
X130573677Y-108020446D01*
X132697517Y-109246646D01*
D18*
X94440000Y-153973110D03*
D19*
X97899038Y-150981880D03*
D20*
X95300962Y-149481880D03*
D18*
X77755000Y-122555000D03*
D21*
X82075000Y-124055000D03*
D22*
X82075000Y-121055000D03*
D23*
X105410000Y-117475000D03*
D24*
X114935000Y-134312500D03*
X114935000Y-131512500D03*
D25*
X131072243Y-135824514D03*
X128127757Y-137524514D03*
X133087757Y-146115486D03*
X136032243Y-144415486D03*
D23*
X126365000Y-117475000D03*
D26*
X95338172Y-105438481D03*
D18*
X83572513Y-145662487D03*
D27*
X87687874Y-143668446D03*
D28*
X85566554Y-141547126D03*
D26*
X116845000Y-147925000D03*
D25*
X112145817Y-109760999D03*
X108861669Y-110640984D03*
X106294184Y-101059000D03*
X109578332Y-100179015D03*
X134990669Y-132949832D03*
X137394832Y-130545669D03*
X144409331Y-137560168D03*
X142005168Y-139964331D03*
X122913332Y-110640985D03*
X119629184Y-109761000D03*
X125480817Y-101059001D03*
X122196669Y-100179016D03*
X97670000Y-120220000D03*
X97670000Y-123620000D03*
X87750000Y-123620000D03*
X87750000Y-120220000D03*
D18*
X154655000Y-123190000D03*
D29*
X150335000Y-121690000D03*
D22*
X150335000Y-124690000D03*
D25*
X134620000Y-124255000D03*
X134620000Y-120855000D03*
X144540000Y-124255000D03*
X144540000Y-120855000D03*
D18*
X139875000Y-154608110D03*
D30*
X139014038Y-150116880D03*
D31*
X136415962Y-151616880D03*
D25*
X96285169Y-130545669D03*
X98689332Y-132949832D03*
X89270670Y-137560168D03*
X91674833Y-139964331D03*
D26*
X137140669Y-104798481D03*
D18*
X150742487Y-145662487D03*
D32*
X148748446Y-141547126D03*
D33*
X146627126Y-143668446D03*
D34*
X118745000Y-133825000D03*
X118745000Y-132000000D03*
D25*
X105290000Y-137459028D03*
X102345514Y-135759028D03*
X100330000Y-146050000D03*
X97385514Y-144350000D03*
M02*
