%TF.GenerationSoftware,KiCad,Pcbnew,(6.0.8-1)-1*%
%TF.CreationDate,2023-03-06T15:36:22-08:00*%
%TF.ProjectId,urban battery - power_distribution,75726261-6e20-4626-9174-74657279202d,rev?*%
%TF.SameCoordinates,Original*%
%TF.FileFunction,Drillmap*%
%TF.FilePolarity,Positive*%
%FSLAX45Y45*%
G04 Gerber Fmt 4.5, Leading zero omitted, Abs format (unit mm)*
G04 Created by KiCad (PCBNEW (6.0.8-1)-1) date 2023-03-06 15:36:22*
%MOMM*%
%LPD*%
G01*
G04 APERTURE LIST*
%ADD10C,0.100000*%
%ADD11C,0.200000*%
%ADD12C,0.300000*%
%ADD13C,0.310000*%
%ADD14C,0.320000*%
G04 APERTURE END LIST*
D10*
X13716000Y-9144000D02*
X12763500Y-9715500D01*
X8318500Y-9906000D02*
X9327561Y-11620500D01*
X10985500Y-13716000D02*
X10985500Y-15875000D01*
X9271000Y-11721149D02*
G75*
G03*
X9327561Y-11620500I6580J62519D01*
G01*
X14922500Y-9842500D02*
X13716000Y-9144000D01*
X15938500Y-14605000D02*
X13843000Y-12833292D01*
X16002000Y-11747500D02*
X13906500Y-11795010D01*
X7175500Y-12827000D02*
X9525000Y-12700000D01*
X12001500Y-9525000D02*
X11747500Y-10477500D01*
X13843000Y-16256000D02*
X15938500Y-14605000D01*
X11176000Y-9525000D02*
X10414000Y-9715500D01*
X12509500Y-13779500D02*
X13843000Y-16256000D01*
X7493000Y-14605000D02*
X9652000Y-16256000D01*
X12509500Y-13779500D02*
G75*
G03*
X12382500Y-13779500I-63500J-6115D01*
G01*
X13843000Y-11684000D02*
X14922500Y-9842500D01*
X9271000Y-11721146D02*
X7175500Y-11684000D01*
X13842993Y-11683995D02*
G75*
G03*
X13906500Y-11795010I55007J-42205D01*
G01*
X16002000Y-12890500D02*
X16002000Y-11747500D01*
X7175500Y-11684000D02*
X7175500Y-12827000D01*
X12382500Y-15875000D02*
X12382500Y-13779500D01*
X10414000Y-9715500D02*
X9461500Y-9271000D01*
X11747500Y-10477500D02*
X11430000Y-10477500D01*
X13906500Y-12754838D02*
X16002000Y-12890500D01*
X9544620Y-12731750D02*
G75*
G03*
X9525000Y-12700000I-35500J0D01*
G01*
X9544620Y-12731750D02*
X7493000Y-14605000D01*
X9461500Y-9271000D02*
X8318500Y-9906000D01*
X10985500Y-13716000D02*
G75*
G03*
X10858500Y-13716000I-63500J-35728D01*
G01*
X13906500Y-12754842D02*
G75*
G03*
X13843000Y-12833292I5280J-69198D01*
G01*
X9652000Y-16256000D02*
X10858500Y-13716000D01*
X10985500Y-15875000D02*
X12382500Y-15875000D01*
X11430000Y-10477500D02*
X11176000Y-9525000D01*
X12763500Y-9715500D02*
X12001500Y-9525000D01*
D11*
D12*
X7625500Y-12105500D02*
X7925500Y-12405500D01*
X7925500Y-12105500D02*
X7625500Y-12405500D01*
X8207251Y-14416249D02*
X8507251Y-14716249D01*
X8507251Y-14416249D02*
X8207251Y-14716249D01*
X9294000Y-15247311D02*
X9594000Y-15547311D01*
X9594000Y-15247311D02*
X9294000Y-15547311D01*
X13837500Y-15310811D02*
X14137500Y-15610811D01*
X14137500Y-15310811D02*
X13837500Y-15610811D01*
X14924249Y-14416249D02*
X15224249Y-14716249D01*
X15224249Y-14416249D02*
X14924249Y-14716249D01*
X15315500Y-12169000D02*
X15615500Y-12469000D01*
X15615500Y-12169000D02*
X15315500Y-12469000D01*
D13*
X9688817Y-10543848D02*
G75*
G03*
X9688817Y-10543848I-155000J0D01*
G01*
X11839500Y-14792500D02*
G75*
G03*
X11839500Y-14792500I-155000J0D01*
G01*
X13869067Y-10479848D02*
G75*
G03*
X13869067Y-10479848I-155000J0D01*
G01*
D14*
X10541000Y-11587500D02*
X10541000Y-11907500D01*
X10381000Y-11747500D02*
X10701000Y-11747500D01*
X12636500Y-11587500D02*
X12636500Y-11907500D01*
X12476500Y-11747500D02*
X12796500Y-11747500D01*
D11*
X7428119Y-16571476D02*
X7428119Y-16371476D01*
X7475738Y-16371476D01*
X7504309Y-16381000D01*
X7523357Y-16400048D01*
X7532881Y-16419095D01*
X7542405Y-16457190D01*
X7542405Y-16485762D01*
X7532881Y-16523857D01*
X7523357Y-16542905D01*
X7504309Y-16561952D01*
X7475738Y-16571476D01*
X7428119Y-16571476D01*
X7628119Y-16571476D02*
X7628119Y-16438143D01*
X7628119Y-16476238D02*
X7637643Y-16457190D01*
X7647167Y-16447667D01*
X7666214Y-16438143D01*
X7685262Y-16438143D01*
X7751928Y-16571476D02*
X7751928Y-16438143D01*
X7751928Y-16371476D02*
X7742405Y-16381000D01*
X7751928Y-16390524D01*
X7761452Y-16381000D01*
X7751928Y-16371476D01*
X7751928Y-16390524D01*
X7875738Y-16571476D02*
X7856690Y-16561952D01*
X7847167Y-16542905D01*
X7847167Y-16371476D01*
X7980500Y-16571476D02*
X7961452Y-16561952D01*
X7951928Y-16542905D01*
X7951928Y-16371476D01*
X8209071Y-16571476D02*
X8209071Y-16371476D01*
X8275738Y-16514333D01*
X8342405Y-16371476D01*
X8342405Y-16571476D01*
X8523357Y-16571476D02*
X8523357Y-16466714D01*
X8513833Y-16447667D01*
X8494786Y-16438143D01*
X8456690Y-16438143D01*
X8437643Y-16447667D01*
X8523357Y-16561952D02*
X8504310Y-16571476D01*
X8456690Y-16571476D01*
X8437643Y-16561952D01*
X8428119Y-16542905D01*
X8428119Y-16523857D01*
X8437643Y-16504809D01*
X8456690Y-16495286D01*
X8504310Y-16495286D01*
X8523357Y-16485762D01*
X8618595Y-16438143D02*
X8618595Y-16638143D01*
X8618595Y-16447667D02*
X8637643Y-16438143D01*
X8675738Y-16438143D01*
X8694786Y-16447667D01*
X8704310Y-16457190D01*
X8713833Y-16476238D01*
X8713833Y-16533381D01*
X8704310Y-16552428D01*
X8694786Y-16561952D01*
X8675738Y-16571476D01*
X8637643Y-16571476D01*
X8618595Y-16561952D01*
X8799548Y-16552428D02*
X8809071Y-16561952D01*
X8799548Y-16571476D01*
X8790024Y-16561952D01*
X8799548Y-16552428D01*
X8799548Y-16571476D01*
X8799548Y-16447667D02*
X8809071Y-16457190D01*
X8799548Y-16466714D01*
X8790024Y-16457190D01*
X8799548Y-16447667D01*
X8799548Y-16466714D01*
X6970500Y-16801000D02*
X7170500Y-17001000D01*
X7170500Y-16801000D02*
X6970500Y-17001000D01*
X7409071Y-16791476D02*
X7532881Y-16791476D01*
X7466214Y-16867667D01*
X7494786Y-16867667D01*
X7513833Y-16877190D01*
X7523357Y-16886714D01*
X7532881Y-16905762D01*
X7532881Y-16953381D01*
X7523357Y-16972429D01*
X7513833Y-16981952D01*
X7494786Y-16991476D01*
X7437643Y-16991476D01*
X7418595Y-16981952D01*
X7409071Y-16972429D01*
X7618595Y-16972429D02*
X7628119Y-16981952D01*
X7618595Y-16991476D01*
X7609071Y-16981952D01*
X7618595Y-16972429D01*
X7618595Y-16991476D01*
X7751928Y-16791476D02*
X7770976Y-16791476D01*
X7790024Y-16801000D01*
X7799548Y-16810524D01*
X7809071Y-16829571D01*
X7818595Y-16867667D01*
X7818595Y-16915286D01*
X7809071Y-16953381D01*
X7799548Y-16972429D01*
X7790024Y-16981952D01*
X7770976Y-16991476D01*
X7751928Y-16991476D01*
X7732881Y-16981952D01*
X7723357Y-16972429D01*
X7713833Y-16953381D01*
X7704309Y-16915286D01*
X7704309Y-16867667D01*
X7713833Y-16829571D01*
X7723357Y-16810524D01*
X7732881Y-16801000D01*
X7751928Y-16791476D01*
X7942405Y-16791476D02*
X7961452Y-16791476D01*
X7980500Y-16801000D01*
X7990024Y-16810524D01*
X7999548Y-16829571D01*
X8009071Y-16867667D01*
X8009071Y-16915286D01*
X7999548Y-16953381D01*
X7990024Y-16972429D01*
X7980500Y-16981952D01*
X7961452Y-16991476D01*
X7942405Y-16991476D01*
X7923357Y-16981952D01*
X7913833Y-16972429D01*
X7904309Y-16953381D01*
X7894786Y-16915286D01*
X7894786Y-16867667D01*
X7904309Y-16829571D01*
X7913833Y-16810524D01*
X7923357Y-16801000D01*
X7942405Y-16791476D01*
X8132881Y-16791476D02*
X8151928Y-16791476D01*
X8170976Y-16801000D01*
X8180500Y-16810524D01*
X8190024Y-16829571D01*
X8199548Y-16867667D01*
X8199548Y-16915286D01*
X8190024Y-16953381D01*
X8180500Y-16972429D01*
X8170976Y-16981952D01*
X8151928Y-16991476D01*
X8132881Y-16991476D01*
X8113833Y-16981952D01*
X8104309Y-16972429D01*
X8094786Y-16953381D01*
X8085262Y-16915286D01*
X8085262Y-16867667D01*
X8094786Y-16829571D01*
X8104309Y-16810524D01*
X8113833Y-16801000D01*
X8132881Y-16791476D01*
X8285262Y-16991476D02*
X8285262Y-16858143D01*
X8285262Y-16877190D02*
X8294786Y-16867667D01*
X8313833Y-16858143D01*
X8342405Y-16858143D01*
X8361452Y-16867667D01*
X8370976Y-16886714D01*
X8370976Y-16991476D01*
X8370976Y-16886714D02*
X8380500Y-16867667D01*
X8399548Y-16858143D01*
X8428119Y-16858143D01*
X8447167Y-16867667D01*
X8456690Y-16886714D01*
X8456690Y-16991476D01*
X8551929Y-16991476D02*
X8551929Y-16858143D01*
X8551929Y-16877190D02*
X8561452Y-16867667D01*
X8580500Y-16858143D01*
X8609071Y-16858143D01*
X8628119Y-16867667D01*
X8637643Y-16886714D01*
X8637643Y-16991476D01*
X8637643Y-16886714D02*
X8647167Y-16867667D01*
X8666214Y-16858143D01*
X8694786Y-16858143D01*
X8713833Y-16867667D01*
X8723357Y-16886714D01*
X8723357Y-16991476D01*
X9113833Y-16781952D02*
X8942405Y-17039095D01*
X9370976Y-16791476D02*
X9390024Y-16791476D01*
X9409071Y-16801000D01*
X9418595Y-16810524D01*
X9428119Y-16829571D01*
X9437643Y-16867667D01*
X9437643Y-16915286D01*
X9428119Y-16953381D01*
X9418595Y-16972429D01*
X9409071Y-16981952D01*
X9390024Y-16991476D01*
X9370976Y-16991476D01*
X9351929Y-16981952D01*
X9342405Y-16972429D01*
X9332881Y-16953381D01*
X9323357Y-16915286D01*
X9323357Y-16867667D01*
X9332881Y-16829571D01*
X9342405Y-16810524D01*
X9351929Y-16801000D01*
X9370976Y-16791476D01*
X9523357Y-16972429D02*
X9532881Y-16981952D01*
X9523357Y-16991476D01*
X9513833Y-16981952D01*
X9523357Y-16972429D01*
X9523357Y-16991476D01*
X9723357Y-16991476D02*
X9609071Y-16991476D01*
X9666214Y-16991476D02*
X9666214Y-16791476D01*
X9647167Y-16820048D01*
X9628119Y-16839095D01*
X9609071Y-16848619D01*
X9913833Y-16991476D02*
X9799548Y-16991476D01*
X9856690Y-16991476D02*
X9856690Y-16791476D01*
X9837643Y-16820048D01*
X9818595Y-16839095D01*
X9799548Y-16848619D01*
X10028119Y-16877190D02*
X10009071Y-16867667D01*
X9999548Y-16858143D01*
X9990024Y-16839095D01*
X9990024Y-16829571D01*
X9999548Y-16810524D01*
X10009071Y-16801000D01*
X10028119Y-16791476D01*
X10066214Y-16791476D01*
X10085262Y-16801000D01*
X10094786Y-16810524D01*
X10104310Y-16829571D01*
X10104310Y-16839095D01*
X10094786Y-16858143D01*
X10085262Y-16867667D01*
X10066214Y-16877190D01*
X10028119Y-16877190D01*
X10009071Y-16886714D01*
X9999548Y-16896238D01*
X9990024Y-16915286D01*
X9990024Y-16953381D01*
X9999548Y-16972429D01*
X10009071Y-16981952D01*
X10028119Y-16991476D01*
X10066214Y-16991476D01*
X10085262Y-16981952D01*
X10094786Y-16972429D01*
X10104310Y-16953381D01*
X10104310Y-16915286D01*
X10094786Y-16896238D01*
X10085262Y-16886714D01*
X10066214Y-16877190D01*
X10294786Y-16991476D02*
X10180500Y-16991476D01*
X10237643Y-16991476D02*
X10237643Y-16791476D01*
X10218595Y-16820048D01*
X10199548Y-16839095D01*
X10180500Y-16848619D01*
X10370976Y-16791476D02*
X10370976Y-16829571D01*
X10447167Y-16791476D02*
X10447167Y-16829571D01*
X10742405Y-17067667D02*
X10732881Y-17058143D01*
X10713833Y-17029571D01*
X10704310Y-17010524D01*
X10694786Y-16981952D01*
X10685262Y-16934333D01*
X10685262Y-16896238D01*
X10694786Y-16848619D01*
X10704310Y-16820048D01*
X10713833Y-16801000D01*
X10732881Y-16772428D01*
X10742405Y-16762905D01*
X10904310Y-16791476D02*
X10866214Y-16791476D01*
X10847167Y-16801000D01*
X10837643Y-16810524D01*
X10818595Y-16839095D01*
X10809071Y-16877190D01*
X10809071Y-16953381D01*
X10818595Y-16972429D01*
X10828119Y-16981952D01*
X10847167Y-16991476D01*
X10885262Y-16991476D01*
X10904310Y-16981952D01*
X10913833Y-16972429D01*
X10923357Y-16953381D01*
X10923357Y-16905762D01*
X10913833Y-16886714D01*
X10904310Y-16877190D01*
X10885262Y-16867667D01*
X10847167Y-16867667D01*
X10828119Y-16877190D01*
X10818595Y-16886714D01*
X10809071Y-16905762D01*
X11161452Y-16991476D02*
X11161452Y-16791476D01*
X11247167Y-16991476D02*
X11247167Y-16886714D01*
X11237643Y-16867667D01*
X11218595Y-16858143D01*
X11190024Y-16858143D01*
X11170976Y-16867667D01*
X11161452Y-16877190D01*
X11370976Y-16991476D02*
X11351928Y-16981952D01*
X11342405Y-16972429D01*
X11332881Y-16953381D01*
X11332881Y-16896238D01*
X11342405Y-16877190D01*
X11351928Y-16867667D01*
X11370976Y-16858143D01*
X11399548Y-16858143D01*
X11418595Y-16867667D01*
X11428119Y-16877190D01*
X11437643Y-16896238D01*
X11437643Y-16953381D01*
X11428119Y-16972429D01*
X11418595Y-16981952D01*
X11399548Y-16991476D01*
X11370976Y-16991476D01*
X11551928Y-16991476D02*
X11532881Y-16981952D01*
X11523357Y-16962905D01*
X11523357Y-16791476D01*
X11704309Y-16981952D02*
X11685262Y-16991476D01*
X11647167Y-16991476D01*
X11628119Y-16981952D01*
X11618595Y-16962905D01*
X11618595Y-16886714D01*
X11628119Y-16867667D01*
X11647167Y-16858143D01*
X11685262Y-16858143D01*
X11704309Y-16867667D01*
X11713833Y-16886714D01*
X11713833Y-16905762D01*
X11618595Y-16924810D01*
X11790024Y-16981952D02*
X11809071Y-16991476D01*
X11847167Y-16991476D01*
X11866214Y-16981952D01*
X11875738Y-16962905D01*
X11875738Y-16953381D01*
X11866214Y-16934333D01*
X11847167Y-16924810D01*
X11818595Y-16924810D01*
X11799548Y-16915286D01*
X11790024Y-16896238D01*
X11790024Y-16886714D01*
X11799548Y-16867667D01*
X11818595Y-16858143D01*
X11847167Y-16858143D01*
X11866214Y-16867667D01*
X11942405Y-17067667D02*
X11951928Y-17058143D01*
X11970976Y-17029571D01*
X11980500Y-17010524D01*
X11990024Y-16981952D01*
X11999548Y-16934333D01*
X11999548Y-16896238D01*
X11990024Y-16848619D01*
X11980500Y-16820048D01*
X11970976Y-16801000D01*
X11951928Y-16772428D01*
X11942405Y-16762905D01*
X12304309Y-17067667D02*
X12294786Y-17058143D01*
X12275738Y-17029571D01*
X12266214Y-17010524D01*
X12256690Y-16981952D01*
X12247167Y-16934333D01*
X12247167Y-16896238D01*
X12256690Y-16848619D01*
X12266214Y-16820048D01*
X12275738Y-16801000D01*
X12294786Y-16772428D01*
X12304309Y-16762905D01*
X12380500Y-16858143D02*
X12380500Y-16991476D01*
X12380500Y-16877190D02*
X12390024Y-16867667D01*
X12409071Y-16858143D01*
X12437643Y-16858143D01*
X12456690Y-16867667D01*
X12466214Y-16886714D01*
X12466214Y-16991476D01*
X12590024Y-16991476D02*
X12570976Y-16981952D01*
X12561452Y-16972429D01*
X12551928Y-16953381D01*
X12551928Y-16896238D01*
X12561452Y-16877190D01*
X12570976Y-16867667D01*
X12590024Y-16858143D01*
X12618595Y-16858143D01*
X12637643Y-16867667D01*
X12647167Y-16877190D01*
X12656690Y-16896238D01*
X12656690Y-16953381D01*
X12647167Y-16972429D01*
X12637643Y-16981952D01*
X12618595Y-16991476D01*
X12590024Y-16991476D01*
X12713833Y-16858143D02*
X12790024Y-16858143D01*
X12742405Y-16791476D02*
X12742405Y-16962905D01*
X12751928Y-16981952D01*
X12770976Y-16991476D01*
X12790024Y-16991476D01*
X13009071Y-16858143D02*
X13009071Y-17058143D01*
X13009071Y-16867667D02*
X13028119Y-16858143D01*
X13066214Y-16858143D01*
X13085262Y-16867667D01*
X13094786Y-16877190D01*
X13104309Y-16896238D01*
X13104309Y-16953381D01*
X13094786Y-16972429D01*
X13085262Y-16981952D01*
X13066214Y-16991476D01*
X13028119Y-16991476D01*
X13009071Y-16981952D01*
X13218595Y-16991476D02*
X13199548Y-16981952D01*
X13190024Y-16962905D01*
X13190024Y-16791476D01*
X13380500Y-16991476D02*
X13380500Y-16886714D01*
X13370976Y-16867667D01*
X13351928Y-16858143D01*
X13313833Y-16858143D01*
X13294786Y-16867667D01*
X13380500Y-16981952D02*
X13361452Y-16991476D01*
X13313833Y-16991476D01*
X13294786Y-16981952D01*
X13285262Y-16962905D01*
X13285262Y-16943857D01*
X13294786Y-16924810D01*
X13313833Y-16915286D01*
X13361452Y-16915286D01*
X13380500Y-16905762D01*
X13447167Y-16858143D02*
X13523357Y-16858143D01*
X13475738Y-16791476D02*
X13475738Y-16962905D01*
X13485262Y-16981952D01*
X13504309Y-16991476D01*
X13523357Y-16991476D01*
X13666214Y-16981952D02*
X13647167Y-16991476D01*
X13609071Y-16991476D01*
X13590024Y-16981952D01*
X13580500Y-16962905D01*
X13580500Y-16886714D01*
X13590024Y-16867667D01*
X13609071Y-16858143D01*
X13647167Y-16858143D01*
X13666214Y-16867667D01*
X13675738Y-16886714D01*
X13675738Y-16905762D01*
X13580500Y-16924810D01*
X13847167Y-16991476D02*
X13847167Y-16791476D01*
X13847167Y-16981952D02*
X13828119Y-16991476D01*
X13790024Y-16991476D01*
X13770976Y-16981952D01*
X13761452Y-16972429D01*
X13751928Y-16953381D01*
X13751928Y-16896238D01*
X13761452Y-16877190D01*
X13770976Y-16867667D01*
X13790024Y-16858143D01*
X13828119Y-16858143D01*
X13847167Y-16867667D01*
X13923357Y-17067667D02*
X13932881Y-17058143D01*
X13951928Y-17029571D01*
X13961452Y-17010524D01*
X13970976Y-16981952D01*
X13980500Y-16934333D01*
X13980500Y-16896238D01*
X13970976Y-16848619D01*
X13961452Y-16820048D01*
X13951928Y-16801000D01*
X13932881Y-16772428D01*
X13923357Y-16762905D01*
X7170500Y-17221000D02*
G75*
G03*
X7170500Y-17221000I-100000J0D01*
G01*
X7409071Y-17111476D02*
X7532881Y-17111476D01*
X7466214Y-17187667D01*
X7494786Y-17187667D01*
X7513833Y-17197190D01*
X7523357Y-17206714D01*
X7532881Y-17225762D01*
X7532881Y-17273381D01*
X7523357Y-17292429D01*
X7513833Y-17301952D01*
X7494786Y-17311476D01*
X7437643Y-17311476D01*
X7418595Y-17301952D01*
X7409071Y-17292429D01*
X7618595Y-17292429D02*
X7628119Y-17301952D01*
X7618595Y-17311476D01*
X7609071Y-17301952D01*
X7618595Y-17292429D01*
X7618595Y-17311476D01*
X7818595Y-17311476D02*
X7704309Y-17311476D01*
X7761452Y-17311476D02*
X7761452Y-17111476D01*
X7742405Y-17140048D01*
X7723357Y-17159095D01*
X7704309Y-17168619D01*
X7942405Y-17111476D02*
X7961452Y-17111476D01*
X7980500Y-17121000D01*
X7990024Y-17130524D01*
X7999548Y-17149571D01*
X8009071Y-17187667D01*
X8009071Y-17235286D01*
X7999548Y-17273381D01*
X7990024Y-17292429D01*
X7980500Y-17301952D01*
X7961452Y-17311476D01*
X7942405Y-17311476D01*
X7923357Y-17301952D01*
X7913833Y-17292429D01*
X7904309Y-17273381D01*
X7894786Y-17235286D01*
X7894786Y-17187667D01*
X7904309Y-17149571D01*
X7913833Y-17130524D01*
X7923357Y-17121000D01*
X7942405Y-17111476D01*
X8132881Y-17111476D02*
X8151928Y-17111476D01*
X8170976Y-17121000D01*
X8180500Y-17130524D01*
X8190024Y-17149571D01*
X8199548Y-17187667D01*
X8199548Y-17235286D01*
X8190024Y-17273381D01*
X8180500Y-17292429D01*
X8170976Y-17301952D01*
X8151928Y-17311476D01*
X8132881Y-17311476D01*
X8113833Y-17301952D01*
X8104309Y-17292429D01*
X8094786Y-17273381D01*
X8085262Y-17235286D01*
X8085262Y-17187667D01*
X8094786Y-17149571D01*
X8104309Y-17130524D01*
X8113833Y-17121000D01*
X8132881Y-17111476D01*
X8285262Y-17311476D02*
X8285262Y-17178143D01*
X8285262Y-17197190D02*
X8294786Y-17187667D01*
X8313833Y-17178143D01*
X8342405Y-17178143D01*
X8361452Y-17187667D01*
X8370976Y-17206714D01*
X8370976Y-17311476D01*
X8370976Y-17206714D02*
X8380500Y-17187667D01*
X8399548Y-17178143D01*
X8428119Y-17178143D01*
X8447167Y-17187667D01*
X8456690Y-17206714D01*
X8456690Y-17311476D01*
X8551929Y-17311476D02*
X8551929Y-17178143D01*
X8551929Y-17197190D02*
X8561452Y-17187667D01*
X8580500Y-17178143D01*
X8609071Y-17178143D01*
X8628119Y-17187667D01*
X8637643Y-17206714D01*
X8637643Y-17311476D01*
X8637643Y-17206714D02*
X8647167Y-17187667D01*
X8666214Y-17178143D01*
X8694786Y-17178143D01*
X8713833Y-17187667D01*
X8723357Y-17206714D01*
X8723357Y-17311476D01*
X9113833Y-17101952D02*
X8942405Y-17359095D01*
X9370976Y-17111476D02*
X9390024Y-17111476D01*
X9409071Y-17121000D01*
X9418595Y-17130524D01*
X9428119Y-17149571D01*
X9437643Y-17187667D01*
X9437643Y-17235286D01*
X9428119Y-17273381D01*
X9418595Y-17292429D01*
X9409071Y-17301952D01*
X9390024Y-17311476D01*
X9370976Y-17311476D01*
X9351929Y-17301952D01*
X9342405Y-17292429D01*
X9332881Y-17273381D01*
X9323357Y-17235286D01*
X9323357Y-17187667D01*
X9332881Y-17149571D01*
X9342405Y-17130524D01*
X9351929Y-17121000D01*
X9370976Y-17111476D01*
X9523357Y-17292429D02*
X9532881Y-17301952D01*
X9523357Y-17311476D01*
X9513833Y-17301952D01*
X9523357Y-17292429D01*
X9523357Y-17311476D01*
X9723357Y-17311476D02*
X9609071Y-17311476D01*
X9666214Y-17311476D02*
X9666214Y-17111476D01*
X9647167Y-17140048D01*
X9628119Y-17159095D01*
X9609071Y-17168619D01*
X9799548Y-17130524D02*
X9809071Y-17121000D01*
X9828119Y-17111476D01*
X9875738Y-17111476D01*
X9894786Y-17121000D01*
X9904310Y-17130524D01*
X9913833Y-17149571D01*
X9913833Y-17168619D01*
X9904310Y-17197190D01*
X9790024Y-17311476D01*
X9913833Y-17311476D01*
X9990024Y-17130524D02*
X9999548Y-17121000D01*
X10018595Y-17111476D01*
X10066214Y-17111476D01*
X10085262Y-17121000D01*
X10094786Y-17130524D01*
X10104310Y-17149571D01*
X10104310Y-17168619D01*
X10094786Y-17197190D01*
X9980500Y-17311476D01*
X10104310Y-17311476D01*
X10228119Y-17111476D02*
X10247167Y-17111476D01*
X10266214Y-17121000D01*
X10275738Y-17130524D01*
X10285262Y-17149571D01*
X10294786Y-17187667D01*
X10294786Y-17235286D01*
X10285262Y-17273381D01*
X10275738Y-17292429D01*
X10266214Y-17301952D01*
X10247167Y-17311476D01*
X10228119Y-17311476D01*
X10209071Y-17301952D01*
X10199548Y-17292429D01*
X10190024Y-17273381D01*
X10180500Y-17235286D01*
X10180500Y-17187667D01*
X10190024Y-17149571D01*
X10199548Y-17130524D01*
X10209071Y-17121000D01*
X10228119Y-17111476D01*
X10370976Y-17111476D02*
X10370976Y-17149571D01*
X10447167Y-17111476D02*
X10447167Y-17149571D01*
X10742405Y-17387667D02*
X10732881Y-17378143D01*
X10713833Y-17349571D01*
X10704310Y-17330524D01*
X10694786Y-17301952D01*
X10685262Y-17254333D01*
X10685262Y-17216238D01*
X10694786Y-17168619D01*
X10704310Y-17140048D01*
X10713833Y-17121000D01*
X10732881Y-17092429D01*
X10742405Y-17082905D01*
X10799548Y-17111476D02*
X10923357Y-17111476D01*
X10856690Y-17187667D01*
X10885262Y-17187667D01*
X10904310Y-17197190D01*
X10913833Y-17206714D01*
X10923357Y-17225762D01*
X10923357Y-17273381D01*
X10913833Y-17292429D01*
X10904310Y-17301952D01*
X10885262Y-17311476D01*
X10828119Y-17311476D01*
X10809071Y-17301952D01*
X10799548Y-17292429D01*
X11161452Y-17311476D02*
X11161452Y-17111476D01*
X11247167Y-17311476D02*
X11247167Y-17206714D01*
X11237643Y-17187667D01*
X11218595Y-17178143D01*
X11190024Y-17178143D01*
X11170976Y-17187667D01*
X11161452Y-17197190D01*
X11370976Y-17311476D02*
X11351928Y-17301952D01*
X11342405Y-17292429D01*
X11332881Y-17273381D01*
X11332881Y-17216238D01*
X11342405Y-17197190D01*
X11351928Y-17187667D01*
X11370976Y-17178143D01*
X11399548Y-17178143D01*
X11418595Y-17187667D01*
X11428119Y-17197190D01*
X11437643Y-17216238D01*
X11437643Y-17273381D01*
X11428119Y-17292429D01*
X11418595Y-17301952D01*
X11399548Y-17311476D01*
X11370976Y-17311476D01*
X11551928Y-17311476D02*
X11532881Y-17301952D01*
X11523357Y-17282905D01*
X11523357Y-17111476D01*
X11704309Y-17301952D02*
X11685262Y-17311476D01*
X11647167Y-17311476D01*
X11628119Y-17301952D01*
X11618595Y-17282905D01*
X11618595Y-17206714D01*
X11628119Y-17187667D01*
X11647167Y-17178143D01*
X11685262Y-17178143D01*
X11704309Y-17187667D01*
X11713833Y-17206714D01*
X11713833Y-17225762D01*
X11618595Y-17244810D01*
X11790024Y-17301952D02*
X11809071Y-17311476D01*
X11847167Y-17311476D01*
X11866214Y-17301952D01*
X11875738Y-17282905D01*
X11875738Y-17273381D01*
X11866214Y-17254333D01*
X11847167Y-17244810D01*
X11818595Y-17244810D01*
X11799548Y-17235286D01*
X11790024Y-17216238D01*
X11790024Y-17206714D01*
X11799548Y-17187667D01*
X11818595Y-17178143D01*
X11847167Y-17178143D01*
X11866214Y-17187667D01*
X11942405Y-17387667D02*
X11951928Y-17378143D01*
X11970976Y-17349571D01*
X11980500Y-17330524D01*
X11990024Y-17301952D01*
X11999548Y-17254333D01*
X11999548Y-17216238D01*
X11990024Y-17168619D01*
X11980500Y-17140048D01*
X11970976Y-17121000D01*
X11951928Y-17092429D01*
X11942405Y-17082905D01*
X12304309Y-17387667D02*
X12294786Y-17378143D01*
X12275738Y-17349571D01*
X12266214Y-17330524D01*
X12256690Y-17301952D01*
X12247167Y-17254333D01*
X12247167Y-17216238D01*
X12256690Y-17168619D01*
X12266214Y-17140048D01*
X12275738Y-17121000D01*
X12294786Y-17092429D01*
X12304309Y-17082905D01*
X12380500Y-17178143D02*
X12380500Y-17311476D01*
X12380500Y-17197190D02*
X12390024Y-17187667D01*
X12409071Y-17178143D01*
X12437643Y-17178143D01*
X12456690Y-17187667D01*
X12466214Y-17206714D01*
X12466214Y-17311476D01*
X12590024Y-17311476D02*
X12570976Y-17301952D01*
X12561452Y-17292429D01*
X12551928Y-17273381D01*
X12551928Y-17216238D01*
X12561452Y-17197190D01*
X12570976Y-17187667D01*
X12590024Y-17178143D01*
X12618595Y-17178143D01*
X12637643Y-17187667D01*
X12647167Y-17197190D01*
X12656690Y-17216238D01*
X12656690Y-17273381D01*
X12647167Y-17292429D01*
X12637643Y-17301952D01*
X12618595Y-17311476D01*
X12590024Y-17311476D01*
X12713833Y-17178143D02*
X12790024Y-17178143D01*
X12742405Y-17111476D02*
X12742405Y-17282905D01*
X12751928Y-17301952D01*
X12770976Y-17311476D01*
X12790024Y-17311476D01*
X13009071Y-17178143D02*
X13009071Y-17378143D01*
X13009071Y-17187667D02*
X13028119Y-17178143D01*
X13066214Y-17178143D01*
X13085262Y-17187667D01*
X13094786Y-17197190D01*
X13104309Y-17216238D01*
X13104309Y-17273381D01*
X13094786Y-17292429D01*
X13085262Y-17301952D01*
X13066214Y-17311476D01*
X13028119Y-17311476D01*
X13009071Y-17301952D01*
X13218595Y-17311476D02*
X13199548Y-17301952D01*
X13190024Y-17282905D01*
X13190024Y-17111476D01*
X13380500Y-17311476D02*
X13380500Y-17206714D01*
X13370976Y-17187667D01*
X13351928Y-17178143D01*
X13313833Y-17178143D01*
X13294786Y-17187667D01*
X13380500Y-17301952D02*
X13361452Y-17311476D01*
X13313833Y-17311476D01*
X13294786Y-17301952D01*
X13285262Y-17282905D01*
X13285262Y-17263857D01*
X13294786Y-17244810D01*
X13313833Y-17235286D01*
X13361452Y-17235286D01*
X13380500Y-17225762D01*
X13447167Y-17178143D02*
X13523357Y-17178143D01*
X13475738Y-17111476D02*
X13475738Y-17282905D01*
X13485262Y-17301952D01*
X13504309Y-17311476D01*
X13523357Y-17311476D01*
X13666214Y-17301952D02*
X13647167Y-17311476D01*
X13609071Y-17311476D01*
X13590024Y-17301952D01*
X13580500Y-17282905D01*
X13580500Y-17206714D01*
X13590024Y-17187667D01*
X13609071Y-17178143D01*
X13647167Y-17178143D01*
X13666214Y-17187667D01*
X13675738Y-17206714D01*
X13675738Y-17225762D01*
X13580500Y-17244810D01*
X13847167Y-17311476D02*
X13847167Y-17111476D01*
X13847167Y-17301952D02*
X13828119Y-17311476D01*
X13790024Y-17311476D01*
X13770976Y-17301952D01*
X13761452Y-17292429D01*
X13751928Y-17273381D01*
X13751928Y-17216238D01*
X13761452Y-17197190D01*
X13770976Y-17187667D01*
X13790024Y-17178143D01*
X13828119Y-17178143D01*
X13847167Y-17187667D01*
X13923357Y-17387667D02*
X13932881Y-17378143D01*
X13951928Y-17349571D01*
X13961452Y-17330524D01*
X13970976Y-17301952D01*
X13980500Y-17254333D01*
X13980500Y-17216238D01*
X13970976Y-17168619D01*
X13961452Y-17140048D01*
X13951928Y-17121000D01*
X13932881Y-17092429D01*
X13923357Y-17082905D01*
X7070500Y-17441000D02*
X7070500Y-17641000D01*
X6970500Y-17541000D02*
X7170500Y-17541000D01*
X7409071Y-17431476D02*
X7532881Y-17431476D01*
X7466214Y-17507667D01*
X7494786Y-17507667D01*
X7513833Y-17517190D01*
X7523357Y-17526714D01*
X7532881Y-17545762D01*
X7532881Y-17593381D01*
X7523357Y-17612429D01*
X7513833Y-17621952D01*
X7494786Y-17631476D01*
X7437643Y-17631476D01*
X7418595Y-17621952D01*
X7409071Y-17612429D01*
X7618595Y-17612429D02*
X7628119Y-17621952D01*
X7618595Y-17631476D01*
X7609071Y-17621952D01*
X7618595Y-17612429D01*
X7618595Y-17631476D01*
X7704309Y-17450524D02*
X7713833Y-17441000D01*
X7732881Y-17431476D01*
X7780500Y-17431476D01*
X7799548Y-17441000D01*
X7809071Y-17450524D01*
X7818595Y-17469571D01*
X7818595Y-17488619D01*
X7809071Y-17517190D01*
X7694786Y-17631476D01*
X7818595Y-17631476D01*
X7942405Y-17431476D02*
X7961452Y-17431476D01*
X7980500Y-17441000D01*
X7990024Y-17450524D01*
X7999548Y-17469571D01*
X8009071Y-17507667D01*
X8009071Y-17555286D01*
X7999548Y-17593381D01*
X7990024Y-17612429D01*
X7980500Y-17621952D01*
X7961452Y-17631476D01*
X7942405Y-17631476D01*
X7923357Y-17621952D01*
X7913833Y-17612429D01*
X7904309Y-17593381D01*
X7894786Y-17555286D01*
X7894786Y-17507667D01*
X7904309Y-17469571D01*
X7913833Y-17450524D01*
X7923357Y-17441000D01*
X7942405Y-17431476D01*
X8132881Y-17431476D02*
X8151928Y-17431476D01*
X8170976Y-17441000D01*
X8180500Y-17450524D01*
X8190024Y-17469571D01*
X8199548Y-17507667D01*
X8199548Y-17555286D01*
X8190024Y-17593381D01*
X8180500Y-17612429D01*
X8170976Y-17621952D01*
X8151928Y-17631476D01*
X8132881Y-17631476D01*
X8113833Y-17621952D01*
X8104309Y-17612429D01*
X8094786Y-17593381D01*
X8085262Y-17555286D01*
X8085262Y-17507667D01*
X8094786Y-17469571D01*
X8104309Y-17450524D01*
X8113833Y-17441000D01*
X8132881Y-17431476D01*
X8285262Y-17631476D02*
X8285262Y-17498143D01*
X8285262Y-17517190D02*
X8294786Y-17507667D01*
X8313833Y-17498143D01*
X8342405Y-17498143D01*
X8361452Y-17507667D01*
X8370976Y-17526714D01*
X8370976Y-17631476D01*
X8370976Y-17526714D02*
X8380500Y-17507667D01*
X8399548Y-17498143D01*
X8428119Y-17498143D01*
X8447167Y-17507667D01*
X8456690Y-17526714D01*
X8456690Y-17631476D01*
X8551929Y-17631476D02*
X8551929Y-17498143D01*
X8551929Y-17517190D02*
X8561452Y-17507667D01*
X8580500Y-17498143D01*
X8609071Y-17498143D01*
X8628119Y-17507667D01*
X8637643Y-17526714D01*
X8637643Y-17631476D01*
X8637643Y-17526714D02*
X8647167Y-17507667D01*
X8666214Y-17498143D01*
X8694786Y-17498143D01*
X8713833Y-17507667D01*
X8723357Y-17526714D01*
X8723357Y-17631476D01*
X9113833Y-17421952D02*
X8942405Y-17679095D01*
X9370976Y-17431476D02*
X9390024Y-17431476D01*
X9409071Y-17441000D01*
X9418595Y-17450524D01*
X9428119Y-17469571D01*
X9437643Y-17507667D01*
X9437643Y-17555286D01*
X9428119Y-17593381D01*
X9418595Y-17612429D01*
X9409071Y-17621952D01*
X9390024Y-17631476D01*
X9370976Y-17631476D01*
X9351929Y-17621952D01*
X9342405Y-17612429D01*
X9332881Y-17593381D01*
X9323357Y-17555286D01*
X9323357Y-17507667D01*
X9332881Y-17469571D01*
X9342405Y-17450524D01*
X9351929Y-17441000D01*
X9370976Y-17431476D01*
X9523357Y-17612429D02*
X9532881Y-17621952D01*
X9523357Y-17631476D01*
X9513833Y-17621952D01*
X9523357Y-17612429D01*
X9523357Y-17631476D01*
X9723357Y-17631476D02*
X9609071Y-17631476D01*
X9666214Y-17631476D02*
X9666214Y-17431476D01*
X9647167Y-17460048D01*
X9628119Y-17479095D01*
X9609071Y-17488619D01*
X9799548Y-17450524D02*
X9809071Y-17441000D01*
X9828119Y-17431476D01*
X9875738Y-17431476D01*
X9894786Y-17441000D01*
X9904310Y-17450524D01*
X9913833Y-17469571D01*
X9913833Y-17488619D01*
X9904310Y-17517190D01*
X9790024Y-17631476D01*
X9913833Y-17631476D01*
X10085262Y-17431476D02*
X10047167Y-17431476D01*
X10028119Y-17441000D01*
X10018595Y-17450524D01*
X9999548Y-17479095D01*
X9990024Y-17517190D01*
X9990024Y-17593381D01*
X9999548Y-17612429D01*
X10009071Y-17621952D01*
X10028119Y-17631476D01*
X10066214Y-17631476D01*
X10085262Y-17621952D01*
X10094786Y-17612429D01*
X10104310Y-17593381D01*
X10104310Y-17545762D01*
X10094786Y-17526714D01*
X10085262Y-17517190D01*
X10066214Y-17507667D01*
X10028119Y-17507667D01*
X10009071Y-17517190D01*
X9999548Y-17526714D01*
X9990024Y-17545762D01*
X10228119Y-17431476D02*
X10247167Y-17431476D01*
X10266214Y-17441000D01*
X10275738Y-17450524D01*
X10285262Y-17469571D01*
X10294786Y-17507667D01*
X10294786Y-17555286D01*
X10285262Y-17593381D01*
X10275738Y-17612429D01*
X10266214Y-17621952D01*
X10247167Y-17631476D01*
X10228119Y-17631476D01*
X10209071Y-17621952D01*
X10199548Y-17612429D01*
X10190024Y-17593381D01*
X10180500Y-17555286D01*
X10180500Y-17507667D01*
X10190024Y-17469571D01*
X10199548Y-17450524D01*
X10209071Y-17441000D01*
X10228119Y-17431476D01*
X10370976Y-17431476D02*
X10370976Y-17469571D01*
X10447167Y-17431476D02*
X10447167Y-17469571D01*
X10742405Y-17707667D02*
X10732881Y-17698143D01*
X10713833Y-17669571D01*
X10704310Y-17650524D01*
X10694786Y-17621952D01*
X10685262Y-17574333D01*
X10685262Y-17536238D01*
X10694786Y-17488619D01*
X10704310Y-17460048D01*
X10713833Y-17441000D01*
X10732881Y-17412429D01*
X10742405Y-17402905D01*
X10809071Y-17450524D02*
X10818595Y-17441000D01*
X10837643Y-17431476D01*
X10885262Y-17431476D01*
X10904310Y-17441000D01*
X10913833Y-17450524D01*
X10923357Y-17469571D01*
X10923357Y-17488619D01*
X10913833Y-17517190D01*
X10799548Y-17631476D01*
X10923357Y-17631476D01*
X11161452Y-17631476D02*
X11161452Y-17431476D01*
X11247167Y-17631476D02*
X11247167Y-17526714D01*
X11237643Y-17507667D01*
X11218595Y-17498143D01*
X11190024Y-17498143D01*
X11170976Y-17507667D01*
X11161452Y-17517190D01*
X11370976Y-17631476D02*
X11351928Y-17621952D01*
X11342405Y-17612429D01*
X11332881Y-17593381D01*
X11332881Y-17536238D01*
X11342405Y-17517190D01*
X11351928Y-17507667D01*
X11370976Y-17498143D01*
X11399548Y-17498143D01*
X11418595Y-17507667D01*
X11428119Y-17517190D01*
X11437643Y-17536238D01*
X11437643Y-17593381D01*
X11428119Y-17612429D01*
X11418595Y-17621952D01*
X11399548Y-17631476D01*
X11370976Y-17631476D01*
X11551928Y-17631476D02*
X11532881Y-17621952D01*
X11523357Y-17602905D01*
X11523357Y-17431476D01*
X11704309Y-17621952D02*
X11685262Y-17631476D01*
X11647167Y-17631476D01*
X11628119Y-17621952D01*
X11618595Y-17602905D01*
X11618595Y-17526714D01*
X11628119Y-17507667D01*
X11647167Y-17498143D01*
X11685262Y-17498143D01*
X11704309Y-17507667D01*
X11713833Y-17526714D01*
X11713833Y-17545762D01*
X11618595Y-17564810D01*
X11790024Y-17621952D02*
X11809071Y-17631476D01*
X11847167Y-17631476D01*
X11866214Y-17621952D01*
X11875738Y-17602905D01*
X11875738Y-17593381D01*
X11866214Y-17574333D01*
X11847167Y-17564810D01*
X11818595Y-17564810D01*
X11799548Y-17555286D01*
X11790024Y-17536238D01*
X11790024Y-17526714D01*
X11799548Y-17507667D01*
X11818595Y-17498143D01*
X11847167Y-17498143D01*
X11866214Y-17507667D01*
X11942405Y-17707667D02*
X11951928Y-17698143D01*
X11970976Y-17669571D01*
X11980500Y-17650524D01*
X11990024Y-17621952D01*
X11999548Y-17574333D01*
X11999548Y-17536238D01*
X11990024Y-17488619D01*
X11980500Y-17460048D01*
X11970976Y-17441000D01*
X11951928Y-17412429D01*
X11942405Y-17402905D01*
X12304309Y-17707667D02*
X12294786Y-17698143D01*
X12275738Y-17669571D01*
X12266214Y-17650524D01*
X12256690Y-17621952D01*
X12247167Y-17574333D01*
X12247167Y-17536238D01*
X12256690Y-17488619D01*
X12266214Y-17460048D01*
X12275738Y-17441000D01*
X12294786Y-17412429D01*
X12304309Y-17402905D01*
X12380500Y-17498143D02*
X12380500Y-17631476D01*
X12380500Y-17517190D02*
X12390024Y-17507667D01*
X12409071Y-17498143D01*
X12437643Y-17498143D01*
X12456690Y-17507667D01*
X12466214Y-17526714D01*
X12466214Y-17631476D01*
X12590024Y-17631476D02*
X12570976Y-17621952D01*
X12561452Y-17612429D01*
X12551928Y-17593381D01*
X12551928Y-17536238D01*
X12561452Y-17517190D01*
X12570976Y-17507667D01*
X12590024Y-17498143D01*
X12618595Y-17498143D01*
X12637643Y-17507667D01*
X12647167Y-17517190D01*
X12656690Y-17536238D01*
X12656690Y-17593381D01*
X12647167Y-17612429D01*
X12637643Y-17621952D01*
X12618595Y-17631476D01*
X12590024Y-17631476D01*
X12713833Y-17498143D02*
X12790024Y-17498143D01*
X12742405Y-17431476D02*
X12742405Y-17602905D01*
X12751928Y-17621952D01*
X12770976Y-17631476D01*
X12790024Y-17631476D01*
X13009071Y-17498143D02*
X13009071Y-17698143D01*
X13009071Y-17507667D02*
X13028119Y-17498143D01*
X13066214Y-17498143D01*
X13085262Y-17507667D01*
X13094786Y-17517190D01*
X13104309Y-17536238D01*
X13104309Y-17593381D01*
X13094786Y-17612429D01*
X13085262Y-17621952D01*
X13066214Y-17631476D01*
X13028119Y-17631476D01*
X13009071Y-17621952D01*
X13218595Y-17631476D02*
X13199548Y-17621952D01*
X13190024Y-17602905D01*
X13190024Y-17431476D01*
X13380500Y-17631476D02*
X13380500Y-17526714D01*
X13370976Y-17507667D01*
X13351928Y-17498143D01*
X13313833Y-17498143D01*
X13294786Y-17507667D01*
X13380500Y-17621952D02*
X13361452Y-17631476D01*
X13313833Y-17631476D01*
X13294786Y-17621952D01*
X13285262Y-17602905D01*
X13285262Y-17583857D01*
X13294786Y-17564810D01*
X13313833Y-17555286D01*
X13361452Y-17555286D01*
X13380500Y-17545762D01*
X13447167Y-17498143D02*
X13523357Y-17498143D01*
X13475738Y-17431476D02*
X13475738Y-17602905D01*
X13485262Y-17621952D01*
X13504309Y-17631476D01*
X13523357Y-17631476D01*
X13666214Y-17621952D02*
X13647167Y-17631476D01*
X13609071Y-17631476D01*
X13590024Y-17621952D01*
X13580500Y-17602905D01*
X13580500Y-17526714D01*
X13590024Y-17507667D01*
X13609071Y-17498143D01*
X13647167Y-17498143D01*
X13666214Y-17507667D01*
X13675738Y-17526714D01*
X13675738Y-17545762D01*
X13580500Y-17564810D01*
X13847167Y-17631476D02*
X13847167Y-17431476D01*
X13847167Y-17621952D02*
X13828119Y-17631476D01*
X13790024Y-17631476D01*
X13770976Y-17621952D01*
X13761452Y-17612429D01*
X13751928Y-17593381D01*
X13751928Y-17536238D01*
X13761452Y-17517190D01*
X13770976Y-17507667D01*
X13790024Y-17498143D01*
X13828119Y-17498143D01*
X13847167Y-17507667D01*
X13923357Y-17707667D02*
X13932881Y-17698143D01*
X13951928Y-17669571D01*
X13961452Y-17650524D01*
X13970976Y-17621952D01*
X13980500Y-17574333D01*
X13980500Y-17536238D01*
X13970976Y-17488619D01*
X13961452Y-17460048D01*
X13951928Y-17441000D01*
X13932881Y-17412429D01*
X13923357Y-17402905D01*
M02*
