%TF.GenerationSoftware,KiCad,Pcbnew,(6.0.8-1)-1*%
%TF.CreationDate,2023-03-06T15:36:22-08:00*%
%TF.ProjectId,urban battery - power_distribution,75726261-6e20-4626-9174-74657279202d,rev?*%
%TF.SameCoordinates,Original*%
%TF.FileFunction,Drillmap*%
%TF.FilePolarity,Positive*%
%FSLAX45Y45*%
G04 Gerber Fmt 4.5, Leading zero omitted, Abs format (unit mm)*
G04 Created by KiCad (PCBNEW (6.0.8-1)-1) date 2023-03-06 15:36:22*
%MOMM*%
%LPD*%
G01*
G04 APERTURE LIST*
%ADD10C,0.100000*%
%ADD11C,0.200000*%
%ADD12C,0.102000*%
%ADD13C,0.178000*%
%ADD14C,0.180000*%
G04 APERTURE END LIST*
D10*
X13716000Y-9144000D02*
X12763500Y-9715500D01*
X8318500Y-9906000D02*
X9327561Y-11620500D01*
X10985500Y-13716000D02*
X10985500Y-15875000D01*
X9271000Y-11721149D02*
G75*
G03*
X9327561Y-11620500I6580J62519D01*
G01*
X14922500Y-9842500D02*
X13716000Y-9144000D01*
X15938500Y-14605000D02*
X13843000Y-12833292D01*
X16002000Y-11747500D02*
X13906500Y-11795010D01*
X7175500Y-12827000D02*
X9525000Y-12700000D01*
X12001500Y-9525000D02*
X11747500Y-10477500D01*
X13843000Y-16256000D02*
X15938500Y-14605000D01*
X11176000Y-9525000D02*
X10414000Y-9715500D01*
X12509500Y-13779500D02*
X13843000Y-16256000D01*
X7493000Y-14605000D02*
X9652000Y-16256000D01*
X12509500Y-13779500D02*
G75*
G03*
X12382500Y-13779500I-63500J-6115D01*
G01*
X13843000Y-11684000D02*
X14922500Y-9842500D01*
X9271000Y-11721146D02*
X7175500Y-11684000D01*
X13842993Y-11683995D02*
G75*
G03*
X13906500Y-11795010I55007J-42205D01*
G01*
X16002000Y-12890500D02*
X16002000Y-11747500D01*
X7175500Y-11684000D02*
X7175500Y-12827000D01*
X12382500Y-15875000D02*
X12382500Y-13779500D01*
X10414000Y-9715500D02*
X9461500Y-9271000D01*
X11747500Y-10477500D02*
X11430000Y-10477500D01*
X13906500Y-12754838D02*
X16002000Y-12890500D01*
X9544620Y-12731750D02*
G75*
G03*
X9525000Y-12700000I-35500J0D01*
G01*
X9544620Y-12731750D02*
X7493000Y-14605000D01*
X9461500Y-9271000D02*
X8318500Y-9906000D01*
X10985500Y-13716000D02*
G75*
G03*
X10858500Y-13716000I-63500J-35728D01*
G01*
X13906500Y-12754842D02*
G75*
G03*
X13843000Y-12833292I5280J-69198D01*
G01*
X9652000Y-16256000D02*
X10858500Y-13716000D01*
X10985500Y-15875000D02*
X12382500Y-15875000D01*
X11430000Y-10477500D02*
X11176000Y-9525000D01*
X12763500Y-9715500D02*
X12001500Y-9525000D01*
D11*
D12*
X8156500Y-12054500D02*
X8258500Y-12156500D01*
X8258500Y-12054500D02*
X8156500Y-12156500D01*
X8156500Y-12354500D02*
X8258500Y-12456500D01*
X8258500Y-12354500D02*
X8156500Y-12456500D01*
X8505655Y-14103713D02*
X8607655Y-14205713D01*
X8607655Y-14103713D02*
X8505655Y-14205713D01*
X8717787Y-14315845D02*
X8819787Y-14417845D01*
X8819787Y-14315845D02*
X8717787Y-14417845D01*
X9479096Y-14897188D02*
X9581096Y-14999188D01*
X9581096Y-14897188D02*
X9479096Y-14999188D01*
X9738904Y-15047188D02*
X9840904Y-15149188D01*
X9840904Y-15047188D02*
X9738904Y-15149188D01*
X13590596Y-15110688D02*
X13692596Y-15212688D01*
X13692596Y-15110688D02*
X13590596Y-15212688D01*
X13850404Y-14960688D02*
X13952404Y-15062688D01*
X13952404Y-14960688D02*
X13850404Y-15062688D01*
X14611713Y-14315845D02*
X14713713Y-14417845D01*
X14713713Y-14315845D02*
X14611713Y-14417845D01*
X14823845Y-14103713D02*
X14925845Y-14205713D01*
X14925845Y-14103713D02*
X14823845Y-14205713D01*
X14982500Y-12118000D02*
X15084500Y-12220000D01*
X15084500Y-12118000D02*
X14982500Y-12220000D01*
X14982500Y-12418000D02*
X15084500Y-12520000D01*
X15084500Y-12418000D02*
X14982500Y-12520000D01*
D13*
X8864000Y-12022000D02*
G75*
G03*
X8864000Y-12022000I-89000J0D01*
G01*
X8864000Y-12362000D02*
G75*
G03*
X8864000Y-12362000I-89000J0D01*
G01*
X9016067Y-13756017D02*
G75*
G03*
X9016067Y-13756017I-89000J0D01*
G01*
X9256483Y-13996433D02*
G75*
G03*
X9256483Y-13996433I-89000J0D01*
G01*
X9717517Y-13054567D02*
G75*
G03*
X9717517Y-13054567I-89000J0D01*
G01*
X9827551Y-14435000D02*
G75*
G03*
X9827551Y-14435000I-89000J0D01*
G01*
X9856000Y-12022000D02*
G75*
G03*
X9856000Y-12022000I-89000J0D01*
G01*
X9856000Y-12362000D02*
G75*
G03*
X9856000Y-12362000I-89000J0D01*
G01*
X9957933Y-13294983D02*
G75*
G03*
X9957933Y-13294983I-89000J0D01*
G01*
X10122000Y-14605000D02*
G75*
G03*
X10122000Y-14605000I-89000J0D01*
G01*
X10323551Y-13575903D02*
G75*
G03*
X10323551Y-13575903I-89000J0D01*
G01*
X10618000Y-13745903D02*
G75*
G03*
X10618000Y-13745903I-89000J0D01*
G01*
X10718418Y-10105900D02*
G75*
G03*
X10718418Y-10105900I-89000J0D01*
G01*
X10975167Y-11064098D02*
G75*
G03*
X10975167Y-11064098I-89000J0D01*
G01*
X11046833Y-10017902D02*
G75*
G03*
X11046833Y-10017902I-89000J0D01*
G01*
X11303582Y-10976100D02*
G75*
G03*
X11303582Y-10976100I-89000J0D01*
G01*
X12051918Y-10976100D02*
G75*
G03*
X12051918Y-10976100I-89000J0D01*
G01*
X12308667Y-10017902D02*
G75*
G03*
X12308667Y-10017902I-89000J0D01*
G01*
X12380333Y-11064099D02*
G75*
G03*
X12380333Y-11064099I-89000J0D01*
G01*
X12637082Y-10105900D02*
G75*
G03*
X12637082Y-10105900I-89000J0D01*
G01*
X12901776Y-13752451D02*
G75*
G03*
X12901776Y-13752451I-89000J0D01*
G01*
X13196224Y-13582451D02*
G75*
G03*
X13196224Y-13582451I-89000J0D01*
G01*
X13397776Y-14611549D02*
G75*
G03*
X13397776Y-14611549I-89000J0D01*
G01*
X13551000Y-12085500D02*
G75*
G03*
X13551000Y-12085500I-89000J0D01*
G01*
X13551000Y-12425500D02*
G75*
G03*
X13551000Y-12425500I-89000J0D01*
G01*
X13588067Y-13294983D02*
G75*
G03*
X13588067Y-13294983I-89000J0D01*
G01*
X13692224Y-14441549D02*
G75*
G03*
X13692224Y-14441549I-89000J0D01*
G01*
X13828483Y-13054567D02*
G75*
G03*
X13828483Y-13054567I-89000J0D01*
G01*
X14289517Y-13996433D02*
G75*
G03*
X14289517Y-13996433I-89000J0D01*
G01*
X14529933Y-13756017D02*
G75*
G03*
X14529933Y-13756017I-89000J0D01*
G01*
X14543000Y-12085500D02*
G75*
G03*
X14543000Y-12085500I-89000J0D01*
G01*
X14543000Y-12425500D02*
G75*
G03*
X14543000Y-12425500I-89000J0D01*
G01*
D14*
X9652000Y-11228547D02*
X9652000Y-11408547D01*
X9562000Y-11318547D02*
X9742000Y-11318547D01*
X10145635Y-10943547D02*
X10145635Y-11123547D01*
X10055635Y-11033547D02*
X10235635Y-11033547D01*
X11399500Y-13972500D02*
X11399500Y-14152500D01*
X11309500Y-14062500D02*
X11489500Y-14062500D01*
X11969500Y-13972500D02*
X11969500Y-14152500D01*
X11879500Y-14062500D02*
X12059500Y-14062500D01*
X13102250Y-10879547D02*
X13102250Y-11059547D01*
X13012250Y-10969547D02*
X13192250Y-10969547D01*
X13595884Y-11164547D02*
X13595884Y-11344547D01*
X13505884Y-11254547D02*
X13685884Y-11254547D01*
D11*
X7428119Y-16571476D02*
X7428119Y-16371476D01*
X7475738Y-16371476D01*
X7504309Y-16381000D01*
X7523357Y-16400048D01*
X7532881Y-16419095D01*
X7542405Y-16457190D01*
X7542405Y-16485762D01*
X7532881Y-16523857D01*
X7523357Y-16542905D01*
X7504309Y-16561952D01*
X7475738Y-16571476D01*
X7428119Y-16571476D01*
X7628119Y-16571476D02*
X7628119Y-16438143D01*
X7628119Y-16476238D02*
X7637643Y-16457190D01*
X7647167Y-16447667D01*
X7666214Y-16438143D01*
X7685262Y-16438143D01*
X7751928Y-16571476D02*
X7751928Y-16438143D01*
X7751928Y-16371476D02*
X7742405Y-16381000D01*
X7751928Y-16390524D01*
X7761452Y-16381000D01*
X7751928Y-16371476D01*
X7751928Y-16390524D01*
X7875738Y-16571476D02*
X7856690Y-16561952D01*
X7847167Y-16542905D01*
X7847167Y-16371476D01*
X7980500Y-16571476D02*
X7961452Y-16561952D01*
X7951928Y-16542905D01*
X7951928Y-16371476D01*
X8209071Y-16571476D02*
X8209071Y-16371476D01*
X8275738Y-16514333D01*
X8342405Y-16371476D01*
X8342405Y-16571476D01*
X8523357Y-16571476D02*
X8523357Y-16466714D01*
X8513833Y-16447667D01*
X8494786Y-16438143D01*
X8456690Y-16438143D01*
X8437643Y-16447667D01*
X8523357Y-16561952D02*
X8504310Y-16571476D01*
X8456690Y-16571476D01*
X8437643Y-16561952D01*
X8428119Y-16542905D01*
X8428119Y-16523857D01*
X8437643Y-16504809D01*
X8456690Y-16495286D01*
X8504310Y-16495286D01*
X8523357Y-16485762D01*
X8618595Y-16438143D02*
X8618595Y-16638143D01*
X8618595Y-16447667D02*
X8637643Y-16438143D01*
X8675738Y-16438143D01*
X8694786Y-16447667D01*
X8704310Y-16457190D01*
X8713833Y-16476238D01*
X8713833Y-16533381D01*
X8704310Y-16552428D01*
X8694786Y-16561952D01*
X8675738Y-16571476D01*
X8637643Y-16571476D01*
X8618595Y-16561952D01*
X8799548Y-16552428D02*
X8809071Y-16561952D01*
X8799548Y-16571476D01*
X8790024Y-16561952D01*
X8799548Y-16552428D01*
X8799548Y-16571476D01*
X8799548Y-16447667D02*
X8809071Y-16457190D01*
X8799548Y-16466714D01*
X8790024Y-16457190D01*
X8799548Y-16447667D01*
X8799548Y-16466714D01*
D12*
X7068500Y-16850000D02*
X7170500Y-16952000D01*
X7170500Y-16850000D02*
X7068500Y-16952000D01*
D11*
X7532881Y-16991476D02*
X7418595Y-16991476D01*
X7475738Y-16991476D02*
X7475738Y-16791476D01*
X7456690Y-16820048D01*
X7437643Y-16839095D01*
X7418595Y-16848619D01*
X7618595Y-16972429D02*
X7628119Y-16981952D01*
X7618595Y-16991476D01*
X7609071Y-16981952D01*
X7618595Y-16972429D01*
X7618595Y-16991476D01*
X7751928Y-16791476D02*
X7770976Y-16791476D01*
X7790024Y-16801000D01*
X7799548Y-16810524D01*
X7809071Y-16829571D01*
X7818595Y-16867667D01*
X7818595Y-16915286D01*
X7809071Y-16953381D01*
X7799548Y-16972429D01*
X7790024Y-16981952D01*
X7770976Y-16991476D01*
X7751928Y-16991476D01*
X7732881Y-16981952D01*
X7723357Y-16972429D01*
X7713833Y-16953381D01*
X7704309Y-16915286D01*
X7704309Y-16867667D01*
X7713833Y-16829571D01*
X7723357Y-16810524D01*
X7732881Y-16801000D01*
X7751928Y-16791476D01*
X7894786Y-16810524D02*
X7904309Y-16801000D01*
X7923357Y-16791476D01*
X7970976Y-16791476D01*
X7990024Y-16801000D01*
X7999548Y-16810524D01*
X8009071Y-16829571D01*
X8009071Y-16848619D01*
X7999548Y-16877190D01*
X7885262Y-16991476D01*
X8009071Y-16991476D01*
X8132881Y-16791476D02*
X8151928Y-16791476D01*
X8170976Y-16801000D01*
X8180500Y-16810524D01*
X8190024Y-16829571D01*
X8199548Y-16867667D01*
X8199548Y-16915286D01*
X8190024Y-16953381D01*
X8180500Y-16972429D01*
X8170976Y-16981952D01*
X8151928Y-16991476D01*
X8132881Y-16991476D01*
X8113833Y-16981952D01*
X8104309Y-16972429D01*
X8094786Y-16953381D01*
X8085262Y-16915286D01*
X8085262Y-16867667D01*
X8094786Y-16829571D01*
X8104309Y-16810524D01*
X8113833Y-16801000D01*
X8132881Y-16791476D01*
X8285262Y-16991476D02*
X8285262Y-16858143D01*
X8285262Y-16877190D02*
X8294786Y-16867667D01*
X8313833Y-16858143D01*
X8342405Y-16858143D01*
X8361452Y-16867667D01*
X8370976Y-16886714D01*
X8370976Y-16991476D01*
X8370976Y-16886714D02*
X8380500Y-16867667D01*
X8399548Y-16858143D01*
X8428119Y-16858143D01*
X8447167Y-16867667D01*
X8456690Y-16886714D01*
X8456690Y-16991476D01*
X8551929Y-16991476D02*
X8551929Y-16858143D01*
X8551929Y-16877190D02*
X8561452Y-16867667D01*
X8580500Y-16858143D01*
X8609071Y-16858143D01*
X8628119Y-16867667D01*
X8637643Y-16886714D01*
X8637643Y-16991476D01*
X8637643Y-16886714D02*
X8647167Y-16867667D01*
X8666214Y-16858143D01*
X8694786Y-16858143D01*
X8713833Y-16867667D01*
X8723357Y-16886714D01*
X8723357Y-16991476D01*
X9113833Y-16781952D02*
X8942405Y-17039095D01*
X9370976Y-16791476D02*
X9390024Y-16791476D01*
X9409071Y-16801000D01*
X9418595Y-16810524D01*
X9428119Y-16829571D01*
X9437643Y-16867667D01*
X9437643Y-16915286D01*
X9428119Y-16953381D01*
X9418595Y-16972429D01*
X9409071Y-16981952D01*
X9390024Y-16991476D01*
X9370976Y-16991476D01*
X9351929Y-16981952D01*
X9342405Y-16972429D01*
X9332881Y-16953381D01*
X9323357Y-16915286D01*
X9323357Y-16867667D01*
X9332881Y-16829571D01*
X9342405Y-16810524D01*
X9351929Y-16801000D01*
X9370976Y-16791476D01*
X9523357Y-16972429D02*
X9532881Y-16981952D01*
X9523357Y-16991476D01*
X9513833Y-16981952D01*
X9523357Y-16972429D01*
X9523357Y-16991476D01*
X9656690Y-16791476D02*
X9675738Y-16791476D01*
X9694786Y-16801000D01*
X9704310Y-16810524D01*
X9713833Y-16829571D01*
X9723357Y-16867667D01*
X9723357Y-16915286D01*
X9713833Y-16953381D01*
X9704310Y-16972429D01*
X9694786Y-16981952D01*
X9675738Y-16991476D01*
X9656690Y-16991476D01*
X9637643Y-16981952D01*
X9628119Y-16972429D01*
X9618595Y-16953381D01*
X9609071Y-16915286D01*
X9609071Y-16867667D01*
X9618595Y-16829571D01*
X9628119Y-16810524D01*
X9637643Y-16801000D01*
X9656690Y-16791476D01*
X9894786Y-16858143D02*
X9894786Y-16991476D01*
X9847167Y-16781952D02*
X9799548Y-16924810D01*
X9923357Y-16924810D01*
X10037643Y-16791476D02*
X10056690Y-16791476D01*
X10075738Y-16801000D01*
X10085262Y-16810524D01*
X10094786Y-16829571D01*
X10104310Y-16867667D01*
X10104310Y-16915286D01*
X10094786Y-16953381D01*
X10085262Y-16972429D01*
X10075738Y-16981952D01*
X10056690Y-16991476D01*
X10037643Y-16991476D01*
X10018595Y-16981952D01*
X10009071Y-16972429D01*
X9999548Y-16953381D01*
X9990024Y-16915286D01*
X9990024Y-16867667D01*
X9999548Y-16829571D01*
X10009071Y-16810524D01*
X10018595Y-16801000D01*
X10037643Y-16791476D01*
X10180500Y-16810524D02*
X10190024Y-16801000D01*
X10209071Y-16791476D01*
X10256690Y-16791476D01*
X10275738Y-16801000D01*
X10285262Y-16810524D01*
X10294786Y-16829571D01*
X10294786Y-16848619D01*
X10285262Y-16877190D01*
X10170976Y-16991476D01*
X10294786Y-16991476D01*
X10370976Y-16791476D02*
X10370976Y-16829571D01*
X10447167Y-16791476D02*
X10447167Y-16829571D01*
X10742405Y-17067667D02*
X10732881Y-17058143D01*
X10713833Y-17029571D01*
X10704310Y-17010524D01*
X10694786Y-16981952D01*
X10685262Y-16934333D01*
X10685262Y-16896238D01*
X10694786Y-16848619D01*
X10704310Y-16820048D01*
X10713833Y-16801000D01*
X10732881Y-16772428D01*
X10742405Y-16762905D01*
X10923357Y-16991476D02*
X10809071Y-16991476D01*
X10866214Y-16991476D02*
X10866214Y-16791476D01*
X10847167Y-16820048D01*
X10828119Y-16839095D01*
X10809071Y-16848619D01*
X10999548Y-16810524D02*
X11009071Y-16801000D01*
X11028119Y-16791476D01*
X11075738Y-16791476D01*
X11094786Y-16801000D01*
X11104310Y-16810524D01*
X11113833Y-16829571D01*
X11113833Y-16848619D01*
X11104310Y-16877190D01*
X10990024Y-16991476D01*
X11113833Y-16991476D01*
X11351928Y-16991476D02*
X11351928Y-16791476D01*
X11437643Y-16991476D02*
X11437643Y-16886714D01*
X11428119Y-16867667D01*
X11409071Y-16858143D01*
X11380500Y-16858143D01*
X11361452Y-16867667D01*
X11351928Y-16877190D01*
X11561452Y-16991476D02*
X11542405Y-16981952D01*
X11532881Y-16972429D01*
X11523357Y-16953381D01*
X11523357Y-16896238D01*
X11532881Y-16877190D01*
X11542405Y-16867667D01*
X11561452Y-16858143D01*
X11590024Y-16858143D01*
X11609071Y-16867667D01*
X11618595Y-16877190D01*
X11628119Y-16896238D01*
X11628119Y-16953381D01*
X11618595Y-16972429D01*
X11609071Y-16981952D01*
X11590024Y-16991476D01*
X11561452Y-16991476D01*
X11742405Y-16991476D02*
X11723357Y-16981952D01*
X11713833Y-16962905D01*
X11713833Y-16791476D01*
X11894786Y-16981952D02*
X11875738Y-16991476D01*
X11837643Y-16991476D01*
X11818595Y-16981952D01*
X11809071Y-16962905D01*
X11809071Y-16886714D01*
X11818595Y-16867667D01*
X11837643Y-16858143D01*
X11875738Y-16858143D01*
X11894786Y-16867667D01*
X11904309Y-16886714D01*
X11904309Y-16905762D01*
X11809071Y-16924810D01*
X11980500Y-16981952D02*
X11999548Y-16991476D01*
X12037643Y-16991476D01*
X12056690Y-16981952D01*
X12066214Y-16962905D01*
X12066214Y-16953381D01*
X12056690Y-16934333D01*
X12037643Y-16924810D01*
X12009071Y-16924810D01*
X11990024Y-16915286D01*
X11980500Y-16896238D01*
X11980500Y-16886714D01*
X11990024Y-16867667D01*
X12009071Y-16858143D01*
X12037643Y-16858143D01*
X12056690Y-16867667D01*
X12132881Y-17067667D02*
X12142405Y-17058143D01*
X12161452Y-17029571D01*
X12170976Y-17010524D01*
X12180500Y-16981952D01*
X12190024Y-16934333D01*
X12190024Y-16896238D01*
X12180500Y-16848619D01*
X12170976Y-16820048D01*
X12161452Y-16801000D01*
X12142405Y-16772428D01*
X12132881Y-16762905D01*
D13*
X7170500Y-17165000D02*
G75*
G03*
X7170500Y-17165000I-89000J0D01*
G01*
D11*
X7532881Y-17255476D02*
X7418595Y-17255476D01*
X7475738Y-17255476D02*
X7475738Y-17055476D01*
X7456690Y-17084048D01*
X7437643Y-17103095D01*
X7418595Y-17112619D01*
X7618595Y-17236429D02*
X7628119Y-17245952D01*
X7618595Y-17255476D01*
X7609071Y-17245952D01*
X7618595Y-17236429D01*
X7618595Y-17255476D01*
X7694786Y-17055476D02*
X7828119Y-17055476D01*
X7742405Y-17255476D01*
X7932881Y-17141190D02*
X7913833Y-17131667D01*
X7904309Y-17122143D01*
X7894786Y-17103095D01*
X7894786Y-17093571D01*
X7904309Y-17074524D01*
X7913833Y-17065000D01*
X7932881Y-17055476D01*
X7970976Y-17055476D01*
X7990024Y-17065000D01*
X7999548Y-17074524D01*
X8009071Y-17093571D01*
X8009071Y-17103095D01*
X7999548Y-17122143D01*
X7990024Y-17131667D01*
X7970976Y-17141190D01*
X7932881Y-17141190D01*
X7913833Y-17150714D01*
X7904309Y-17160238D01*
X7894786Y-17179286D01*
X7894786Y-17217381D01*
X7904309Y-17236429D01*
X7913833Y-17245952D01*
X7932881Y-17255476D01*
X7970976Y-17255476D01*
X7990024Y-17245952D01*
X7999548Y-17236429D01*
X8009071Y-17217381D01*
X8009071Y-17179286D01*
X7999548Y-17160238D01*
X7990024Y-17150714D01*
X7970976Y-17141190D01*
X8132881Y-17055476D02*
X8151928Y-17055476D01*
X8170976Y-17065000D01*
X8180500Y-17074524D01*
X8190024Y-17093571D01*
X8199548Y-17131667D01*
X8199548Y-17179286D01*
X8190024Y-17217381D01*
X8180500Y-17236429D01*
X8170976Y-17245952D01*
X8151928Y-17255476D01*
X8132881Y-17255476D01*
X8113833Y-17245952D01*
X8104309Y-17236429D01*
X8094786Y-17217381D01*
X8085262Y-17179286D01*
X8085262Y-17131667D01*
X8094786Y-17093571D01*
X8104309Y-17074524D01*
X8113833Y-17065000D01*
X8132881Y-17055476D01*
X8285262Y-17255476D02*
X8285262Y-17122143D01*
X8285262Y-17141190D02*
X8294786Y-17131667D01*
X8313833Y-17122143D01*
X8342405Y-17122143D01*
X8361452Y-17131667D01*
X8370976Y-17150714D01*
X8370976Y-17255476D01*
X8370976Y-17150714D02*
X8380500Y-17131667D01*
X8399548Y-17122143D01*
X8428119Y-17122143D01*
X8447167Y-17131667D01*
X8456690Y-17150714D01*
X8456690Y-17255476D01*
X8551929Y-17255476D02*
X8551929Y-17122143D01*
X8551929Y-17141190D02*
X8561452Y-17131667D01*
X8580500Y-17122143D01*
X8609071Y-17122143D01*
X8628119Y-17131667D01*
X8637643Y-17150714D01*
X8637643Y-17255476D01*
X8637643Y-17150714D02*
X8647167Y-17131667D01*
X8666214Y-17122143D01*
X8694786Y-17122143D01*
X8713833Y-17131667D01*
X8723357Y-17150714D01*
X8723357Y-17255476D01*
X9113833Y-17045952D02*
X8942405Y-17303095D01*
X9370976Y-17055476D02*
X9390024Y-17055476D01*
X9409071Y-17065000D01*
X9418595Y-17074524D01*
X9428119Y-17093571D01*
X9437643Y-17131667D01*
X9437643Y-17179286D01*
X9428119Y-17217381D01*
X9418595Y-17236429D01*
X9409071Y-17245952D01*
X9390024Y-17255476D01*
X9370976Y-17255476D01*
X9351929Y-17245952D01*
X9342405Y-17236429D01*
X9332881Y-17217381D01*
X9323357Y-17179286D01*
X9323357Y-17131667D01*
X9332881Y-17093571D01*
X9342405Y-17074524D01*
X9351929Y-17065000D01*
X9370976Y-17055476D01*
X9523357Y-17236429D02*
X9532881Y-17245952D01*
X9523357Y-17255476D01*
X9513833Y-17245952D01*
X9523357Y-17236429D01*
X9523357Y-17255476D01*
X9656690Y-17055476D02*
X9675738Y-17055476D01*
X9694786Y-17065000D01*
X9704310Y-17074524D01*
X9713833Y-17093571D01*
X9723357Y-17131667D01*
X9723357Y-17179286D01*
X9713833Y-17217381D01*
X9704310Y-17236429D01*
X9694786Y-17245952D01*
X9675738Y-17255476D01*
X9656690Y-17255476D01*
X9637643Y-17245952D01*
X9628119Y-17236429D01*
X9618595Y-17217381D01*
X9609071Y-17179286D01*
X9609071Y-17131667D01*
X9618595Y-17093571D01*
X9628119Y-17074524D01*
X9637643Y-17065000D01*
X9656690Y-17055476D01*
X9790024Y-17055476D02*
X9923357Y-17055476D01*
X9837643Y-17255476D01*
X10037643Y-17055476D02*
X10056690Y-17055476D01*
X10075738Y-17065000D01*
X10085262Y-17074524D01*
X10094786Y-17093571D01*
X10104310Y-17131667D01*
X10104310Y-17179286D01*
X10094786Y-17217381D01*
X10085262Y-17236429D01*
X10075738Y-17245952D01*
X10056690Y-17255476D01*
X10037643Y-17255476D01*
X10018595Y-17245952D01*
X10009071Y-17236429D01*
X9999548Y-17217381D01*
X9990024Y-17179286D01*
X9990024Y-17131667D01*
X9999548Y-17093571D01*
X10009071Y-17074524D01*
X10018595Y-17065000D01*
X10037643Y-17055476D01*
X10294786Y-17255476D02*
X10180500Y-17255476D01*
X10237643Y-17255476D02*
X10237643Y-17055476D01*
X10218595Y-17084048D01*
X10199548Y-17103095D01*
X10180500Y-17112619D01*
X10370976Y-17055476D02*
X10370976Y-17093571D01*
X10447167Y-17055476D02*
X10447167Y-17093571D01*
X10742405Y-17331667D02*
X10732881Y-17322143D01*
X10713833Y-17293571D01*
X10704310Y-17274524D01*
X10694786Y-17245952D01*
X10685262Y-17198333D01*
X10685262Y-17160238D01*
X10694786Y-17112619D01*
X10704310Y-17084048D01*
X10713833Y-17065000D01*
X10732881Y-17036429D01*
X10742405Y-17026905D01*
X10799548Y-17055476D02*
X10923357Y-17055476D01*
X10856690Y-17131667D01*
X10885262Y-17131667D01*
X10904310Y-17141190D01*
X10913833Y-17150714D01*
X10923357Y-17169762D01*
X10923357Y-17217381D01*
X10913833Y-17236429D01*
X10904310Y-17245952D01*
X10885262Y-17255476D01*
X10828119Y-17255476D01*
X10809071Y-17245952D01*
X10799548Y-17236429D01*
X10999548Y-17074524D02*
X11009071Y-17065000D01*
X11028119Y-17055476D01*
X11075738Y-17055476D01*
X11094786Y-17065000D01*
X11104310Y-17074524D01*
X11113833Y-17093571D01*
X11113833Y-17112619D01*
X11104310Y-17141190D01*
X10990024Y-17255476D01*
X11113833Y-17255476D01*
X11351928Y-17255476D02*
X11351928Y-17055476D01*
X11437643Y-17255476D02*
X11437643Y-17150714D01*
X11428119Y-17131667D01*
X11409071Y-17122143D01*
X11380500Y-17122143D01*
X11361452Y-17131667D01*
X11351928Y-17141190D01*
X11561452Y-17255476D02*
X11542405Y-17245952D01*
X11532881Y-17236429D01*
X11523357Y-17217381D01*
X11523357Y-17160238D01*
X11532881Y-17141190D01*
X11542405Y-17131667D01*
X11561452Y-17122143D01*
X11590024Y-17122143D01*
X11609071Y-17131667D01*
X11618595Y-17141190D01*
X11628119Y-17160238D01*
X11628119Y-17217381D01*
X11618595Y-17236429D01*
X11609071Y-17245952D01*
X11590024Y-17255476D01*
X11561452Y-17255476D01*
X11742405Y-17255476D02*
X11723357Y-17245952D01*
X11713833Y-17226905D01*
X11713833Y-17055476D01*
X11894786Y-17245952D02*
X11875738Y-17255476D01*
X11837643Y-17255476D01*
X11818595Y-17245952D01*
X11809071Y-17226905D01*
X11809071Y-17150714D01*
X11818595Y-17131667D01*
X11837643Y-17122143D01*
X11875738Y-17122143D01*
X11894786Y-17131667D01*
X11904309Y-17150714D01*
X11904309Y-17169762D01*
X11809071Y-17188810D01*
X11980500Y-17245952D02*
X11999548Y-17255476D01*
X12037643Y-17255476D01*
X12056690Y-17245952D01*
X12066214Y-17226905D01*
X12066214Y-17217381D01*
X12056690Y-17198333D01*
X12037643Y-17188810D01*
X12009071Y-17188810D01*
X11990024Y-17179286D01*
X11980500Y-17160238D01*
X11980500Y-17150714D01*
X11990024Y-17131667D01*
X12009071Y-17122143D01*
X12037643Y-17122143D01*
X12056690Y-17131667D01*
X12132881Y-17331667D02*
X12142405Y-17322143D01*
X12161452Y-17293571D01*
X12170976Y-17274524D01*
X12180500Y-17245952D01*
X12190024Y-17198333D01*
X12190024Y-17160238D01*
X12180500Y-17112619D01*
X12170976Y-17084048D01*
X12161452Y-17065000D01*
X12142405Y-17036429D01*
X12132881Y-17026905D01*
D14*
X7080500Y-17373000D02*
X7080500Y-17553000D01*
X6990500Y-17463000D02*
X7170500Y-17463000D01*
D11*
X7532881Y-17553476D02*
X7418595Y-17553476D01*
X7475738Y-17553476D02*
X7475738Y-17353476D01*
X7456690Y-17382048D01*
X7437643Y-17401095D01*
X7418595Y-17410619D01*
X7618595Y-17534429D02*
X7628119Y-17543952D01*
X7618595Y-17553476D01*
X7609071Y-17543952D01*
X7618595Y-17534429D01*
X7618595Y-17553476D01*
X7742405Y-17439190D02*
X7723357Y-17429667D01*
X7713833Y-17420143D01*
X7704309Y-17401095D01*
X7704309Y-17391571D01*
X7713833Y-17372524D01*
X7723357Y-17363000D01*
X7742405Y-17353476D01*
X7780500Y-17353476D01*
X7799548Y-17363000D01*
X7809071Y-17372524D01*
X7818595Y-17391571D01*
X7818595Y-17401095D01*
X7809071Y-17420143D01*
X7799548Y-17429667D01*
X7780500Y-17439190D01*
X7742405Y-17439190D01*
X7723357Y-17448714D01*
X7713833Y-17458238D01*
X7704309Y-17477286D01*
X7704309Y-17515381D01*
X7713833Y-17534429D01*
X7723357Y-17543952D01*
X7742405Y-17553476D01*
X7780500Y-17553476D01*
X7799548Y-17543952D01*
X7809071Y-17534429D01*
X7818595Y-17515381D01*
X7818595Y-17477286D01*
X7809071Y-17458238D01*
X7799548Y-17448714D01*
X7780500Y-17439190D01*
X7942405Y-17353476D02*
X7961452Y-17353476D01*
X7980500Y-17363000D01*
X7990024Y-17372524D01*
X7999548Y-17391571D01*
X8009071Y-17429667D01*
X8009071Y-17477286D01*
X7999548Y-17515381D01*
X7990024Y-17534429D01*
X7980500Y-17543952D01*
X7961452Y-17553476D01*
X7942405Y-17553476D01*
X7923357Y-17543952D01*
X7913833Y-17534429D01*
X7904309Y-17515381D01*
X7894786Y-17477286D01*
X7894786Y-17429667D01*
X7904309Y-17391571D01*
X7913833Y-17372524D01*
X7923357Y-17363000D01*
X7942405Y-17353476D01*
X8132881Y-17353476D02*
X8151928Y-17353476D01*
X8170976Y-17363000D01*
X8180500Y-17372524D01*
X8190024Y-17391571D01*
X8199548Y-17429667D01*
X8199548Y-17477286D01*
X8190024Y-17515381D01*
X8180500Y-17534429D01*
X8170976Y-17543952D01*
X8151928Y-17553476D01*
X8132881Y-17553476D01*
X8113833Y-17543952D01*
X8104309Y-17534429D01*
X8094786Y-17515381D01*
X8085262Y-17477286D01*
X8085262Y-17429667D01*
X8094786Y-17391571D01*
X8104309Y-17372524D01*
X8113833Y-17363000D01*
X8132881Y-17353476D01*
X8285262Y-17553476D02*
X8285262Y-17420143D01*
X8285262Y-17439190D02*
X8294786Y-17429667D01*
X8313833Y-17420143D01*
X8342405Y-17420143D01*
X8361452Y-17429667D01*
X8370976Y-17448714D01*
X8370976Y-17553476D01*
X8370976Y-17448714D02*
X8380500Y-17429667D01*
X8399548Y-17420143D01*
X8428119Y-17420143D01*
X8447167Y-17429667D01*
X8456690Y-17448714D01*
X8456690Y-17553476D01*
X8551929Y-17553476D02*
X8551929Y-17420143D01*
X8551929Y-17439190D02*
X8561452Y-17429667D01*
X8580500Y-17420143D01*
X8609071Y-17420143D01*
X8628119Y-17429667D01*
X8637643Y-17448714D01*
X8637643Y-17553476D01*
X8637643Y-17448714D02*
X8647167Y-17429667D01*
X8666214Y-17420143D01*
X8694786Y-17420143D01*
X8713833Y-17429667D01*
X8723357Y-17448714D01*
X8723357Y-17553476D01*
X9113833Y-17343952D02*
X8942405Y-17601095D01*
X9370976Y-17353476D02*
X9390024Y-17353476D01*
X9409071Y-17363000D01*
X9418595Y-17372524D01*
X9428119Y-17391571D01*
X9437643Y-17429667D01*
X9437643Y-17477286D01*
X9428119Y-17515381D01*
X9418595Y-17534429D01*
X9409071Y-17543952D01*
X9390024Y-17553476D01*
X9370976Y-17553476D01*
X9351929Y-17543952D01*
X9342405Y-17534429D01*
X9332881Y-17515381D01*
X9323357Y-17477286D01*
X9323357Y-17429667D01*
X9332881Y-17391571D01*
X9342405Y-17372524D01*
X9351929Y-17363000D01*
X9370976Y-17353476D01*
X9523357Y-17534429D02*
X9532881Y-17543952D01*
X9523357Y-17553476D01*
X9513833Y-17543952D01*
X9523357Y-17534429D01*
X9523357Y-17553476D01*
X9656690Y-17353476D02*
X9675738Y-17353476D01*
X9694786Y-17363000D01*
X9704310Y-17372524D01*
X9713833Y-17391571D01*
X9723357Y-17429667D01*
X9723357Y-17477286D01*
X9713833Y-17515381D01*
X9704310Y-17534429D01*
X9694786Y-17543952D01*
X9675738Y-17553476D01*
X9656690Y-17553476D01*
X9637643Y-17543952D01*
X9628119Y-17534429D01*
X9618595Y-17515381D01*
X9609071Y-17477286D01*
X9609071Y-17429667D01*
X9618595Y-17391571D01*
X9628119Y-17372524D01*
X9637643Y-17363000D01*
X9656690Y-17353476D01*
X9790024Y-17353476D02*
X9923357Y-17353476D01*
X9837643Y-17553476D01*
X10037643Y-17353476D02*
X10056690Y-17353476D01*
X10075738Y-17363000D01*
X10085262Y-17372524D01*
X10094786Y-17391571D01*
X10104310Y-17429667D01*
X10104310Y-17477286D01*
X10094786Y-17515381D01*
X10085262Y-17534429D01*
X10075738Y-17543952D01*
X10056690Y-17553476D01*
X10037643Y-17553476D01*
X10018595Y-17543952D01*
X10009071Y-17534429D01*
X9999548Y-17515381D01*
X9990024Y-17477286D01*
X9990024Y-17429667D01*
X9999548Y-17391571D01*
X10009071Y-17372524D01*
X10018595Y-17363000D01*
X10037643Y-17353476D01*
X10199548Y-17553476D02*
X10237643Y-17553476D01*
X10256690Y-17543952D01*
X10266214Y-17534429D01*
X10285262Y-17505857D01*
X10294786Y-17467762D01*
X10294786Y-17391571D01*
X10285262Y-17372524D01*
X10275738Y-17363000D01*
X10256690Y-17353476D01*
X10218595Y-17353476D01*
X10199548Y-17363000D01*
X10190024Y-17372524D01*
X10180500Y-17391571D01*
X10180500Y-17439190D01*
X10190024Y-17458238D01*
X10199548Y-17467762D01*
X10218595Y-17477286D01*
X10256690Y-17477286D01*
X10275738Y-17467762D01*
X10285262Y-17458238D01*
X10294786Y-17439190D01*
X10370976Y-17353476D02*
X10370976Y-17391571D01*
X10447167Y-17353476D02*
X10447167Y-17391571D01*
X10742405Y-17629667D02*
X10732881Y-17620143D01*
X10713833Y-17591571D01*
X10704310Y-17572524D01*
X10694786Y-17543952D01*
X10685262Y-17496333D01*
X10685262Y-17458238D01*
X10694786Y-17410619D01*
X10704310Y-17382048D01*
X10713833Y-17363000D01*
X10732881Y-17334429D01*
X10742405Y-17324905D01*
X10904310Y-17353476D02*
X10866214Y-17353476D01*
X10847167Y-17363000D01*
X10837643Y-17372524D01*
X10818595Y-17401095D01*
X10809071Y-17439190D01*
X10809071Y-17515381D01*
X10818595Y-17534429D01*
X10828119Y-17543952D01*
X10847167Y-17553476D01*
X10885262Y-17553476D01*
X10904310Y-17543952D01*
X10913833Y-17534429D01*
X10923357Y-17515381D01*
X10923357Y-17467762D01*
X10913833Y-17448714D01*
X10904310Y-17439190D01*
X10885262Y-17429667D01*
X10847167Y-17429667D01*
X10828119Y-17439190D01*
X10818595Y-17448714D01*
X10809071Y-17467762D01*
X11161452Y-17553476D02*
X11161452Y-17353476D01*
X11247167Y-17553476D02*
X11247167Y-17448714D01*
X11237643Y-17429667D01*
X11218595Y-17420143D01*
X11190024Y-17420143D01*
X11170976Y-17429667D01*
X11161452Y-17439190D01*
X11370976Y-17553476D02*
X11351928Y-17543952D01*
X11342405Y-17534429D01*
X11332881Y-17515381D01*
X11332881Y-17458238D01*
X11342405Y-17439190D01*
X11351928Y-17429667D01*
X11370976Y-17420143D01*
X11399548Y-17420143D01*
X11418595Y-17429667D01*
X11428119Y-17439190D01*
X11437643Y-17458238D01*
X11437643Y-17515381D01*
X11428119Y-17534429D01*
X11418595Y-17543952D01*
X11399548Y-17553476D01*
X11370976Y-17553476D01*
X11551928Y-17553476D02*
X11532881Y-17543952D01*
X11523357Y-17524905D01*
X11523357Y-17353476D01*
X11704309Y-17543952D02*
X11685262Y-17553476D01*
X11647167Y-17553476D01*
X11628119Y-17543952D01*
X11618595Y-17524905D01*
X11618595Y-17448714D01*
X11628119Y-17429667D01*
X11647167Y-17420143D01*
X11685262Y-17420143D01*
X11704309Y-17429667D01*
X11713833Y-17448714D01*
X11713833Y-17467762D01*
X11618595Y-17486810D01*
X11790024Y-17543952D02*
X11809071Y-17553476D01*
X11847167Y-17553476D01*
X11866214Y-17543952D01*
X11875738Y-17524905D01*
X11875738Y-17515381D01*
X11866214Y-17496333D01*
X11847167Y-17486810D01*
X11818595Y-17486810D01*
X11799548Y-17477286D01*
X11790024Y-17458238D01*
X11790024Y-17448714D01*
X11799548Y-17429667D01*
X11818595Y-17420143D01*
X11847167Y-17420143D01*
X11866214Y-17429667D01*
X11942405Y-17629667D02*
X11951928Y-17620143D01*
X11970976Y-17591571D01*
X11980500Y-17572524D01*
X11990024Y-17543952D01*
X11999548Y-17496333D01*
X11999548Y-17458238D01*
X11990024Y-17410619D01*
X11980500Y-17382048D01*
X11970976Y-17363000D01*
X11951928Y-17334429D01*
X11942405Y-17324905D01*
M02*
