G04 #@! TF.GenerationSoftware,KiCad,Pcbnew,(6.0.8-1)-1*
G04 #@! TF.CreationDate,2023-03-04T16:24:03-08:00*
G04 #@! TF.ProjectId,urban battery - power_distribution,75726261-6e20-4626-9174-74657279202d,rev?*
G04 #@! TF.SameCoordinates,Original*
G04 #@! TF.FileFunction,Legend,Bot*
G04 #@! TF.FilePolarity,Positive*
%FSLAX46Y46*%
G04 Gerber Fmt 4.6, Leading zero omitted, Abs format (unit mm)*
G04 Created by KiCad (PCBNEW (6.0.8-1)-1) date 2023-03-04 16:24:03*
%MOMM*%
%LPD*%
G01*
G04 APERTURE LIST*
G04 Aperture macros list*
%AMRoundRect*
0 Rectangle with rounded corners*
0 $1 Rounding radius*
0 $2 $3 $4 $5 $6 $7 $8 $9 X,Y pos of 4 corners*
0 Add a 4 corners polygon primitive as box body*
4,1,4,$2,$3,$4,$5,$6,$7,$8,$9,$2,$3,0*
0 Add four circle primitives for the rounded corners*
1,1,$1+$1,$2,$3*
1,1,$1+$1,$4,$5*
1,1,$1+$1,$6,$7*
1,1,$1+$1,$8,$9*
0 Add four rect primitives between the rounded corners*
20,1,$1+$1,$2,$3,$4,$5,0*
20,1,$1+$1,$4,$5,$6,$7,0*
20,1,$1+$1,$6,$7,$8,$9,0*
20,1,$1+$1,$8,$9,$2,$3,0*%
%AMHorizOval*
0 Thick line with rounded ends*
0 $1 width*
0 $2 $3 position (X,Y) of the first rounded end (center of the circle)*
0 $4 $5 position (X,Y) of the second rounded end (center of the circle)*
0 Add line between two ends*
20,1,$1,$2,$3,$4,$5,0*
0 Add two circle primitives to create the rounded ends*
1,1,$1,$2,$3*
1,1,$1,$4,$5*%
G04 Aperture macros list end*
%ADD10C,1.626200*%
%ADD11C,1.226200*%
%ADD12C,0.010000*%
%ADD13C,3.000000*%
%ADD14RoundRect,0.250001X0.813011X0.408179X-0.053012X0.908178X-0.813011X-0.408179X0.053012X-0.908178X0*%
%ADD15HorizOval,1.500000X0.130000X0.225167X-0.130000X-0.225167X0*%
%ADD16RoundRect,0.250001X0.759999X-0.499999X0.759999X0.499999X-0.759999X0.499999X-0.759999X-0.499999X0*%
%ADD17O,2.020000X1.500000*%
%ADD18C,3.200000*%
%ADD19C,2.780000*%
%ADD20C,3.100000*%
%ADD21RoundRect,0.250001X0.890953X0.183848X0.183848X0.890953X-0.890953X-0.183848X-0.183848X-0.890953X0*%
%ADD22HorizOval,1.500000X0.183848X0.183848X-0.183848X-0.183848X0*%
%ADD23RoundRect,0.250001X-0.759999X0.499999X-0.759999X-0.499999X0.759999X-0.499999X0.759999X0.499999X0*%
%ADD24RoundRect,0.250001X0.053012X0.908178X-0.813011X0.408179X-0.053012X-0.908178X0.813011X-0.408179X0*%
%ADD25HorizOval,1.500000X-0.130000X0.225167X0.130000X-0.225167X0*%
%ADD26RoundRect,0.250001X-0.183848X0.890953X-0.890953X0.183848X0.183848X-0.890953X0.890953X-0.183848X0*%
%ADD27HorizOval,1.500000X-0.183848X0.183848X0.183848X-0.183848X0*%
G04 APERTURE END LIST*
%LPC*%
D10*
X96151272Y-105438481D02*
G75*
G03*
X96151272Y-105438481I-813100J0D01*
G01*
D11*
X102069445Y-110335466D02*
G75*
G03*
X102069445Y-110335466I-613100J0D01*
G01*
G36*
X98195020Y-113634286D02*
G01*
X96071180Y-114860486D01*
X94844980Y-112736646D01*
X96968820Y-111510446D01*
X98195020Y-113634286D01*
G37*
D12*
X98195020Y-113634286D02*
X96071180Y-114860486D01*
X94844980Y-112736646D01*
X96968820Y-111510446D01*
X98195020Y-113634286D01*
D10*
X117658100Y-147925000D02*
G75*
G03*
X117658100Y-147925000I-813100J0D01*
G01*
D11*
X114608100Y-140625000D02*
G75*
G03*
X114608100Y-140625000I-613100J0D01*
G01*
G36*
X120921200Y-141851200D02*
G01*
X118468800Y-141851200D01*
X118468800Y-139398800D01*
X120921200Y-139398800D01*
X120921200Y-141851200D01*
G37*
D12*
X120921200Y-141851200D02*
X118468800Y-141851200D01*
X118468800Y-139398800D01*
X120921200Y-139398800D01*
X120921200Y-141851200D01*
D11*
X136571942Y-112545466D02*
G75*
G03*
X136571942Y-112545466I-613100J0D01*
G01*
D10*
X137953769Y-104798481D02*
G75*
G03*
X137953769Y-104798481I-813100J0D01*
G01*
G36*
X132697517Y-109246646D02*
G01*
X131471317Y-111370486D01*
X129347477Y-110144286D01*
X130573677Y-108020446D01*
X132697517Y-109246646D01*
G37*
D12*
X132697517Y-109246646D02*
X131471317Y-111370486D01*
X129347477Y-110144286D01*
X130573677Y-108020446D01*
X132697517Y-109246646D01*
D13*
X94440000Y-153973110D03*
D14*
X97899038Y-150981880D03*
D15*
X95300962Y-149481880D03*
D13*
X77755000Y-122555000D03*
D16*
X82075000Y-124055000D03*
D17*
X82075000Y-121055000D03*
D18*
X105410000Y-117475000D03*
D19*
X131072243Y-135824514D03*
X128127757Y-137524514D03*
X133087757Y-146115486D03*
X136032243Y-144415486D03*
D18*
X126365000Y-117475000D03*
D20*
X95338172Y-105438481D03*
D13*
X83572513Y-145662487D03*
D21*
X87687874Y-143668446D03*
D22*
X85566554Y-141547126D03*
D20*
X116845000Y-147925000D03*
D19*
X112145817Y-109760999D03*
X108861669Y-110640984D03*
X106294184Y-101059000D03*
X109578332Y-100179015D03*
X134990669Y-132949832D03*
X137394832Y-130545669D03*
X144409331Y-137560168D03*
X142005168Y-139964331D03*
X122913332Y-110640985D03*
X119629184Y-109761000D03*
X125480817Y-101059001D03*
X122196669Y-100179016D03*
X97670000Y-120220000D03*
X97670000Y-123620000D03*
X87750000Y-123620000D03*
X87750000Y-120220000D03*
D13*
X154655000Y-123190000D03*
D23*
X150335000Y-121690000D03*
D17*
X150335000Y-124690000D03*
D19*
X134620000Y-124255000D03*
X134620000Y-120855000D03*
X144540000Y-124255000D03*
X144540000Y-120855000D03*
D13*
X139875000Y-154608110D03*
D24*
X139014038Y-150116880D03*
D25*
X136415962Y-151616880D03*
D19*
X96285169Y-130545669D03*
X98689332Y-132949832D03*
X89270670Y-137560168D03*
X91674833Y-139964331D03*
D20*
X137140669Y-104798481D03*
D13*
X150742487Y-145662487D03*
D26*
X148748446Y-141547126D03*
D27*
X146627126Y-143668446D03*
D19*
X105290000Y-137459028D03*
X102345514Y-135759028D03*
X100330000Y-146050000D03*
X97385514Y-144350000D03*
M02*
